%TF.GenerationSoftware,KiCad,Pcbnew,(6.0.0)*%
%TF.CreationDate,2022-04-21T19:53:10+02:00*%
%TF.ProjectId,KallebolFanoutBoard,4b616c6c-6562-46f6-9c46-616e6f757442,rev?*%
%TF.SameCoordinates,Original*%
%TF.FileFunction,Legend,Top*%
%TF.FilePolarity,Positive*%
%FSLAX46Y46*%
G04 Gerber Fmt 4.6, Leading zero omitted, Abs format (unit mm)*
G04 Created by KiCad (PCBNEW (6.0.0)) date 2022-04-21 19:53:10*
%MOMM*%
%LPD*%
G01*
G04 APERTURE LIST*
%ADD10C,0.150000*%
%ADD11C,0.120000*%
G04 APERTURE END LIST*
D10*
X102735595Y-59237380D02*
X102735595Y-58237380D01*
X103307023Y-59237380D02*
X102878452Y-58665952D01*
X103307023Y-58237380D02*
X102735595Y-58808809D01*
X104164166Y-59237380D02*
X104164166Y-58713571D01*
X104116547Y-58618333D01*
X104021309Y-58570714D01*
X103830833Y-58570714D01*
X103735595Y-58618333D01*
X104164166Y-59189761D02*
X104068928Y-59237380D01*
X103830833Y-59237380D01*
X103735595Y-59189761D01*
X103687976Y-59094523D01*
X103687976Y-58999285D01*
X103735595Y-58904047D01*
X103830833Y-58856428D01*
X104068928Y-58856428D01*
X104164166Y-58808809D01*
X104783214Y-59237380D02*
X104687976Y-59189761D01*
X104640357Y-59094523D01*
X104640357Y-58237380D01*
X105307023Y-59237380D02*
X105211785Y-59189761D01*
X105164166Y-59094523D01*
X105164166Y-58237380D01*
X106068928Y-59189761D02*
X105973690Y-59237380D01*
X105783214Y-59237380D01*
X105687976Y-59189761D01*
X105640357Y-59094523D01*
X105640357Y-58713571D01*
X105687976Y-58618333D01*
X105783214Y-58570714D01*
X105973690Y-58570714D01*
X106068928Y-58618333D01*
X106116547Y-58713571D01*
X106116547Y-58808809D01*
X105640357Y-58904047D01*
X106545119Y-59237380D02*
X106545119Y-58237380D01*
X106545119Y-58618333D02*
X106640357Y-58570714D01*
X106830833Y-58570714D01*
X106926071Y-58618333D01*
X106973690Y-58665952D01*
X107021309Y-58761190D01*
X107021309Y-59046904D01*
X106973690Y-59142142D01*
X106926071Y-59189761D01*
X106830833Y-59237380D01*
X106640357Y-59237380D01*
X106545119Y-59189761D01*
X107592738Y-59237380D02*
X107497500Y-59189761D01*
X107449880Y-59142142D01*
X107402261Y-59046904D01*
X107402261Y-58761190D01*
X107449880Y-58665952D01*
X107497500Y-58618333D01*
X107592738Y-58570714D01*
X107735595Y-58570714D01*
X107830833Y-58618333D01*
X107878452Y-58665952D01*
X107926071Y-58761190D01*
X107926071Y-59046904D01*
X107878452Y-59142142D01*
X107830833Y-59189761D01*
X107735595Y-59237380D01*
X107592738Y-59237380D01*
X108497500Y-59237380D02*
X108402261Y-59189761D01*
X108354642Y-59094523D01*
X108354642Y-58237380D01*
X108878452Y-58856428D02*
X109640357Y-58856428D01*
X110449880Y-58713571D02*
X110116547Y-58713571D01*
X110116547Y-59237380D02*
X110116547Y-58237380D01*
X110592738Y-58237380D01*
X111402261Y-59237380D02*
X111402261Y-58713571D01*
X111354642Y-58618333D01*
X111259404Y-58570714D01*
X111068928Y-58570714D01*
X110973690Y-58618333D01*
X111402261Y-59189761D02*
X111307023Y-59237380D01*
X111068928Y-59237380D01*
X110973690Y-59189761D01*
X110926071Y-59094523D01*
X110926071Y-58999285D01*
X110973690Y-58904047D01*
X111068928Y-58856428D01*
X111307023Y-58856428D01*
X111402261Y-58808809D01*
X111878452Y-58570714D02*
X111878452Y-59237380D01*
X111878452Y-58665952D02*
X111926071Y-58618333D01*
X112021309Y-58570714D01*
X112164166Y-58570714D01*
X112259404Y-58618333D01*
X112307023Y-58713571D01*
X112307023Y-59237380D01*
X112926071Y-59237380D02*
X112830833Y-59189761D01*
X112783214Y-59142142D01*
X112735595Y-59046904D01*
X112735595Y-58761190D01*
X112783214Y-58665952D01*
X112830833Y-58618333D01*
X112926071Y-58570714D01*
X113068928Y-58570714D01*
X113164166Y-58618333D01*
X113211785Y-58665952D01*
X113259404Y-58761190D01*
X113259404Y-59046904D01*
X113211785Y-59142142D01*
X113164166Y-59189761D01*
X113068928Y-59237380D01*
X112926071Y-59237380D01*
X114116547Y-58570714D02*
X114116547Y-59237380D01*
X113687976Y-58570714D02*
X113687976Y-59094523D01*
X113735595Y-59189761D01*
X113830833Y-59237380D01*
X113973690Y-59237380D01*
X114068928Y-59189761D01*
X114116547Y-59142142D01*
X114449880Y-58570714D02*
X114830833Y-58570714D01*
X114592738Y-58237380D02*
X114592738Y-59094523D01*
X114640357Y-59189761D01*
X114735595Y-59237380D01*
X114830833Y-59237380D01*
X115164166Y-58856428D02*
X115926071Y-58856428D01*
X116735595Y-58713571D02*
X116878452Y-58761190D01*
X116926071Y-58808809D01*
X116973690Y-58904047D01*
X116973690Y-59046904D01*
X116926071Y-59142142D01*
X116878452Y-59189761D01*
X116783214Y-59237380D01*
X116402261Y-59237380D01*
X116402261Y-58237380D01*
X116735595Y-58237380D01*
X116830833Y-58285000D01*
X116878452Y-58332619D01*
X116926071Y-58427857D01*
X116926071Y-58523095D01*
X116878452Y-58618333D01*
X116830833Y-58665952D01*
X116735595Y-58713571D01*
X116402261Y-58713571D01*
X117545119Y-59237380D02*
X117449880Y-59189761D01*
X117402261Y-59142142D01*
X117354642Y-59046904D01*
X117354642Y-58761190D01*
X117402261Y-58665952D01*
X117449880Y-58618333D01*
X117545119Y-58570714D01*
X117687976Y-58570714D01*
X117783214Y-58618333D01*
X117830833Y-58665952D01*
X117878452Y-58761190D01*
X117878452Y-59046904D01*
X117830833Y-59142142D01*
X117783214Y-59189761D01*
X117687976Y-59237380D01*
X117545119Y-59237380D01*
X118735595Y-59237380D02*
X118735595Y-58713571D01*
X118687976Y-58618333D01*
X118592738Y-58570714D01*
X118402261Y-58570714D01*
X118307023Y-58618333D01*
X118735595Y-59189761D02*
X118640357Y-59237380D01*
X118402261Y-59237380D01*
X118307023Y-59189761D01*
X118259404Y-59094523D01*
X118259404Y-58999285D01*
X118307023Y-58904047D01*
X118402261Y-58856428D01*
X118640357Y-58856428D01*
X118735595Y-58808809D01*
X119211785Y-59237380D02*
X119211785Y-58570714D01*
X119211785Y-58761190D02*
X119259404Y-58665952D01*
X119307023Y-58618333D01*
X119402261Y-58570714D01*
X119497500Y-58570714D01*
X120259404Y-59237380D02*
X120259404Y-58237380D01*
X120259404Y-59189761D02*
X120164166Y-59237380D01*
X119973690Y-59237380D01*
X119878452Y-59189761D01*
X119830833Y-59142142D01*
X119783214Y-59046904D01*
X119783214Y-58761190D01*
X119830833Y-58665952D01*
X119878452Y-58618333D01*
X119973690Y-58570714D01*
X120164166Y-58570714D01*
X120259404Y-58618333D01*
X102687976Y-60799761D02*
X102830833Y-60847380D01*
X103068928Y-60847380D01*
X103164166Y-60799761D01*
X103211785Y-60752142D01*
X103259404Y-60656904D01*
X103259404Y-60561666D01*
X103211785Y-60466428D01*
X103164166Y-60418809D01*
X103068928Y-60371190D01*
X102878452Y-60323571D01*
X102783214Y-60275952D01*
X102735595Y-60228333D01*
X102687976Y-60133095D01*
X102687976Y-60037857D01*
X102735595Y-59942619D01*
X102783214Y-59895000D01*
X102878452Y-59847380D01*
X103116547Y-59847380D01*
X103259404Y-59895000D01*
X103640357Y-60561666D02*
X104116547Y-60561666D01*
X103545119Y-60847380D02*
X103878452Y-59847380D01*
X104211785Y-60847380D01*
X104973690Y-59847380D02*
X104783214Y-59847380D01*
X104687976Y-59895000D01*
X104640357Y-59942619D01*
X104545119Y-60085476D01*
X104497500Y-60275952D01*
X104497500Y-60656904D01*
X104545119Y-60752142D01*
X104592738Y-60799761D01*
X104687976Y-60847380D01*
X104878452Y-60847380D01*
X104973690Y-60799761D01*
X105021309Y-60752142D01*
X105068928Y-60656904D01*
X105068928Y-60418809D01*
X105021309Y-60323571D01*
X104973690Y-60275952D01*
X104878452Y-60228333D01*
X104687976Y-60228333D01*
X104592738Y-60275952D01*
X104545119Y-60323571D01*
X104497500Y-60418809D01*
X105783214Y-59847380D02*
X105783214Y-60561666D01*
X105735595Y-60704523D01*
X105640357Y-60799761D01*
X105497500Y-60847380D01*
X105402261Y-60847380D01*
X106259404Y-60847380D02*
X106259404Y-59847380D01*
X106830833Y-60847380D02*
X106402261Y-60275952D01*
X106830833Y-59847380D02*
X106259404Y-60418809D01*
X107259404Y-60847380D02*
X107259404Y-59847380D01*
X107830833Y-60847380D02*
X107402261Y-60275952D01*
X107830833Y-59847380D02*
X107259404Y-60418809D01*
X102687976Y-61552619D02*
X102735595Y-61505000D01*
X102830833Y-61457380D01*
X103068928Y-61457380D01*
X103164166Y-61505000D01*
X103211785Y-61552619D01*
X103259404Y-61647857D01*
X103259404Y-61743095D01*
X103211785Y-61885952D01*
X102640357Y-62457380D01*
X103259404Y-62457380D01*
X103878452Y-61457380D02*
X103973690Y-61457380D01*
X104068928Y-61505000D01*
X104116547Y-61552619D01*
X104164166Y-61647857D01*
X104211785Y-61838333D01*
X104211785Y-62076428D01*
X104164166Y-62266904D01*
X104116547Y-62362142D01*
X104068928Y-62409761D01*
X103973690Y-62457380D01*
X103878452Y-62457380D01*
X103783214Y-62409761D01*
X103735595Y-62362142D01*
X103687976Y-62266904D01*
X103640357Y-62076428D01*
X103640357Y-61838333D01*
X103687976Y-61647857D01*
X103735595Y-61552619D01*
X103783214Y-61505000D01*
X103878452Y-61457380D01*
X104592738Y-61552619D02*
X104640357Y-61505000D01*
X104735595Y-61457380D01*
X104973690Y-61457380D01*
X105068928Y-61505000D01*
X105116547Y-61552619D01*
X105164166Y-61647857D01*
X105164166Y-61743095D01*
X105116547Y-61885952D01*
X104545119Y-62457380D01*
X105164166Y-62457380D01*
X105545119Y-61552619D02*
X105592738Y-61505000D01*
X105687976Y-61457380D01*
X105926071Y-61457380D01*
X106021309Y-61505000D01*
X106068928Y-61552619D01*
X106116547Y-61647857D01*
X106116547Y-61743095D01*
X106068928Y-61885952D01*
X105497500Y-62457380D01*
X106116547Y-62457380D01*
X106545119Y-62076428D02*
X107307023Y-62076428D01*
X107973690Y-61457380D02*
X108068928Y-61457380D01*
X108164166Y-61505000D01*
X108211785Y-61552619D01*
X108259404Y-61647857D01*
X108307023Y-61838333D01*
X108307023Y-62076428D01*
X108259404Y-62266904D01*
X108211785Y-62362142D01*
X108164166Y-62409761D01*
X108068928Y-62457380D01*
X107973690Y-62457380D01*
X107878452Y-62409761D01*
X107830833Y-62362142D01*
X107783214Y-62266904D01*
X107735595Y-62076428D01*
X107735595Y-61838333D01*
X107783214Y-61647857D01*
X107830833Y-61552619D01*
X107878452Y-61505000D01*
X107973690Y-61457380D01*
X109164166Y-61790714D02*
X109164166Y-62457380D01*
X108926071Y-61409761D02*
X108687976Y-62124047D01*
X109307023Y-62124047D01*
X109687976Y-62076428D02*
X110449880Y-62076428D01*
X111449880Y-62457380D02*
X110878452Y-62457380D01*
X111164166Y-62457380D02*
X111164166Y-61457380D01*
X111068928Y-61600238D01*
X110973690Y-61695476D01*
X110878452Y-61743095D01*
X111926071Y-62457380D02*
X112116547Y-62457380D01*
X112211785Y-62409761D01*
X112259404Y-62362142D01*
X112354642Y-62219285D01*
X112402261Y-62028809D01*
X112402261Y-61647857D01*
X112354642Y-61552619D01*
X112307023Y-61505000D01*
X112211785Y-61457380D01*
X112021309Y-61457380D01*
X111926071Y-61505000D01*
X111878452Y-61552619D01*
X111830833Y-61647857D01*
X111830833Y-61885952D01*
X111878452Y-61981190D01*
X111926071Y-62028809D01*
X112021309Y-62076428D01*
X112211785Y-62076428D01*
X112307023Y-62028809D01*
X112354642Y-61981190D01*
X112402261Y-61885952D01*
X103307023Y-64067380D02*
X102973690Y-63591190D01*
X102735595Y-64067380D02*
X102735595Y-63067380D01*
X103116547Y-63067380D01*
X103211785Y-63115000D01*
X103259404Y-63162619D01*
X103307023Y-63257857D01*
X103307023Y-63400714D01*
X103259404Y-63495952D01*
X103211785Y-63543571D01*
X103116547Y-63591190D01*
X102735595Y-63591190D01*
X104116547Y-64019761D02*
X104021309Y-64067380D01*
X103830833Y-64067380D01*
X103735595Y-64019761D01*
X103687976Y-63924523D01*
X103687976Y-63543571D01*
X103735595Y-63448333D01*
X103830833Y-63400714D01*
X104021309Y-63400714D01*
X104116547Y-63448333D01*
X104164166Y-63543571D01*
X104164166Y-63638809D01*
X103687976Y-63734047D01*
X104497500Y-63400714D02*
X104735595Y-64067380D01*
X104973690Y-63400714D01*
X106640357Y-64067380D02*
X106068928Y-64067380D01*
X106354642Y-64067380D02*
X106354642Y-63067380D01*
X106259404Y-63210238D01*
X106164166Y-63305476D01*
X106068928Y-63353095D01*
X107068928Y-63972142D02*
X107116547Y-64019761D01*
X107068928Y-64067380D01*
X107021309Y-64019761D01*
X107068928Y-63972142D01*
X107068928Y-64067380D01*
X107735595Y-63067380D02*
X107830833Y-63067380D01*
X107926071Y-63115000D01*
X107973690Y-63162619D01*
X108021309Y-63257857D01*
X108068928Y-63448333D01*
X108068928Y-63686428D01*
X108021309Y-63876904D01*
X107973690Y-63972142D01*
X107926071Y-64019761D01*
X107830833Y-64067380D01*
X107735595Y-64067380D01*
X107640357Y-64019761D01*
X107592738Y-63972142D01*
X107545119Y-63876904D01*
X107497500Y-63686428D01*
X107497500Y-63448333D01*
X107545119Y-63257857D01*
X107592738Y-63162619D01*
X107640357Y-63115000D01*
X107735595Y-63067380D01*
%TO.C,R11*%
X97857142Y-49202380D02*
X97523809Y-48726190D01*
X97285714Y-49202380D02*
X97285714Y-48202380D01*
X97666666Y-48202380D01*
X97761904Y-48250000D01*
X97809523Y-48297619D01*
X97857142Y-48392857D01*
X97857142Y-48535714D01*
X97809523Y-48630952D01*
X97761904Y-48678571D01*
X97666666Y-48726190D01*
X97285714Y-48726190D01*
X98809523Y-49202380D02*
X98238095Y-49202380D01*
X98523809Y-49202380D02*
X98523809Y-48202380D01*
X98428571Y-48345238D01*
X98333333Y-48440476D01*
X98238095Y-48488095D01*
X99761904Y-49202380D02*
X99190476Y-49202380D01*
X99476190Y-49202380D02*
X99476190Y-48202380D01*
X99380952Y-48345238D01*
X99285714Y-48440476D01*
X99190476Y-48488095D01*
%TO.C,R41*%
X111357142Y-51452380D02*
X111023809Y-50976190D01*
X110785714Y-51452380D02*
X110785714Y-50452380D01*
X111166666Y-50452380D01*
X111261904Y-50500000D01*
X111309523Y-50547619D01*
X111357142Y-50642857D01*
X111357142Y-50785714D01*
X111309523Y-50880952D01*
X111261904Y-50928571D01*
X111166666Y-50976190D01*
X110785714Y-50976190D01*
X112214285Y-50785714D02*
X112214285Y-51452380D01*
X111976190Y-50404761D02*
X111738095Y-51119047D01*
X112357142Y-51119047D01*
X113261904Y-51452380D02*
X112690476Y-51452380D01*
X112976190Y-51452380D02*
X112976190Y-50452380D01*
X112880952Y-50595238D01*
X112785714Y-50690476D01*
X112690476Y-50738095D01*
%TO.C,J4*%
X96166666Y-133702380D02*
X96166666Y-134416666D01*
X96119047Y-134559523D01*
X96023809Y-134654761D01*
X95880952Y-134702380D01*
X95785714Y-134702380D01*
X97071428Y-134035714D02*
X97071428Y-134702380D01*
X96833333Y-133654761D02*
X96595238Y-134369047D01*
X97214285Y-134369047D01*
%TO.C,R44*%
X107952380Y-74892857D02*
X107476190Y-75226190D01*
X107952380Y-75464285D02*
X106952380Y-75464285D01*
X106952380Y-75083333D01*
X107000000Y-74988095D01*
X107047619Y-74940476D01*
X107142857Y-74892857D01*
X107285714Y-74892857D01*
X107380952Y-74940476D01*
X107428571Y-74988095D01*
X107476190Y-75083333D01*
X107476190Y-75464285D01*
X107285714Y-74035714D02*
X107952380Y-74035714D01*
X106904761Y-74273809D02*
X107619047Y-74511904D01*
X107619047Y-73892857D01*
X107285714Y-73083333D02*
X107952380Y-73083333D01*
X106904761Y-73321428D02*
X107619047Y-73559523D01*
X107619047Y-72940476D01*
%TO.C,R29*%
X122307380Y-151902857D02*
X121831190Y-152236190D01*
X122307380Y-152474285D02*
X121307380Y-152474285D01*
X121307380Y-152093333D01*
X121355000Y-151998095D01*
X121402619Y-151950476D01*
X121497857Y-151902857D01*
X121640714Y-151902857D01*
X121735952Y-151950476D01*
X121783571Y-151998095D01*
X121831190Y-152093333D01*
X121831190Y-152474285D01*
X121402619Y-151521904D02*
X121355000Y-151474285D01*
X121307380Y-151379047D01*
X121307380Y-151140952D01*
X121355000Y-151045714D01*
X121402619Y-150998095D01*
X121497857Y-150950476D01*
X121593095Y-150950476D01*
X121735952Y-150998095D01*
X122307380Y-151569523D01*
X122307380Y-150950476D01*
X122307380Y-150474285D02*
X122307380Y-150283809D01*
X122259761Y-150188571D01*
X122212142Y-150140952D01*
X122069285Y-150045714D01*
X121878809Y-149998095D01*
X121497857Y-149998095D01*
X121402619Y-150045714D01*
X121355000Y-150093333D01*
X121307380Y-150188571D01*
X121307380Y-150379047D01*
X121355000Y-150474285D01*
X121402619Y-150521904D01*
X121497857Y-150569523D01*
X121735952Y-150569523D01*
X121831190Y-150521904D01*
X121878809Y-150474285D01*
X121926428Y-150379047D01*
X121926428Y-150188571D01*
X121878809Y-150093333D01*
X121831190Y-150045714D01*
X121735952Y-149998095D01*
%TO.C,C17*%
X100960875Y-177357142D02*
X100913256Y-177404761D01*
X100770399Y-177452380D01*
X100675161Y-177452380D01*
X100532304Y-177404761D01*
X100437066Y-177309523D01*
X100389447Y-177214285D01*
X100341828Y-177023809D01*
X100341828Y-176880952D01*
X100389447Y-176690476D01*
X100437066Y-176595238D01*
X100532304Y-176500000D01*
X100675161Y-176452380D01*
X100770399Y-176452380D01*
X100913256Y-176500000D01*
X100960875Y-176547619D01*
X101913256Y-177452380D02*
X101341828Y-177452380D01*
X101627542Y-177452380D02*
X101627542Y-176452380D01*
X101532304Y-176595238D01*
X101437066Y-176690476D01*
X101341828Y-176738095D01*
X102246590Y-176452380D02*
X102913256Y-176452380D01*
X102484685Y-177452380D01*
%TO.C,R16*%
X97857142Y-43202380D02*
X97523809Y-42726190D01*
X97285714Y-43202380D02*
X97285714Y-42202380D01*
X97666666Y-42202380D01*
X97761904Y-42250000D01*
X97809523Y-42297619D01*
X97857142Y-42392857D01*
X97857142Y-42535714D01*
X97809523Y-42630952D01*
X97761904Y-42678571D01*
X97666666Y-42726190D01*
X97285714Y-42726190D01*
X98809523Y-43202380D02*
X98238095Y-43202380D01*
X98523809Y-43202380D02*
X98523809Y-42202380D01*
X98428571Y-42345238D01*
X98333333Y-42440476D01*
X98238095Y-42488095D01*
X99666666Y-42202380D02*
X99476190Y-42202380D01*
X99380952Y-42250000D01*
X99333333Y-42297619D01*
X99238095Y-42440476D01*
X99190476Y-42630952D01*
X99190476Y-43011904D01*
X99238095Y-43107142D01*
X99285714Y-43154761D01*
X99380952Y-43202380D01*
X99571428Y-43202380D01*
X99666666Y-43154761D01*
X99714285Y-43107142D01*
X99761904Y-43011904D01*
X99761904Y-42773809D01*
X99714285Y-42678571D01*
X99666666Y-42630952D01*
X99571428Y-42583333D01*
X99380952Y-42583333D01*
X99285714Y-42630952D01*
X99238095Y-42678571D01*
X99190476Y-42773809D01*
%TO.C,R19*%
X121557142Y-226652380D02*
X121223809Y-226176190D01*
X120985714Y-226652380D02*
X120985714Y-225652380D01*
X121366666Y-225652380D01*
X121461904Y-225700000D01*
X121509523Y-225747619D01*
X121557142Y-225842857D01*
X121557142Y-225985714D01*
X121509523Y-226080952D01*
X121461904Y-226128571D01*
X121366666Y-226176190D01*
X120985714Y-226176190D01*
X122509523Y-226652380D02*
X121938095Y-226652380D01*
X122223809Y-226652380D02*
X122223809Y-225652380D01*
X122128571Y-225795238D01*
X122033333Y-225890476D01*
X121938095Y-225938095D01*
X122985714Y-226652380D02*
X123176190Y-226652380D01*
X123271428Y-226604761D01*
X123319047Y-226557142D01*
X123414285Y-226414285D01*
X123461904Y-226223809D01*
X123461904Y-225842857D01*
X123414285Y-225747619D01*
X123366666Y-225700000D01*
X123271428Y-225652380D01*
X123080952Y-225652380D01*
X122985714Y-225700000D01*
X122938095Y-225747619D01*
X122890476Y-225842857D01*
X122890476Y-226080952D01*
X122938095Y-226176190D01*
X122985714Y-226223809D01*
X123080952Y-226271428D01*
X123271428Y-226271428D01*
X123366666Y-226223809D01*
X123414285Y-226176190D01*
X123461904Y-226080952D01*
%TO.C,R7*%
X97833333Y-93702380D02*
X97500000Y-93226190D01*
X97261904Y-93702380D02*
X97261904Y-92702380D01*
X97642857Y-92702380D01*
X97738095Y-92750000D01*
X97785714Y-92797619D01*
X97833333Y-92892857D01*
X97833333Y-93035714D01*
X97785714Y-93130952D01*
X97738095Y-93178571D01*
X97642857Y-93226190D01*
X97261904Y-93226190D01*
X98166666Y-92702380D02*
X98833333Y-92702380D01*
X98404761Y-93702380D01*
%TO.C,R40*%
X105452380Y-76892857D02*
X104976190Y-77226190D01*
X105452380Y-77464285D02*
X104452380Y-77464285D01*
X104452380Y-77083333D01*
X104500000Y-76988095D01*
X104547619Y-76940476D01*
X104642857Y-76892857D01*
X104785714Y-76892857D01*
X104880952Y-76940476D01*
X104928571Y-76988095D01*
X104976190Y-77083333D01*
X104976190Y-77464285D01*
X104785714Y-76035714D02*
X105452380Y-76035714D01*
X104404761Y-76273809D02*
X105119047Y-76511904D01*
X105119047Y-75892857D01*
X104452380Y-75321428D02*
X104452380Y-75226190D01*
X104500000Y-75130952D01*
X104547619Y-75083333D01*
X104642857Y-75035714D01*
X104833333Y-74988095D01*
X105071428Y-74988095D01*
X105261904Y-75035714D01*
X105357142Y-75083333D01*
X105404761Y-75130952D01*
X105452380Y-75226190D01*
X105452380Y-75321428D01*
X105404761Y-75416666D01*
X105357142Y-75464285D01*
X105261904Y-75511904D01*
X105071428Y-75559523D01*
X104833333Y-75559523D01*
X104642857Y-75511904D01*
X104547619Y-75464285D01*
X104500000Y-75416666D01*
X104452380Y-75321428D01*
%TO.C,U6*%
X112302380Y-193761904D02*
X113111904Y-193761904D01*
X113207142Y-193714285D01*
X113254761Y-193666666D01*
X113302380Y-193571428D01*
X113302380Y-193380952D01*
X113254761Y-193285714D01*
X113207142Y-193238095D01*
X113111904Y-193190476D01*
X112302380Y-193190476D01*
X112302380Y-192285714D02*
X112302380Y-192476190D01*
X112350000Y-192571428D01*
X112397619Y-192619047D01*
X112540476Y-192714285D01*
X112730952Y-192761904D01*
X113111904Y-192761904D01*
X113207142Y-192714285D01*
X113254761Y-192666666D01*
X113302380Y-192571428D01*
X113302380Y-192380952D01*
X113254761Y-192285714D01*
X113207142Y-192238095D01*
X113111904Y-192190476D01*
X112873809Y-192190476D01*
X112778571Y-192238095D01*
X112730952Y-192285714D01*
X112683333Y-192380952D01*
X112683333Y-192571428D01*
X112730952Y-192666666D01*
X112778571Y-192714285D01*
X112873809Y-192761904D01*
%TO.C,J15*%
X127390476Y-36652380D02*
X127390476Y-37366666D01*
X127342857Y-37509523D01*
X127247619Y-37604761D01*
X127104761Y-37652380D01*
X127009523Y-37652380D01*
X128390476Y-37652380D02*
X127819047Y-37652380D01*
X128104761Y-37652380D02*
X128104761Y-36652380D01*
X128009523Y-36795238D01*
X127914285Y-36890476D01*
X127819047Y-36938095D01*
X129295238Y-36652380D02*
X128819047Y-36652380D01*
X128771428Y-37128571D01*
X128819047Y-37080952D01*
X128914285Y-37033333D01*
X129152380Y-37033333D01*
X129247619Y-37080952D01*
X129295238Y-37128571D01*
X129342857Y-37223809D01*
X129342857Y-37461904D01*
X129295238Y-37557142D01*
X129247619Y-37604761D01*
X129152380Y-37652380D01*
X128914285Y-37652380D01*
X128819047Y-37604761D01*
X128771428Y-37557142D01*
%TO.C,R14*%
X97857142Y-47202380D02*
X97523809Y-46726190D01*
X97285714Y-47202380D02*
X97285714Y-46202380D01*
X97666666Y-46202380D01*
X97761904Y-46250000D01*
X97809523Y-46297619D01*
X97857142Y-46392857D01*
X97857142Y-46535714D01*
X97809523Y-46630952D01*
X97761904Y-46678571D01*
X97666666Y-46726190D01*
X97285714Y-46726190D01*
X98809523Y-47202380D02*
X98238095Y-47202380D01*
X98523809Y-47202380D02*
X98523809Y-46202380D01*
X98428571Y-46345238D01*
X98333333Y-46440476D01*
X98238095Y-46488095D01*
X99666666Y-46535714D02*
X99666666Y-47202380D01*
X99428571Y-46154761D02*
X99190476Y-46869047D01*
X99809523Y-46869047D01*
%TO.C,C12*%
X106357142Y-218107142D02*
X106309523Y-218154761D01*
X106166666Y-218202380D01*
X106071428Y-218202380D01*
X105928571Y-218154761D01*
X105833333Y-218059523D01*
X105785714Y-217964285D01*
X105738095Y-217773809D01*
X105738095Y-217630952D01*
X105785714Y-217440476D01*
X105833333Y-217345238D01*
X105928571Y-217250000D01*
X106071428Y-217202380D01*
X106166666Y-217202380D01*
X106309523Y-217250000D01*
X106357142Y-217297619D01*
X107309523Y-218202380D02*
X106738095Y-218202380D01*
X107023809Y-218202380D02*
X107023809Y-217202380D01*
X106928571Y-217345238D01*
X106833333Y-217440476D01*
X106738095Y-217488095D01*
X107690476Y-217297619D02*
X107738095Y-217250000D01*
X107833333Y-217202380D01*
X108071428Y-217202380D01*
X108166666Y-217250000D01*
X108214285Y-217297619D01*
X108261904Y-217392857D01*
X108261904Y-217488095D01*
X108214285Y-217630952D01*
X107642857Y-218202380D01*
X108261904Y-218202380D01*
%TO.C,U5*%
X111477380Y-152021904D02*
X112286904Y-152021904D01*
X112382142Y-151974285D01*
X112429761Y-151926666D01*
X112477380Y-151831428D01*
X112477380Y-151640952D01*
X112429761Y-151545714D01*
X112382142Y-151498095D01*
X112286904Y-151450476D01*
X111477380Y-151450476D01*
X111477380Y-150498095D02*
X111477380Y-150974285D01*
X111953571Y-151021904D01*
X111905952Y-150974285D01*
X111858333Y-150879047D01*
X111858333Y-150640952D01*
X111905952Y-150545714D01*
X111953571Y-150498095D01*
X112048809Y-150450476D01*
X112286904Y-150450476D01*
X112382142Y-150498095D01*
X112429761Y-150545714D01*
X112477380Y-150640952D01*
X112477380Y-150879047D01*
X112429761Y-150974285D01*
X112382142Y-151021904D01*
%TO.C,J16*%
X127440476Y-79702380D02*
X127440476Y-80416666D01*
X127392857Y-80559523D01*
X127297619Y-80654761D01*
X127154761Y-80702380D01*
X127059523Y-80702380D01*
X128440476Y-80702380D02*
X127869047Y-80702380D01*
X128154761Y-80702380D02*
X128154761Y-79702380D01*
X128059523Y-79845238D01*
X127964285Y-79940476D01*
X127869047Y-79988095D01*
X129297619Y-79702380D02*
X129107142Y-79702380D01*
X129011904Y-79750000D01*
X128964285Y-79797619D01*
X128869047Y-79940476D01*
X128821428Y-80130952D01*
X128821428Y-80511904D01*
X128869047Y-80607142D01*
X128916666Y-80654761D01*
X129011904Y-80702380D01*
X129202380Y-80702380D01*
X129297619Y-80654761D01*
X129345238Y-80607142D01*
X129392857Y-80511904D01*
X129392857Y-80273809D01*
X129345238Y-80178571D01*
X129297619Y-80130952D01*
X129202380Y-80083333D01*
X129011904Y-80083333D01*
X128916666Y-80130952D01*
X128869047Y-80178571D01*
X128821428Y-80273809D01*
%TO.C,C13*%
X106357142Y-208607142D02*
X106309523Y-208654761D01*
X106166666Y-208702380D01*
X106071428Y-208702380D01*
X105928571Y-208654761D01*
X105833333Y-208559523D01*
X105785714Y-208464285D01*
X105738095Y-208273809D01*
X105738095Y-208130952D01*
X105785714Y-207940476D01*
X105833333Y-207845238D01*
X105928571Y-207750000D01*
X106071428Y-207702380D01*
X106166666Y-207702380D01*
X106309523Y-207750000D01*
X106357142Y-207797619D01*
X107309523Y-208702380D02*
X106738095Y-208702380D01*
X107023809Y-208702380D02*
X107023809Y-207702380D01*
X106928571Y-207845238D01*
X106833333Y-207940476D01*
X106738095Y-207988095D01*
X107642857Y-207702380D02*
X108261904Y-207702380D01*
X107928571Y-208083333D01*
X108071428Y-208083333D01*
X108166666Y-208130952D01*
X108214285Y-208178571D01*
X108261904Y-208273809D01*
X108261904Y-208511904D01*
X108214285Y-208607142D01*
X108166666Y-208654761D01*
X108071428Y-208702380D01*
X107785714Y-208702380D01*
X107690476Y-208654761D01*
X107642857Y-208607142D01*
%TO.C,U2*%
X114488095Y-223452380D02*
X114488095Y-224261904D01*
X114535714Y-224357142D01*
X114583333Y-224404761D01*
X114678571Y-224452380D01*
X114869047Y-224452380D01*
X114964285Y-224404761D01*
X115011904Y-224357142D01*
X115059523Y-224261904D01*
X115059523Y-223452380D01*
X115488095Y-223547619D02*
X115535714Y-223500000D01*
X115630952Y-223452380D01*
X115869047Y-223452380D01*
X115964285Y-223500000D01*
X116011904Y-223547619D01*
X116059523Y-223642857D01*
X116059523Y-223738095D01*
X116011904Y-223880952D01*
X115440476Y-224452380D01*
X116059523Y-224452380D01*
%TO.C,R28*%
X129632380Y-161892857D02*
X129156190Y-162226190D01*
X129632380Y-162464285D02*
X128632380Y-162464285D01*
X128632380Y-162083333D01*
X128680000Y-161988095D01*
X128727619Y-161940476D01*
X128822857Y-161892857D01*
X128965714Y-161892857D01*
X129060952Y-161940476D01*
X129108571Y-161988095D01*
X129156190Y-162083333D01*
X129156190Y-162464285D01*
X128727619Y-161511904D02*
X128680000Y-161464285D01*
X128632380Y-161369047D01*
X128632380Y-161130952D01*
X128680000Y-161035714D01*
X128727619Y-160988095D01*
X128822857Y-160940476D01*
X128918095Y-160940476D01*
X129060952Y-160988095D01*
X129632380Y-161559523D01*
X129632380Y-160940476D01*
X129060952Y-160369047D02*
X129013333Y-160464285D01*
X128965714Y-160511904D01*
X128870476Y-160559523D01*
X128822857Y-160559523D01*
X128727619Y-160511904D01*
X128680000Y-160464285D01*
X128632380Y-160369047D01*
X128632380Y-160178571D01*
X128680000Y-160083333D01*
X128727619Y-160035714D01*
X128822857Y-159988095D01*
X128870476Y-159988095D01*
X128965714Y-160035714D01*
X129013333Y-160083333D01*
X129060952Y-160178571D01*
X129060952Y-160369047D01*
X129108571Y-160464285D01*
X129156190Y-160511904D01*
X129251428Y-160559523D01*
X129441904Y-160559523D01*
X129537142Y-160511904D01*
X129584761Y-160464285D01*
X129632380Y-160369047D01*
X129632380Y-160178571D01*
X129584761Y-160083333D01*
X129537142Y-160035714D01*
X129441904Y-159988095D01*
X129251428Y-159988095D01*
X129156190Y-160035714D01*
X129108571Y-160083333D01*
X129060952Y-160178571D01*
%TO.C,R26*%
X112452380Y-158392857D02*
X111976190Y-158726190D01*
X112452380Y-158964285D02*
X111452380Y-158964285D01*
X111452380Y-158583333D01*
X111500000Y-158488095D01*
X111547619Y-158440476D01*
X111642857Y-158392857D01*
X111785714Y-158392857D01*
X111880952Y-158440476D01*
X111928571Y-158488095D01*
X111976190Y-158583333D01*
X111976190Y-158964285D01*
X111547619Y-158011904D02*
X111500000Y-157964285D01*
X111452380Y-157869047D01*
X111452380Y-157630952D01*
X111500000Y-157535714D01*
X111547619Y-157488095D01*
X111642857Y-157440476D01*
X111738095Y-157440476D01*
X111880952Y-157488095D01*
X112452380Y-158059523D01*
X112452380Y-157440476D01*
X111452380Y-156583333D02*
X111452380Y-156773809D01*
X111500000Y-156869047D01*
X111547619Y-156916666D01*
X111690476Y-157011904D01*
X111880952Y-157059523D01*
X112261904Y-157059523D01*
X112357142Y-157011904D01*
X112404761Y-156964285D01*
X112452380Y-156869047D01*
X112452380Y-156678571D01*
X112404761Y-156583333D01*
X112357142Y-156535714D01*
X112261904Y-156488095D01*
X112023809Y-156488095D01*
X111928571Y-156535714D01*
X111880952Y-156583333D01*
X111833333Y-156678571D01*
X111833333Y-156869047D01*
X111880952Y-156964285D01*
X111928571Y-157011904D01*
X112023809Y-157059523D01*
%TO.C,R10*%
X97857142Y-72702380D02*
X97523809Y-72226190D01*
X97285714Y-72702380D02*
X97285714Y-71702380D01*
X97666666Y-71702380D01*
X97761904Y-71750000D01*
X97809523Y-71797619D01*
X97857142Y-71892857D01*
X97857142Y-72035714D01*
X97809523Y-72130952D01*
X97761904Y-72178571D01*
X97666666Y-72226190D01*
X97285714Y-72226190D01*
X98809523Y-72702380D02*
X98238095Y-72702380D01*
X98523809Y-72702380D02*
X98523809Y-71702380D01*
X98428571Y-71845238D01*
X98333333Y-71940476D01*
X98238095Y-71988095D01*
X99428571Y-71702380D02*
X99523809Y-71702380D01*
X99619047Y-71750000D01*
X99666666Y-71797619D01*
X99714285Y-71892857D01*
X99761904Y-72083333D01*
X99761904Y-72321428D01*
X99714285Y-72511904D01*
X99666666Y-72607142D01*
X99619047Y-72654761D01*
X99523809Y-72702380D01*
X99428571Y-72702380D01*
X99333333Y-72654761D01*
X99285714Y-72607142D01*
X99238095Y-72511904D01*
X99190476Y-72321428D01*
X99190476Y-72083333D01*
X99238095Y-71892857D01*
X99285714Y-71797619D01*
X99333333Y-71750000D01*
X99428571Y-71702380D01*
%TO.C,R23*%
X112272380Y-162392857D02*
X111796190Y-162726190D01*
X112272380Y-162964285D02*
X111272380Y-162964285D01*
X111272380Y-162583333D01*
X111320000Y-162488095D01*
X111367619Y-162440476D01*
X111462857Y-162392857D01*
X111605714Y-162392857D01*
X111700952Y-162440476D01*
X111748571Y-162488095D01*
X111796190Y-162583333D01*
X111796190Y-162964285D01*
X111367619Y-162011904D02*
X111320000Y-161964285D01*
X111272380Y-161869047D01*
X111272380Y-161630952D01*
X111320000Y-161535714D01*
X111367619Y-161488095D01*
X111462857Y-161440476D01*
X111558095Y-161440476D01*
X111700952Y-161488095D01*
X112272380Y-162059523D01*
X112272380Y-161440476D01*
X111272380Y-161107142D02*
X111272380Y-160488095D01*
X111653333Y-160821428D01*
X111653333Y-160678571D01*
X111700952Y-160583333D01*
X111748571Y-160535714D01*
X111843809Y-160488095D01*
X112081904Y-160488095D01*
X112177142Y-160535714D01*
X112224761Y-160583333D01*
X112272380Y-160678571D01*
X112272380Y-160964285D01*
X112224761Y-161059523D01*
X112177142Y-161107142D01*
%TO.C,H6*%
X96988095Y-229252380D02*
X96988095Y-228252380D01*
X96988095Y-228728571D02*
X97559523Y-228728571D01*
X97559523Y-229252380D02*
X97559523Y-228252380D01*
X98464285Y-228252380D02*
X98273809Y-228252380D01*
X98178571Y-228300000D01*
X98130952Y-228347619D01*
X98035714Y-228490476D01*
X97988095Y-228680952D01*
X97988095Y-229061904D01*
X98035714Y-229157142D01*
X98083333Y-229204761D01*
X98178571Y-229252380D01*
X98369047Y-229252380D01*
X98464285Y-229204761D01*
X98511904Y-229157142D01*
X98559523Y-229061904D01*
X98559523Y-228823809D01*
X98511904Y-228728571D01*
X98464285Y-228680952D01*
X98369047Y-228633333D01*
X98178571Y-228633333D01*
X98083333Y-228680952D01*
X98035714Y-228728571D01*
X97988095Y-228823809D01*
%TO.C,C7*%
X94357142Y-216416666D02*
X94404761Y-216464285D01*
X94452380Y-216607142D01*
X94452380Y-216702380D01*
X94404761Y-216845238D01*
X94309523Y-216940476D01*
X94214285Y-216988095D01*
X94023809Y-217035714D01*
X93880952Y-217035714D01*
X93690476Y-216988095D01*
X93595238Y-216940476D01*
X93500000Y-216845238D01*
X93452380Y-216702380D01*
X93452380Y-216607142D01*
X93500000Y-216464285D01*
X93547619Y-216416666D01*
X93452380Y-216083333D02*
X93452380Y-215416666D01*
X94452380Y-215845238D01*
%TO.C,R24*%
X122447380Y-174392857D02*
X121971190Y-174726190D01*
X122447380Y-174964285D02*
X121447380Y-174964285D01*
X121447380Y-174583333D01*
X121495000Y-174488095D01*
X121542619Y-174440476D01*
X121637857Y-174392857D01*
X121780714Y-174392857D01*
X121875952Y-174440476D01*
X121923571Y-174488095D01*
X121971190Y-174583333D01*
X121971190Y-174964285D01*
X121542619Y-174011904D02*
X121495000Y-173964285D01*
X121447380Y-173869047D01*
X121447380Y-173630952D01*
X121495000Y-173535714D01*
X121542619Y-173488095D01*
X121637857Y-173440476D01*
X121733095Y-173440476D01*
X121875952Y-173488095D01*
X122447380Y-174059523D01*
X122447380Y-173440476D01*
X121780714Y-172583333D02*
X122447380Y-172583333D01*
X121399761Y-172821428D02*
X122114047Y-173059523D01*
X122114047Y-172440476D01*
%TO.C,R9*%
X97833333Y-74702380D02*
X97500000Y-74226190D01*
X97261904Y-74702380D02*
X97261904Y-73702380D01*
X97642857Y-73702380D01*
X97738095Y-73750000D01*
X97785714Y-73797619D01*
X97833333Y-73892857D01*
X97833333Y-74035714D01*
X97785714Y-74130952D01*
X97738095Y-74178571D01*
X97642857Y-74226190D01*
X97261904Y-74226190D01*
X98309523Y-74702380D02*
X98500000Y-74702380D01*
X98595238Y-74654761D01*
X98642857Y-74607142D01*
X98738095Y-74464285D01*
X98785714Y-74273809D01*
X98785714Y-73892857D01*
X98738095Y-73797619D01*
X98690476Y-73750000D01*
X98595238Y-73702380D01*
X98404761Y-73702380D01*
X98309523Y-73750000D01*
X98261904Y-73797619D01*
X98214285Y-73892857D01*
X98214285Y-74130952D01*
X98261904Y-74226190D01*
X98309523Y-74273809D01*
X98404761Y-74321428D01*
X98595238Y-74321428D01*
X98690476Y-74273809D01*
X98738095Y-74226190D01*
X98785714Y-74130952D01*
%TO.C,J1*%
X83532380Y-90145980D02*
X84246666Y-90145980D01*
X84389523Y-90193599D01*
X84484761Y-90288837D01*
X84532380Y-90431694D01*
X84532380Y-90526932D01*
X84532380Y-89145980D02*
X84532380Y-89717408D01*
X84532380Y-89431694D02*
X83532380Y-89431694D01*
X83675238Y-89526932D01*
X83770476Y-89622170D01*
X83818095Y-89717408D01*
%TO.C,C5*%
X118583333Y-229557142D02*
X118535714Y-229604761D01*
X118392857Y-229652380D01*
X118297619Y-229652380D01*
X118154761Y-229604761D01*
X118059523Y-229509523D01*
X118011904Y-229414285D01*
X117964285Y-229223809D01*
X117964285Y-229080952D01*
X118011904Y-228890476D01*
X118059523Y-228795238D01*
X118154761Y-228700000D01*
X118297619Y-228652380D01*
X118392857Y-228652380D01*
X118535714Y-228700000D01*
X118583333Y-228747619D01*
X119488095Y-228652380D02*
X119011904Y-228652380D01*
X118964285Y-229128571D01*
X119011904Y-229080952D01*
X119107142Y-229033333D01*
X119345238Y-229033333D01*
X119440476Y-229080952D01*
X119488095Y-229128571D01*
X119535714Y-229223809D01*
X119535714Y-229461904D01*
X119488095Y-229557142D01*
X119440476Y-229604761D01*
X119345238Y-229652380D01*
X119107142Y-229652380D01*
X119011904Y-229604761D01*
X118964285Y-229557142D01*
%TO.C,R31*%
X121019642Y-203522380D02*
X120686309Y-203046190D01*
X120448214Y-203522380D02*
X120448214Y-202522380D01*
X120829166Y-202522380D01*
X120924404Y-202570000D01*
X120972023Y-202617619D01*
X121019642Y-202712857D01*
X121019642Y-202855714D01*
X120972023Y-202950952D01*
X120924404Y-202998571D01*
X120829166Y-203046190D01*
X120448214Y-203046190D01*
X121352976Y-202522380D02*
X121972023Y-202522380D01*
X121638690Y-202903333D01*
X121781547Y-202903333D01*
X121876785Y-202950952D01*
X121924404Y-202998571D01*
X121972023Y-203093809D01*
X121972023Y-203331904D01*
X121924404Y-203427142D01*
X121876785Y-203474761D01*
X121781547Y-203522380D01*
X121495833Y-203522380D01*
X121400595Y-203474761D01*
X121352976Y-203427142D01*
X122924404Y-203522380D02*
X122352976Y-203522380D01*
X122638690Y-203522380D02*
X122638690Y-202522380D01*
X122543452Y-202665238D01*
X122448214Y-202760476D01*
X122352976Y-202808095D01*
%TO.C,R17*%
X97857142Y-103702380D02*
X97523809Y-103226190D01*
X97285714Y-103702380D02*
X97285714Y-102702380D01*
X97666666Y-102702380D01*
X97761904Y-102750000D01*
X97809523Y-102797619D01*
X97857142Y-102892857D01*
X97857142Y-103035714D01*
X97809523Y-103130952D01*
X97761904Y-103178571D01*
X97666666Y-103226190D01*
X97285714Y-103226190D01*
X98809523Y-103702380D02*
X98238095Y-103702380D01*
X98523809Y-103702380D02*
X98523809Y-102702380D01*
X98428571Y-102845238D01*
X98333333Y-102940476D01*
X98238095Y-102988095D01*
X99142857Y-102702380D02*
X99809523Y-102702380D01*
X99380952Y-103702380D01*
%TO.C,R32*%
X88857142Y-201452380D02*
X88523809Y-200976190D01*
X88285714Y-201452380D02*
X88285714Y-200452380D01*
X88666666Y-200452380D01*
X88761904Y-200500000D01*
X88809523Y-200547619D01*
X88857142Y-200642857D01*
X88857142Y-200785714D01*
X88809523Y-200880952D01*
X88761904Y-200928571D01*
X88666666Y-200976190D01*
X88285714Y-200976190D01*
X89190476Y-200452380D02*
X89809523Y-200452380D01*
X89476190Y-200833333D01*
X89619047Y-200833333D01*
X89714285Y-200880952D01*
X89761904Y-200928571D01*
X89809523Y-201023809D01*
X89809523Y-201261904D01*
X89761904Y-201357142D01*
X89714285Y-201404761D01*
X89619047Y-201452380D01*
X89333333Y-201452380D01*
X89238095Y-201404761D01*
X89190476Y-201357142D01*
X90190476Y-200547619D02*
X90238095Y-200500000D01*
X90333333Y-200452380D01*
X90571428Y-200452380D01*
X90666666Y-200500000D01*
X90714285Y-200547619D01*
X90761904Y-200642857D01*
X90761904Y-200738095D01*
X90714285Y-200880952D01*
X90142857Y-201452380D01*
X90761904Y-201452380D01*
%TO.C,H7*%
X126988095Y-229252380D02*
X126988095Y-228252380D01*
X126988095Y-228728571D02*
X127559523Y-228728571D01*
X127559523Y-229252380D02*
X127559523Y-228252380D01*
X127940476Y-228252380D02*
X128607142Y-228252380D01*
X128178571Y-229252380D01*
%TO.C,H5*%
X121988095Y-29702380D02*
X121988095Y-28702380D01*
X121988095Y-29178571D02*
X122559523Y-29178571D01*
X122559523Y-29702380D02*
X122559523Y-28702380D01*
X123511904Y-28702380D02*
X123035714Y-28702380D01*
X122988095Y-29178571D01*
X123035714Y-29130952D01*
X123130952Y-29083333D01*
X123369047Y-29083333D01*
X123464285Y-29130952D01*
X123511904Y-29178571D01*
X123559523Y-29273809D01*
X123559523Y-29511904D01*
X123511904Y-29607142D01*
X123464285Y-29654761D01*
X123369047Y-29702380D01*
X123130952Y-29702380D01*
X123035714Y-29654761D01*
X122988095Y-29607142D01*
%TO.C,R25*%
X120452380Y-168050633D02*
X119976190Y-168383966D01*
X120452380Y-168622061D02*
X119452380Y-168622061D01*
X119452380Y-168241109D01*
X119500000Y-168145871D01*
X119547619Y-168098252D01*
X119642857Y-168050633D01*
X119785714Y-168050633D01*
X119880952Y-168098252D01*
X119928571Y-168145871D01*
X119976190Y-168241109D01*
X119976190Y-168622061D01*
X119547619Y-167669680D02*
X119500000Y-167622061D01*
X119452380Y-167526823D01*
X119452380Y-167288728D01*
X119500000Y-167193490D01*
X119547619Y-167145871D01*
X119642857Y-167098252D01*
X119738095Y-167098252D01*
X119880952Y-167145871D01*
X120452380Y-167717299D01*
X120452380Y-167098252D01*
X119452380Y-166193490D02*
X119452380Y-166669680D01*
X119928571Y-166717299D01*
X119880952Y-166669680D01*
X119833333Y-166574442D01*
X119833333Y-166336347D01*
X119880952Y-166241109D01*
X119928571Y-166193490D01*
X120023809Y-166145871D01*
X120261904Y-166145871D01*
X120357142Y-166193490D01*
X120404761Y-166241109D01*
X120452380Y-166336347D01*
X120452380Y-166574442D01*
X120404761Y-166669680D01*
X120357142Y-166717299D01*
%TO.C,J7*%
X125416666Y-211702380D02*
X125416666Y-212416666D01*
X125369047Y-212559523D01*
X125273809Y-212654761D01*
X125130952Y-212702380D01*
X125035714Y-212702380D01*
X125797619Y-211702380D02*
X126464285Y-211702380D01*
X126035714Y-212702380D01*
%TO.C,R43*%
X111357142Y-47202380D02*
X111023809Y-46726190D01*
X110785714Y-47202380D02*
X110785714Y-46202380D01*
X111166666Y-46202380D01*
X111261904Y-46250000D01*
X111309523Y-46297619D01*
X111357142Y-46392857D01*
X111357142Y-46535714D01*
X111309523Y-46630952D01*
X111261904Y-46678571D01*
X111166666Y-46726190D01*
X110785714Y-46726190D01*
X112214285Y-46535714D02*
X112214285Y-47202380D01*
X111976190Y-46154761D02*
X111738095Y-46869047D01*
X112357142Y-46869047D01*
X112642857Y-46202380D02*
X113261904Y-46202380D01*
X112928571Y-46583333D01*
X113071428Y-46583333D01*
X113166666Y-46630952D01*
X113214285Y-46678571D01*
X113261904Y-46773809D01*
X113261904Y-47011904D01*
X113214285Y-47107142D01*
X113166666Y-47154761D01*
X113071428Y-47202380D01*
X112785714Y-47202380D01*
X112690476Y-47154761D01*
X112642857Y-47107142D01*
%TO.C,U1*%
X113988095Y-204452380D02*
X113988095Y-205261904D01*
X114035714Y-205357142D01*
X114083333Y-205404761D01*
X114178571Y-205452380D01*
X114369047Y-205452380D01*
X114464285Y-205404761D01*
X114511904Y-205357142D01*
X114559523Y-205261904D01*
X114559523Y-204452380D01*
X115559523Y-205452380D02*
X114988095Y-205452380D01*
X115273809Y-205452380D02*
X115273809Y-204452380D01*
X115178571Y-204595238D01*
X115083333Y-204690476D01*
X114988095Y-204738095D01*
%TO.C,J2*%
X83617380Y-71145980D02*
X84331666Y-71145980D01*
X84474523Y-71193599D01*
X84569761Y-71288837D01*
X84617380Y-71431694D01*
X84617380Y-71526932D01*
X83712619Y-70717408D02*
X83665000Y-70669789D01*
X83617380Y-70574551D01*
X83617380Y-70336456D01*
X83665000Y-70241218D01*
X83712619Y-70193599D01*
X83807857Y-70145980D01*
X83903095Y-70145980D01*
X84045952Y-70193599D01*
X84617380Y-70765027D01*
X84617380Y-70145980D01*
%TO.C,J5*%
X83062380Y-163373333D02*
X83776666Y-163373333D01*
X83919523Y-163420952D01*
X84014761Y-163516190D01*
X84062380Y-163659047D01*
X84062380Y-163754285D01*
X83062380Y-162420952D02*
X83062380Y-162897142D01*
X83538571Y-162944761D01*
X83490952Y-162897142D01*
X83443333Y-162801904D01*
X83443333Y-162563809D01*
X83490952Y-162468571D01*
X83538571Y-162420952D01*
X83633809Y-162373333D01*
X83871904Y-162373333D01*
X83967142Y-162420952D01*
X84014761Y-162468571D01*
X84062380Y-162563809D01*
X84062380Y-162801904D01*
X84014761Y-162897142D01*
X83967142Y-162944761D01*
%TO.C,J14*%
X127440476Y-167452380D02*
X127440476Y-168166666D01*
X127392857Y-168309523D01*
X127297619Y-168404761D01*
X127154761Y-168452380D01*
X127059523Y-168452380D01*
X128440476Y-168452380D02*
X127869047Y-168452380D01*
X128154761Y-168452380D02*
X128154761Y-167452380D01*
X128059523Y-167595238D01*
X127964285Y-167690476D01*
X127869047Y-167738095D01*
X129297619Y-167785714D02*
X129297619Y-168452380D01*
X129059523Y-167404761D02*
X128821428Y-168119047D01*
X129440476Y-168119047D01*
%TO.C,J12*%
X127440476Y-187202380D02*
X127440476Y-187916666D01*
X127392857Y-188059523D01*
X127297619Y-188154761D01*
X127154761Y-188202380D01*
X127059523Y-188202380D01*
X128440476Y-188202380D02*
X127869047Y-188202380D01*
X128154761Y-188202380D02*
X128154761Y-187202380D01*
X128059523Y-187345238D01*
X127964285Y-187440476D01*
X127869047Y-187488095D01*
X128821428Y-187297619D02*
X128869047Y-187250000D01*
X128964285Y-187202380D01*
X129202380Y-187202380D01*
X129297619Y-187250000D01*
X129345238Y-187297619D01*
X129392857Y-187392857D01*
X129392857Y-187488095D01*
X129345238Y-187630952D01*
X128773809Y-188202380D01*
X129392857Y-188202380D01*
%TO.C,R39*%
X111357142Y-45202380D02*
X111023809Y-44726190D01*
X110785714Y-45202380D02*
X110785714Y-44202380D01*
X111166666Y-44202380D01*
X111261904Y-44250000D01*
X111309523Y-44297619D01*
X111357142Y-44392857D01*
X111357142Y-44535714D01*
X111309523Y-44630952D01*
X111261904Y-44678571D01*
X111166666Y-44726190D01*
X110785714Y-44726190D01*
X111690476Y-44202380D02*
X112309523Y-44202380D01*
X111976190Y-44583333D01*
X112119047Y-44583333D01*
X112214285Y-44630952D01*
X112261904Y-44678571D01*
X112309523Y-44773809D01*
X112309523Y-45011904D01*
X112261904Y-45107142D01*
X112214285Y-45154761D01*
X112119047Y-45202380D01*
X111833333Y-45202380D01*
X111738095Y-45154761D01*
X111690476Y-45107142D01*
X112785714Y-45202380D02*
X112976190Y-45202380D01*
X113071428Y-45154761D01*
X113119047Y-45107142D01*
X113214285Y-44964285D01*
X113261904Y-44773809D01*
X113261904Y-44392857D01*
X113214285Y-44297619D01*
X113166666Y-44250000D01*
X113071428Y-44202380D01*
X112880952Y-44202380D01*
X112785714Y-44250000D01*
X112738095Y-44297619D01*
X112690476Y-44392857D01*
X112690476Y-44630952D01*
X112738095Y-44726190D01*
X112785714Y-44773809D01*
X112880952Y-44821428D01*
X113071428Y-44821428D01*
X113166666Y-44773809D01*
X113214285Y-44726190D01*
X113261904Y-44630952D01*
%TO.C,C16*%
X108607142Y-95607142D02*
X108559523Y-95654761D01*
X108416666Y-95702380D01*
X108321428Y-95702380D01*
X108178571Y-95654761D01*
X108083333Y-95559523D01*
X108035714Y-95464285D01*
X107988095Y-95273809D01*
X107988095Y-95130952D01*
X108035714Y-94940476D01*
X108083333Y-94845238D01*
X108178571Y-94750000D01*
X108321428Y-94702380D01*
X108416666Y-94702380D01*
X108559523Y-94750000D01*
X108607142Y-94797619D01*
X109559523Y-95702380D02*
X108988095Y-95702380D01*
X109273809Y-95702380D02*
X109273809Y-94702380D01*
X109178571Y-94845238D01*
X109083333Y-94940476D01*
X108988095Y-94988095D01*
X110416666Y-94702380D02*
X110226190Y-94702380D01*
X110130952Y-94750000D01*
X110083333Y-94797619D01*
X109988095Y-94940476D01*
X109940476Y-95130952D01*
X109940476Y-95511904D01*
X109988095Y-95607142D01*
X110035714Y-95654761D01*
X110130952Y-95702380D01*
X110321428Y-95702380D01*
X110416666Y-95654761D01*
X110464285Y-95607142D01*
X110511904Y-95511904D01*
X110511904Y-95273809D01*
X110464285Y-95178571D01*
X110416666Y-95130952D01*
X110321428Y-95083333D01*
X110130952Y-95083333D01*
X110035714Y-95130952D01*
X109988095Y-95178571D01*
X109940476Y-95273809D01*
%TO.C,U4*%
X119202380Y-161761904D02*
X120011904Y-161761904D01*
X120107142Y-161714285D01*
X120154761Y-161666666D01*
X120202380Y-161571428D01*
X120202380Y-161380952D01*
X120154761Y-161285714D01*
X120107142Y-161238095D01*
X120011904Y-161190476D01*
X119202380Y-161190476D01*
X119535714Y-160285714D02*
X120202380Y-160285714D01*
X119154761Y-160523809D02*
X119869047Y-160761904D01*
X119869047Y-160142857D01*
%TO.C,J10*%
X86440476Y-191952380D02*
X86440476Y-192666666D01*
X86392857Y-192809523D01*
X86297619Y-192904761D01*
X86154761Y-192952380D01*
X86059523Y-192952380D01*
X87440476Y-192952380D02*
X86869047Y-192952380D01*
X87154761Y-192952380D02*
X87154761Y-191952380D01*
X87059523Y-192095238D01*
X86964285Y-192190476D01*
X86869047Y-192238095D01*
X88059523Y-191952380D02*
X88154761Y-191952380D01*
X88250000Y-192000000D01*
X88297619Y-192047619D01*
X88345238Y-192142857D01*
X88392857Y-192333333D01*
X88392857Y-192571428D01*
X88345238Y-192761904D01*
X88297619Y-192857142D01*
X88250000Y-192904761D01*
X88154761Y-192952380D01*
X88059523Y-192952380D01*
X87964285Y-192904761D01*
X87916666Y-192857142D01*
X87869047Y-192761904D01*
X87821428Y-192571428D01*
X87821428Y-192333333D01*
X87869047Y-192142857D01*
X87916666Y-192047619D01*
X87964285Y-192000000D01*
X88059523Y-191952380D01*
%TO.C,U8*%
X111738095Y-84415027D02*
X111738095Y-85224551D01*
X111785714Y-85319789D01*
X111833333Y-85367408D01*
X111928571Y-85415027D01*
X112119047Y-85415027D01*
X112214285Y-85367408D01*
X112261904Y-85319789D01*
X112309523Y-85224551D01*
X112309523Y-84415027D01*
X112928571Y-84843599D02*
X112833333Y-84795980D01*
X112785714Y-84748361D01*
X112738095Y-84653123D01*
X112738095Y-84605504D01*
X112785714Y-84510266D01*
X112833333Y-84462647D01*
X112928571Y-84415027D01*
X113119047Y-84415027D01*
X113214285Y-84462647D01*
X113261904Y-84510266D01*
X113309523Y-84605504D01*
X113309523Y-84653123D01*
X113261904Y-84748361D01*
X113214285Y-84795980D01*
X113119047Y-84843599D01*
X112928571Y-84843599D01*
X112833333Y-84891218D01*
X112785714Y-84938837D01*
X112738095Y-85034075D01*
X112738095Y-85224551D01*
X112785714Y-85319789D01*
X112833333Y-85367408D01*
X112928571Y-85415027D01*
X113119047Y-85415027D01*
X113214285Y-85367408D01*
X113261904Y-85319789D01*
X113309523Y-85224551D01*
X113309523Y-85034075D01*
X113261904Y-84938837D01*
X113214285Y-84891218D01*
X113119047Y-84843599D01*
%TO.C,C3*%
X121107142Y-210666666D02*
X121154761Y-210714285D01*
X121202380Y-210857142D01*
X121202380Y-210952380D01*
X121154761Y-211095238D01*
X121059523Y-211190476D01*
X120964285Y-211238095D01*
X120773809Y-211285714D01*
X120630952Y-211285714D01*
X120440476Y-211238095D01*
X120345238Y-211190476D01*
X120250000Y-211095238D01*
X120202380Y-210952380D01*
X120202380Y-210857142D01*
X120250000Y-210714285D01*
X120297619Y-210666666D01*
X120202380Y-210333333D02*
X120202380Y-209714285D01*
X120583333Y-210047619D01*
X120583333Y-209904761D01*
X120630952Y-209809523D01*
X120678571Y-209761904D01*
X120773809Y-209714285D01*
X121011904Y-209714285D01*
X121107142Y-209761904D01*
X121154761Y-209809523D01*
X121202380Y-209904761D01*
X121202380Y-210190476D01*
X121154761Y-210285714D01*
X121107142Y-210333333D01*
%TO.C,C14*%
X106357142Y-189607142D02*
X106309523Y-189654761D01*
X106166666Y-189702380D01*
X106071428Y-189702380D01*
X105928571Y-189654761D01*
X105833333Y-189559523D01*
X105785714Y-189464285D01*
X105738095Y-189273809D01*
X105738095Y-189130952D01*
X105785714Y-188940476D01*
X105833333Y-188845238D01*
X105928571Y-188750000D01*
X106071428Y-188702380D01*
X106166666Y-188702380D01*
X106309523Y-188750000D01*
X106357142Y-188797619D01*
X107309523Y-189702380D02*
X106738095Y-189702380D01*
X107023809Y-189702380D02*
X107023809Y-188702380D01*
X106928571Y-188845238D01*
X106833333Y-188940476D01*
X106738095Y-188988095D01*
X108166666Y-189035714D02*
X108166666Y-189702380D01*
X107928571Y-188654761D02*
X107690476Y-189369047D01*
X108309523Y-189369047D01*
%TO.C,C1*%
X112083333Y-202427142D02*
X112035714Y-202474761D01*
X111892857Y-202522380D01*
X111797619Y-202522380D01*
X111654761Y-202474761D01*
X111559523Y-202379523D01*
X111511904Y-202284285D01*
X111464285Y-202093809D01*
X111464285Y-201950952D01*
X111511904Y-201760476D01*
X111559523Y-201665238D01*
X111654761Y-201570000D01*
X111797619Y-201522380D01*
X111892857Y-201522380D01*
X112035714Y-201570000D01*
X112083333Y-201617619D01*
X113035714Y-202522380D02*
X112464285Y-202522380D01*
X112750000Y-202522380D02*
X112750000Y-201522380D01*
X112654761Y-201665238D01*
X112559523Y-201760476D01*
X112464285Y-201808095D01*
%TO.C,R4*%
X97833333Y-76702380D02*
X97500000Y-76226190D01*
X97261904Y-76702380D02*
X97261904Y-75702380D01*
X97642857Y-75702380D01*
X97738095Y-75750000D01*
X97785714Y-75797619D01*
X97833333Y-75892857D01*
X97833333Y-76035714D01*
X97785714Y-76130952D01*
X97738095Y-76178571D01*
X97642857Y-76226190D01*
X97261904Y-76226190D01*
X98690476Y-76035714D02*
X98690476Y-76702380D01*
X98452380Y-75654761D02*
X98214285Y-76369047D01*
X98833333Y-76369047D01*
%TO.C,H1*%
X87488095Y-228152380D02*
X87488095Y-227152380D01*
X87488095Y-227628571D02*
X88059523Y-227628571D01*
X88059523Y-228152380D02*
X88059523Y-227152380D01*
X89059523Y-228152380D02*
X88488095Y-228152380D01*
X88773809Y-228152380D02*
X88773809Y-227152380D01*
X88678571Y-227295238D01*
X88583333Y-227390476D01*
X88488095Y-227438095D01*
%TO.C,R18*%
X117957142Y-226652380D02*
X117623809Y-226176190D01*
X117385714Y-226652380D02*
X117385714Y-225652380D01*
X117766666Y-225652380D01*
X117861904Y-225700000D01*
X117909523Y-225747619D01*
X117957142Y-225842857D01*
X117957142Y-225985714D01*
X117909523Y-226080952D01*
X117861904Y-226128571D01*
X117766666Y-226176190D01*
X117385714Y-226176190D01*
X118909523Y-226652380D02*
X118338095Y-226652380D01*
X118623809Y-226652380D02*
X118623809Y-225652380D01*
X118528571Y-225795238D01*
X118433333Y-225890476D01*
X118338095Y-225938095D01*
X119480952Y-226080952D02*
X119385714Y-226033333D01*
X119338095Y-225985714D01*
X119290476Y-225890476D01*
X119290476Y-225842857D01*
X119338095Y-225747619D01*
X119385714Y-225700000D01*
X119480952Y-225652380D01*
X119671428Y-225652380D01*
X119766666Y-225700000D01*
X119814285Y-225747619D01*
X119861904Y-225842857D01*
X119861904Y-225890476D01*
X119814285Y-225985714D01*
X119766666Y-226033333D01*
X119671428Y-226080952D01*
X119480952Y-226080952D01*
X119385714Y-226128571D01*
X119338095Y-226176190D01*
X119290476Y-226271428D01*
X119290476Y-226461904D01*
X119338095Y-226557142D01*
X119385714Y-226604761D01*
X119480952Y-226652380D01*
X119671428Y-226652380D01*
X119766666Y-226604761D01*
X119814285Y-226557142D01*
X119861904Y-226461904D01*
X119861904Y-226271428D01*
X119814285Y-226176190D01*
X119766666Y-226128571D01*
X119671428Y-226080952D01*
%TO.C,U7*%
X100238095Y-179752380D02*
X100238095Y-180561904D01*
X100285714Y-180657142D01*
X100333333Y-180704761D01*
X100428571Y-180752380D01*
X100619047Y-180752380D01*
X100714285Y-180704761D01*
X100761904Y-180657142D01*
X100809523Y-180561904D01*
X100809523Y-179752380D01*
X101190476Y-179752380D02*
X101857142Y-179752380D01*
X101428571Y-180752380D01*
%TO.C,H2*%
X136488095Y-228152380D02*
X136488095Y-227152380D01*
X136488095Y-227628571D02*
X137059523Y-227628571D01*
X137059523Y-228152380D02*
X137059523Y-227152380D01*
X137488095Y-227247619D02*
X137535714Y-227200000D01*
X137630952Y-227152380D01*
X137869047Y-227152380D01*
X137964285Y-227200000D01*
X138011904Y-227247619D01*
X138059523Y-227342857D01*
X138059523Y-227438095D01*
X138011904Y-227580952D01*
X137440476Y-228152380D01*
X138059523Y-228152380D01*
%TO.C,C4*%
X108333333Y-105607142D02*
X108285714Y-105654761D01*
X108142857Y-105702380D01*
X108047619Y-105702380D01*
X107904761Y-105654761D01*
X107809523Y-105559523D01*
X107761904Y-105464285D01*
X107714285Y-105273809D01*
X107714285Y-105130952D01*
X107761904Y-104940476D01*
X107809523Y-104845238D01*
X107904761Y-104750000D01*
X108047619Y-104702380D01*
X108142857Y-104702380D01*
X108285714Y-104750000D01*
X108333333Y-104797619D01*
X109190476Y-105035714D02*
X109190476Y-105702380D01*
X108952380Y-104654761D02*
X108714285Y-105369047D01*
X109333333Y-105369047D01*
%TO.C,H3*%
X101738095Y-29952380D02*
X101738095Y-28952380D01*
X101738095Y-29428571D02*
X102309523Y-29428571D01*
X102309523Y-29952380D02*
X102309523Y-28952380D01*
X102690476Y-28952380D02*
X103309523Y-28952380D01*
X102976190Y-29333333D01*
X103119047Y-29333333D01*
X103214285Y-29380952D01*
X103261904Y-29428571D01*
X103309523Y-29523809D01*
X103309523Y-29761904D01*
X103261904Y-29857142D01*
X103214285Y-29904761D01*
X103119047Y-29952380D01*
X102833333Y-29952380D01*
X102738095Y-29904761D01*
X102690476Y-29857142D01*
%TO.C,J13*%
X127440476Y-101202380D02*
X127440476Y-101916666D01*
X127392857Y-102059523D01*
X127297619Y-102154761D01*
X127154761Y-102202380D01*
X127059523Y-102202380D01*
X128440476Y-102202380D02*
X127869047Y-102202380D01*
X128154761Y-102202380D02*
X128154761Y-101202380D01*
X128059523Y-101345238D01*
X127964285Y-101440476D01*
X127869047Y-101488095D01*
X128773809Y-101202380D02*
X129392857Y-101202380D01*
X129059523Y-101583333D01*
X129202380Y-101583333D01*
X129297619Y-101630952D01*
X129345238Y-101678571D01*
X129392857Y-101773809D01*
X129392857Y-102011904D01*
X129345238Y-102107142D01*
X129297619Y-102154761D01*
X129202380Y-102202380D01*
X128916666Y-102202380D01*
X128821428Y-102154761D01*
X128773809Y-102107142D01*
%TO.C,R47*%
X127307380Y-174392857D02*
X126831190Y-174726190D01*
X127307380Y-174964285D02*
X126307380Y-174964285D01*
X126307380Y-174583333D01*
X126355000Y-174488095D01*
X126402619Y-174440476D01*
X126497857Y-174392857D01*
X126640714Y-174392857D01*
X126735952Y-174440476D01*
X126783571Y-174488095D01*
X126831190Y-174583333D01*
X126831190Y-174964285D01*
X126640714Y-173535714D02*
X127307380Y-173535714D01*
X126259761Y-173773809D02*
X126974047Y-174011904D01*
X126974047Y-173392857D01*
X126307380Y-173107142D02*
X126307380Y-172440476D01*
X127307380Y-172869047D01*
%TO.C,C15*%
X92107142Y-216392857D02*
X92154761Y-216440476D01*
X92202380Y-216583333D01*
X92202380Y-216678571D01*
X92154761Y-216821428D01*
X92059523Y-216916666D01*
X91964285Y-216964285D01*
X91773809Y-217011904D01*
X91630952Y-217011904D01*
X91440476Y-216964285D01*
X91345238Y-216916666D01*
X91250000Y-216821428D01*
X91202380Y-216678571D01*
X91202380Y-216583333D01*
X91250000Y-216440476D01*
X91297619Y-216392857D01*
X92202380Y-215440476D02*
X92202380Y-216011904D01*
X92202380Y-215726190D02*
X91202380Y-215726190D01*
X91345238Y-215821428D01*
X91440476Y-215916666D01*
X91488095Y-216011904D01*
X91202380Y-214535714D02*
X91202380Y-215011904D01*
X91678571Y-215059523D01*
X91630952Y-215011904D01*
X91583333Y-214916666D01*
X91583333Y-214678571D01*
X91630952Y-214583333D01*
X91678571Y-214535714D01*
X91773809Y-214488095D01*
X92011904Y-214488095D01*
X92107142Y-214535714D01*
X92154761Y-214583333D01*
X92202380Y-214678571D01*
X92202380Y-214916666D01*
X92154761Y-215011904D01*
X92107142Y-215059523D01*
%TO.C,C18*%
X103857142Y-84789124D02*
X103904761Y-84836743D01*
X103952380Y-84979600D01*
X103952380Y-85074838D01*
X103904761Y-85217695D01*
X103809523Y-85312933D01*
X103714285Y-85360552D01*
X103523809Y-85408171D01*
X103380952Y-85408171D01*
X103190476Y-85360552D01*
X103095238Y-85312933D01*
X103000000Y-85217695D01*
X102952380Y-85074838D01*
X102952380Y-84979600D01*
X103000000Y-84836743D01*
X103047619Y-84789124D01*
X103952380Y-83836743D02*
X103952380Y-84408171D01*
X103952380Y-84122457D02*
X102952380Y-84122457D01*
X103095238Y-84217695D01*
X103190476Y-84312933D01*
X103238095Y-84408171D01*
X103380952Y-83265314D02*
X103333333Y-83360552D01*
X103285714Y-83408171D01*
X103190476Y-83455790D01*
X103142857Y-83455790D01*
X103047619Y-83408171D01*
X103000000Y-83360552D01*
X102952380Y-83265314D01*
X102952380Y-83074838D01*
X103000000Y-82979600D01*
X103047619Y-82931981D01*
X103142857Y-82884362D01*
X103190476Y-82884362D01*
X103285714Y-82931981D01*
X103333333Y-82979600D01*
X103380952Y-83074838D01*
X103380952Y-83265314D01*
X103428571Y-83360552D01*
X103476190Y-83408171D01*
X103571428Y-83455790D01*
X103761904Y-83455790D01*
X103857142Y-83408171D01*
X103904761Y-83360552D01*
X103952380Y-83265314D01*
X103952380Y-83074838D01*
X103904761Y-82979600D01*
X103857142Y-82931981D01*
X103761904Y-82884362D01*
X103571428Y-82884362D01*
X103476190Y-82931981D01*
X103428571Y-82979600D01*
X103380952Y-83074838D01*
%TO.C,C9*%
X101037142Y-139666666D02*
X101084761Y-139714285D01*
X101132380Y-139857142D01*
X101132380Y-139952380D01*
X101084761Y-140095238D01*
X100989523Y-140190476D01*
X100894285Y-140238095D01*
X100703809Y-140285714D01*
X100560952Y-140285714D01*
X100370476Y-140238095D01*
X100275238Y-140190476D01*
X100180000Y-140095238D01*
X100132380Y-139952380D01*
X100132380Y-139857142D01*
X100180000Y-139714285D01*
X100227619Y-139666666D01*
X101132380Y-139190476D02*
X101132380Y-139000000D01*
X101084761Y-138904761D01*
X101037142Y-138857142D01*
X100894285Y-138761904D01*
X100703809Y-138714285D01*
X100322857Y-138714285D01*
X100227619Y-138761904D01*
X100180000Y-138809523D01*
X100132380Y-138904761D01*
X100132380Y-139095238D01*
X100180000Y-139190476D01*
X100227619Y-139238095D01*
X100322857Y-139285714D01*
X100560952Y-139285714D01*
X100656190Y-139238095D01*
X100703809Y-139190476D01*
X100751428Y-139095238D01*
X100751428Y-138904761D01*
X100703809Y-138809523D01*
X100656190Y-138761904D01*
X100560952Y-138714285D01*
%TO.C,J6*%
X83312380Y-116823333D02*
X84026666Y-116823333D01*
X84169523Y-116870952D01*
X84264761Y-116966190D01*
X84312380Y-117109047D01*
X84312380Y-117204285D01*
X83312380Y-115918571D02*
X83312380Y-116109047D01*
X83360000Y-116204285D01*
X83407619Y-116251904D01*
X83550476Y-116347142D01*
X83740952Y-116394761D01*
X84121904Y-116394761D01*
X84217142Y-116347142D01*
X84264761Y-116299523D01*
X84312380Y-116204285D01*
X84312380Y-116013809D01*
X84264761Y-115918571D01*
X84217142Y-115870952D01*
X84121904Y-115823333D01*
X83883809Y-115823333D01*
X83788571Y-115870952D01*
X83740952Y-115918571D01*
X83693333Y-116013809D01*
X83693333Y-116204285D01*
X83740952Y-116299523D01*
X83788571Y-116347142D01*
X83883809Y-116394761D01*
%TO.C,D1*%
X115511904Y-197982380D02*
X115511904Y-196982380D01*
X115750000Y-196982380D01*
X115892857Y-197030000D01*
X115988095Y-197125238D01*
X116035714Y-197220476D01*
X116083333Y-197410952D01*
X116083333Y-197553809D01*
X116035714Y-197744285D01*
X115988095Y-197839523D01*
X115892857Y-197934761D01*
X115750000Y-197982380D01*
X115511904Y-197982380D01*
X117035714Y-197982380D02*
X116464285Y-197982380D01*
X116750000Y-197982380D02*
X116750000Y-196982380D01*
X116654761Y-197125238D01*
X116559523Y-197220476D01*
X116464285Y-197268095D01*
X112178095Y-198552380D02*
X112178095Y-197552380D01*
X112749523Y-198552380D02*
X112320952Y-197980952D01*
X112749523Y-197552380D02*
X112178095Y-198123809D01*
%TO.C,R37*%
X88857142Y-195452380D02*
X88523809Y-194976190D01*
X88285714Y-195452380D02*
X88285714Y-194452380D01*
X88666666Y-194452380D01*
X88761904Y-194500000D01*
X88809523Y-194547619D01*
X88857142Y-194642857D01*
X88857142Y-194785714D01*
X88809523Y-194880952D01*
X88761904Y-194928571D01*
X88666666Y-194976190D01*
X88285714Y-194976190D01*
X89190476Y-194452380D02*
X89809523Y-194452380D01*
X89476190Y-194833333D01*
X89619047Y-194833333D01*
X89714285Y-194880952D01*
X89761904Y-194928571D01*
X89809523Y-195023809D01*
X89809523Y-195261904D01*
X89761904Y-195357142D01*
X89714285Y-195404761D01*
X89619047Y-195452380D01*
X89333333Y-195452380D01*
X89238095Y-195404761D01*
X89190476Y-195357142D01*
X90142857Y-194452380D02*
X90809523Y-194452380D01*
X90380952Y-195452380D01*
%TO.C,C19*%
X117332142Y-231642857D02*
X117379761Y-231690476D01*
X117427380Y-231833333D01*
X117427380Y-231928571D01*
X117379761Y-232071428D01*
X117284523Y-232166666D01*
X117189285Y-232214285D01*
X116998809Y-232261904D01*
X116855952Y-232261904D01*
X116665476Y-232214285D01*
X116570238Y-232166666D01*
X116475000Y-232071428D01*
X116427380Y-231928571D01*
X116427380Y-231833333D01*
X116475000Y-231690476D01*
X116522619Y-231642857D01*
X117427380Y-230690476D02*
X117427380Y-231261904D01*
X117427380Y-230976190D02*
X116427380Y-230976190D01*
X116570238Y-231071428D01*
X116665476Y-231166666D01*
X116713095Y-231261904D01*
X117427380Y-230214285D02*
X117427380Y-230023809D01*
X117379761Y-229928571D01*
X117332142Y-229880952D01*
X117189285Y-229785714D01*
X116998809Y-229738095D01*
X116617857Y-229738095D01*
X116522619Y-229785714D01*
X116475000Y-229833333D01*
X116427380Y-229928571D01*
X116427380Y-230119047D01*
X116475000Y-230214285D01*
X116522619Y-230261904D01*
X116617857Y-230309523D01*
X116855952Y-230309523D01*
X116951190Y-230261904D01*
X116998809Y-230214285D01*
X117046428Y-230119047D01*
X117046428Y-229928571D01*
X116998809Y-229833333D01*
X116951190Y-229785714D01*
X116855952Y-229738095D01*
%TO.C,H8*%
X101738095Y-31452380D02*
X101738095Y-30452380D01*
X101738095Y-30928571D02*
X102309523Y-30928571D01*
X102309523Y-31452380D02*
X102309523Y-30452380D01*
X102928571Y-30880952D02*
X102833333Y-30833333D01*
X102785714Y-30785714D01*
X102738095Y-30690476D01*
X102738095Y-30642857D01*
X102785714Y-30547619D01*
X102833333Y-30500000D01*
X102928571Y-30452380D01*
X103119047Y-30452380D01*
X103214285Y-30500000D01*
X103261904Y-30547619D01*
X103309523Y-30642857D01*
X103309523Y-30690476D01*
X103261904Y-30785714D01*
X103214285Y-30833333D01*
X103119047Y-30880952D01*
X102928571Y-30880952D01*
X102833333Y-30928571D01*
X102785714Y-30976190D01*
X102738095Y-31071428D01*
X102738095Y-31261904D01*
X102785714Y-31357142D01*
X102833333Y-31404761D01*
X102928571Y-31452380D01*
X103119047Y-31452380D01*
X103214285Y-31404761D01*
X103261904Y-31357142D01*
X103309523Y-31261904D01*
X103309523Y-31071428D01*
X103261904Y-30976190D01*
X103214285Y-30928571D01*
X103119047Y-30880952D01*
%TO.C,H4*%
X121988095Y-30952380D02*
X121988095Y-29952380D01*
X121988095Y-30428571D02*
X122559523Y-30428571D01*
X122559523Y-30952380D02*
X122559523Y-29952380D01*
X123464285Y-30285714D02*
X123464285Y-30952380D01*
X123226190Y-29904761D02*
X122988095Y-30619047D01*
X123607142Y-30619047D01*
%TO.C,R21*%
X97857142Y-99702380D02*
X97523809Y-99226190D01*
X97285714Y-99702380D02*
X97285714Y-98702380D01*
X97666666Y-98702380D01*
X97761904Y-98750000D01*
X97809523Y-98797619D01*
X97857142Y-98892857D01*
X97857142Y-99035714D01*
X97809523Y-99130952D01*
X97761904Y-99178571D01*
X97666666Y-99226190D01*
X97285714Y-99226190D01*
X98238095Y-98797619D02*
X98285714Y-98750000D01*
X98380952Y-98702380D01*
X98619047Y-98702380D01*
X98714285Y-98750000D01*
X98761904Y-98797619D01*
X98809523Y-98892857D01*
X98809523Y-98988095D01*
X98761904Y-99130952D01*
X98190476Y-99702380D01*
X98809523Y-99702380D01*
X99761904Y-99702380D02*
X99190476Y-99702380D01*
X99476190Y-99702380D02*
X99476190Y-98702380D01*
X99380952Y-98845238D01*
X99285714Y-98940476D01*
X99190476Y-98988095D01*
%TO.C,R2*%
X97833333Y-95702380D02*
X97500000Y-95226190D01*
X97261904Y-95702380D02*
X97261904Y-94702380D01*
X97642857Y-94702380D01*
X97738095Y-94750000D01*
X97785714Y-94797619D01*
X97833333Y-94892857D01*
X97833333Y-95035714D01*
X97785714Y-95130952D01*
X97738095Y-95178571D01*
X97642857Y-95226190D01*
X97261904Y-95226190D01*
X98214285Y-94797619D02*
X98261904Y-94750000D01*
X98357142Y-94702380D01*
X98595238Y-94702380D01*
X98690476Y-94750000D01*
X98738095Y-94797619D01*
X98785714Y-94892857D01*
X98785714Y-94988095D01*
X98738095Y-95130952D01*
X98166666Y-95702380D01*
X98785714Y-95702380D01*
%TO.C,R8*%
X97833333Y-91702380D02*
X97500000Y-91226190D01*
X97261904Y-91702380D02*
X97261904Y-90702380D01*
X97642857Y-90702380D01*
X97738095Y-90750000D01*
X97785714Y-90797619D01*
X97833333Y-90892857D01*
X97833333Y-91035714D01*
X97785714Y-91130952D01*
X97738095Y-91178571D01*
X97642857Y-91226190D01*
X97261904Y-91226190D01*
X98404761Y-91130952D02*
X98309523Y-91083333D01*
X98261904Y-91035714D01*
X98214285Y-90940476D01*
X98214285Y-90892857D01*
X98261904Y-90797619D01*
X98309523Y-90750000D01*
X98404761Y-90702380D01*
X98595238Y-90702380D01*
X98690476Y-90750000D01*
X98738095Y-90797619D01*
X98785714Y-90892857D01*
X98785714Y-90940476D01*
X98738095Y-91035714D01*
X98690476Y-91083333D01*
X98595238Y-91130952D01*
X98404761Y-91130952D01*
X98309523Y-91178571D01*
X98261904Y-91226190D01*
X98214285Y-91321428D01*
X98214285Y-91511904D01*
X98261904Y-91607142D01*
X98309523Y-91654761D01*
X98404761Y-91702380D01*
X98595238Y-91702380D01*
X98690476Y-91654761D01*
X98738095Y-91607142D01*
X98785714Y-91511904D01*
X98785714Y-91321428D01*
X98738095Y-91226190D01*
X98690476Y-91178571D01*
X98595238Y-91130952D01*
%TO.C,U3*%
X111738095Y-97202380D02*
X111738095Y-98011904D01*
X111785714Y-98107142D01*
X111833333Y-98154761D01*
X111928571Y-98202380D01*
X112119047Y-98202380D01*
X112214285Y-98154761D01*
X112261904Y-98107142D01*
X112309523Y-98011904D01*
X112309523Y-97202380D01*
X112690476Y-97202380D02*
X113309523Y-97202380D01*
X112976190Y-97583333D01*
X113119047Y-97583333D01*
X113214285Y-97630952D01*
X113261904Y-97678571D01*
X113309523Y-97773809D01*
X113309523Y-98011904D01*
X113261904Y-98107142D01*
X113214285Y-98154761D01*
X113119047Y-98202380D01*
X112833333Y-98202380D01*
X112738095Y-98154761D01*
X112690476Y-98107142D01*
%TO.C,R20*%
X97857142Y-101702380D02*
X97523809Y-101226190D01*
X97285714Y-101702380D02*
X97285714Y-100702380D01*
X97666666Y-100702380D01*
X97761904Y-100750000D01*
X97809523Y-100797619D01*
X97857142Y-100892857D01*
X97857142Y-101035714D01*
X97809523Y-101130952D01*
X97761904Y-101178571D01*
X97666666Y-101226190D01*
X97285714Y-101226190D01*
X98238095Y-100797619D02*
X98285714Y-100750000D01*
X98380952Y-100702380D01*
X98619047Y-100702380D01*
X98714285Y-100750000D01*
X98761904Y-100797619D01*
X98809523Y-100892857D01*
X98809523Y-100988095D01*
X98761904Y-101130952D01*
X98190476Y-101702380D01*
X98809523Y-101702380D01*
X99428571Y-100702380D02*
X99523809Y-100702380D01*
X99619047Y-100750000D01*
X99666666Y-100797619D01*
X99714285Y-100892857D01*
X99761904Y-101083333D01*
X99761904Y-101321428D01*
X99714285Y-101511904D01*
X99666666Y-101607142D01*
X99619047Y-101654761D01*
X99523809Y-101702380D01*
X99428571Y-101702380D01*
X99333333Y-101654761D01*
X99285714Y-101607142D01*
X99238095Y-101511904D01*
X99190476Y-101321428D01*
X99190476Y-101083333D01*
X99238095Y-100892857D01*
X99285714Y-100797619D01*
X99333333Y-100750000D01*
X99428571Y-100702380D01*
%TO.C,D2*%
X123232380Y-197238095D02*
X122232380Y-197238095D01*
X122232380Y-197000000D01*
X122280000Y-196857142D01*
X122375238Y-196761904D01*
X122470476Y-196714285D01*
X122660952Y-196666666D01*
X122803809Y-196666666D01*
X122994285Y-196714285D01*
X123089523Y-196761904D01*
X123184761Y-196857142D01*
X123232380Y-197000000D01*
X123232380Y-197238095D01*
X122327619Y-196285714D02*
X122280000Y-196238095D01*
X122232380Y-196142857D01*
X122232380Y-195904761D01*
X122280000Y-195809523D01*
X122327619Y-195761904D01*
X122422857Y-195714285D01*
X122518095Y-195714285D01*
X122660952Y-195761904D01*
X123232380Y-196333333D01*
X123232380Y-195714285D01*
X123802380Y-200571904D02*
X122802380Y-200571904D01*
X123802380Y-200000476D02*
X123230952Y-200429047D01*
X122802380Y-200000476D02*
X123373809Y-200571904D01*
%TO.C,Q2*%
X119297619Y-156595238D02*
X119250000Y-156690476D01*
X119154761Y-156785714D01*
X119011904Y-156928571D01*
X118964285Y-157023809D01*
X118964285Y-157119047D01*
X119202380Y-157071428D02*
X119154761Y-157166666D01*
X119059523Y-157261904D01*
X118869047Y-157309523D01*
X118535714Y-157309523D01*
X118345238Y-157261904D01*
X118250000Y-157166666D01*
X118202380Y-157071428D01*
X118202380Y-156880952D01*
X118250000Y-156785714D01*
X118345238Y-156690476D01*
X118535714Y-156642857D01*
X118869047Y-156642857D01*
X119059523Y-156690476D01*
X119154761Y-156785714D01*
X119202380Y-156880952D01*
X119202380Y-157071428D01*
X118297619Y-156261904D02*
X118250000Y-156214285D01*
X118202380Y-156119047D01*
X118202380Y-155880952D01*
X118250000Y-155785714D01*
X118297619Y-155738095D01*
X118392857Y-155690476D01*
X118488095Y-155690476D01*
X118630952Y-155738095D01*
X119202380Y-156309523D01*
X119202380Y-155690476D01*
%TO.C,C2*%
X123357142Y-210766666D02*
X123404761Y-210814285D01*
X123452380Y-210957142D01*
X123452380Y-211052380D01*
X123404761Y-211195238D01*
X123309523Y-211290476D01*
X123214285Y-211338095D01*
X123023809Y-211385714D01*
X122880952Y-211385714D01*
X122690476Y-211338095D01*
X122595238Y-211290476D01*
X122500000Y-211195238D01*
X122452380Y-211052380D01*
X122452380Y-210957142D01*
X122500000Y-210814285D01*
X122547619Y-210766666D01*
X122547619Y-210385714D02*
X122500000Y-210338095D01*
X122452380Y-210242857D01*
X122452380Y-210004761D01*
X122500000Y-209909523D01*
X122547619Y-209861904D01*
X122642857Y-209814285D01*
X122738095Y-209814285D01*
X122880952Y-209861904D01*
X123452380Y-210433333D01*
X123452380Y-209814285D01*
%TO.C,J17*%
X127390476Y-58202380D02*
X127390476Y-58916666D01*
X127342857Y-59059523D01*
X127247619Y-59154761D01*
X127104761Y-59202380D01*
X127009523Y-59202380D01*
X128390476Y-59202380D02*
X127819047Y-59202380D01*
X128104761Y-59202380D02*
X128104761Y-58202380D01*
X128009523Y-58345238D01*
X127914285Y-58440476D01*
X127819047Y-58488095D01*
X128723809Y-58202380D02*
X129390476Y-58202380D01*
X128961904Y-59202380D01*
%TO.C,R5*%
X97833333Y-53202380D02*
X97500000Y-52726190D01*
X97261904Y-53202380D02*
X97261904Y-52202380D01*
X97642857Y-52202380D01*
X97738095Y-52250000D01*
X97785714Y-52297619D01*
X97833333Y-52392857D01*
X97833333Y-52535714D01*
X97785714Y-52630952D01*
X97738095Y-52678571D01*
X97642857Y-52726190D01*
X97261904Y-52726190D01*
X98738095Y-52202380D02*
X98261904Y-52202380D01*
X98214285Y-52678571D01*
X98261904Y-52630952D01*
X98357142Y-52583333D01*
X98595238Y-52583333D01*
X98690476Y-52630952D01*
X98738095Y-52678571D01*
X98785714Y-52773809D01*
X98785714Y-53011904D01*
X98738095Y-53107142D01*
X98690476Y-53154761D01*
X98595238Y-53202380D01*
X98357142Y-53202380D01*
X98261904Y-53154761D01*
X98214285Y-53107142D01*
%TO.C,Q1*%
X127297619Y-166845238D02*
X127250000Y-166940476D01*
X127154761Y-167035714D01*
X127011904Y-167178571D01*
X126964285Y-167273809D01*
X126964285Y-167369047D01*
X127202380Y-167321428D02*
X127154761Y-167416666D01*
X127059523Y-167511904D01*
X126869047Y-167559523D01*
X126535714Y-167559523D01*
X126345238Y-167511904D01*
X126250000Y-167416666D01*
X126202380Y-167321428D01*
X126202380Y-167130952D01*
X126250000Y-167035714D01*
X126345238Y-166940476D01*
X126535714Y-166892857D01*
X126869047Y-166892857D01*
X127059523Y-166940476D01*
X127154761Y-167035714D01*
X127202380Y-167130952D01*
X127202380Y-167321428D01*
X127202380Y-165940476D02*
X127202380Y-166511904D01*
X127202380Y-166226190D02*
X126202380Y-166226190D01*
X126345238Y-166321428D01*
X126440476Y-166416666D01*
X126488095Y-166511904D01*
%TO.C,J11*%
X127190476Y-144452380D02*
X127190476Y-145166666D01*
X127142857Y-145309523D01*
X127047619Y-145404761D01*
X126904761Y-145452380D01*
X126809523Y-145452380D01*
X128190476Y-145452380D02*
X127619047Y-145452380D01*
X127904761Y-145452380D02*
X127904761Y-144452380D01*
X127809523Y-144595238D01*
X127714285Y-144690476D01*
X127619047Y-144738095D01*
X129142857Y-145452380D02*
X128571428Y-145452380D01*
X128857142Y-145452380D02*
X128857142Y-144452380D01*
X128761904Y-144595238D01*
X128666666Y-144690476D01*
X128571428Y-144738095D01*
%TO.C,R38*%
X111357142Y-49452380D02*
X111023809Y-48976190D01*
X110785714Y-49452380D02*
X110785714Y-48452380D01*
X111166666Y-48452380D01*
X111261904Y-48500000D01*
X111309523Y-48547619D01*
X111357142Y-48642857D01*
X111357142Y-48785714D01*
X111309523Y-48880952D01*
X111261904Y-48928571D01*
X111166666Y-48976190D01*
X110785714Y-48976190D01*
X111690476Y-48452380D02*
X112309523Y-48452380D01*
X111976190Y-48833333D01*
X112119047Y-48833333D01*
X112214285Y-48880952D01*
X112261904Y-48928571D01*
X112309523Y-49023809D01*
X112309523Y-49261904D01*
X112261904Y-49357142D01*
X112214285Y-49404761D01*
X112119047Y-49452380D01*
X111833333Y-49452380D01*
X111738095Y-49404761D01*
X111690476Y-49357142D01*
X112880952Y-48880952D02*
X112785714Y-48833333D01*
X112738095Y-48785714D01*
X112690476Y-48690476D01*
X112690476Y-48642857D01*
X112738095Y-48547619D01*
X112785714Y-48500000D01*
X112880952Y-48452380D01*
X113071428Y-48452380D01*
X113166666Y-48500000D01*
X113214285Y-48547619D01*
X113261904Y-48642857D01*
X113261904Y-48690476D01*
X113214285Y-48785714D01*
X113166666Y-48833333D01*
X113071428Y-48880952D01*
X112880952Y-48880952D01*
X112785714Y-48928571D01*
X112738095Y-48976190D01*
X112690476Y-49071428D01*
X112690476Y-49261904D01*
X112738095Y-49357142D01*
X112785714Y-49404761D01*
X112880952Y-49452380D01*
X113071428Y-49452380D01*
X113166666Y-49404761D01*
X113214285Y-49357142D01*
X113261904Y-49261904D01*
X113261904Y-49071428D01*
X113214285Y-48976190D01*
X113166666Y-48928571D01*
X113071428Y-48880952D01*
%TO.C,R15*%
X97857142Y-41202380D02*
X97523809Y-40726190D01*
X97285714Y-41202380D02*
X97285714Y-40202380D01*
X97666666Y-40202380D01*
X97761904Y-40250000D01*
X97809523Y-40297619D01*
X97857142Y-40392857D01*
X97857142Y-40535714D01*
X97809523Y-40630952D01*
X97761904Y-40678571D01*
X97666666Y-40726190D01*
X97285714Y-40726190D01*
X98809523Y-41202380D02*
X98238095Y-41202380D01*
X98523809Y-41202380D02*
X98523809Y-40202380D01*
X98428571Y-40345238D01*
X98333333Y-40440476D01*
X98238095Y-40488095D01*
X99714285Y-40202380D02*
X99238095Y-40202380D01*
X99190476Y-40678571D01*
X99238095Y-40630952D01*
X99333333Y-40583333D01*
X99571428Y-40583333D01*
X99666666Y-40630952D01*
X99714285Y-40678571D01*
X99761904Y-40773809D01*
X99761904Y-41011904D01*
X99714285Y-41107142D01*
X99666666Y-41154761D01*
X99571428Y-41202380D01*
X99333333Y-41202380D01*
X99238095Y-41154761D01*
X99190476Y-41107142D01*
%TO.C,R33*%
X88857142Y-197452380D02*
X88523809Y-196976190D01*
X88285714Y-197452380D02*
X88285714Y-196452380D01*
X88666666Y-196452380D01*
X88761904Y-196500000D01*
X88809523Y-196547619D01*
X88857142Y-196642857D01*
X88857142Y-196785714D01*
X88809523Y-196880952D01*
X88761904Y-196928571D01*
X88666666Y-196976190D01*
X88285714Y-196976190D01*
X89190476Y-196452380D02*
X89809523Y-196452380D01*
X89476190Y-196833333D01*
X89619047Y-196833333D01*
X89714285Y-196880952D01*
X89761904Y-196928571D01*
X89809523Y-197023809D01*
X89809523Y-197261904D01*
X89761904Y-197357142D01*
X89714285Y-197404761D01*
X89619047Y-197452380D01*
X89333333Y-197452380D01*
X89238095Y-197404761D01*
X89190476Y-197357142D01*
X90142857Y-196452380D02*
X90761904Y-196452380D01*
X90428571Y-196833333D01*
X90571428Y-196833333D01*
X90666666Y-196880952D01*
X90714285Y-196928571D01*
X90761904Y-197023809D01*
X90761904Y-197261904D01*
X90714285Y-197357142D01*
X90666666Y-197404761D01*
X90571428Y-197452380D01*
X90285714Y-197452380D01*
X90190476Y-197404761D01*
X90142857Y-197357142D01*
%TO.C,R6*%
X97833333Y-55202380D02*
X97500000Y-54726190D01*
X97261904Y-55202380D02*
X97261904Y-54202380D01*
X97642857Y-54202380D01*
X97738095Y-54250000D01*
X97785714Y-54297619D01*
X97833333Y-54392857D01*
X97833333Y-54535714D01*
X97785714Y-54630952D01*
X97738095Y-54678571D01*
X97642857Y-54726190D01*
X97261904Y-54726190D01*
X98690476Y-54202380D02*
X98500000Y-54202380D01*
X98404761Y-54250000D01*
X98357142Y-54297619D01*
X98261904Y-54440476D01*
X98214285Y-54630952D01*
X98214285Y-55011904D01*
X98261904Y-55107142D01*
X98309523Y-55154761D01*
X98404761Y-55202380D01*
X98595238Y-55202380D01*
X98690476Y-55154761D01*
X98738095Y-55107142D01*
X98785714Y-55011904D01*
X98785714Y-54773809D01*
X98738095Y-54678571D01*
X98690476Y-54630952D01*
X98595238Y-54583333D01*
X98404761Y-54583333D01*
X98309523Y-54630952D01*
X98261904Y-54678571D01*
X98214285Y-54773809D01*
%TO.C,R3*%
X97833333Y-78702380D02*
X97500000Y-78226190D01*
X97261904Y-78702380D02*
X97261904Y-77702380D01*
X97642857Y-77702380D01*
X97738095Y-77750000D01*
X97785714Y-77797619D01*
X97833333Y-77892857D01*
X97833333Y-78035714D01*
X97785714Y-78130952D01*
X97738095Y-78178571D01*
X97642857Y-78226190D01*
X97261904Y-78226190D01*
X98166666Y-77702380D02*
X98785714Y-77702380D01*
X98452380Y-78083333D01*
X98595238Y-78083333D01*
X98690476Y-78130952D01*
X98738095Y-78178571D01*
X98785714Y-78273809D01*
X98785714Y-78511904D01*
X98738095Y-78607142D01*
X98690476Y-78654761D01*
X98595238Y-78702380D01*
X98309523Y-78702380D01*
X98214285Y-78654761D01*
X98166666Y-78607142D01*
%TO.C,R36*%
X88857142Y-199452380D02*
X88523809Y-198976190D01*
X88285714Y-199452380D02*
X88285714Y-198452380D01*
X88666666Y-198452380D01*
X88761904Y-198500000D01*
X88809523Y-198547619D01*
X88857142Y-198642857D01*
X88857142Y-198785714D01*
X88809523Y-198880952D01*
X88761904Y-198928571D01*
X88666666Y-198976190D01*
X88285714Y-198976190D01*
X89190476Y-198452380D02*
X89809523Y-198452380D01*
X89476190Y-198833333D01*
X89619047Y-198833333D01*
X89714285Y-198880952D01*
X89761904Y-198928571D01*
X89809523Y-199023809D01*
X89809523Y-199261904D01*
X89761904Y-199357142D01*
X89714285Y-199404761D01*
X89619047Y-199452380D01*
X89333333Y-199452380D01*
X89238095Y-199404761D01*
X89190476Y-199357142D01*
X90666666Y-198452380D02*
X90476190Y-198452380D01*
X90380952Y-198500000D01*
X90333333Y-198547619D01*
X90238095Y-198690476D01*
X90190476Y-198880952D01*
X90190476Y-199261904D01*
X90238095Y-199357142D01*
X90285714Y-199404761D01*
X90380952Y-199452380D01*
X90571428Y-199452380D01*
X90666666Y-199404761D01*
X90714285Y-199357142D01*
X90761904Y-199261904D01*
X90761904Y-199023809D01*
X90714285Y-198928571D01*
X90666666Y-198880952D01*
X90571428Y-198833333D01*
X90380952Y-198833333D01*
X90285714Y-198880952D01*
X90238095Y-198928571D01*
X90190476Y-199023809D01*
%TO.C,R34*%
X88857142Y-207452380D02*
X88523809Y-206976190D01*
X88285714Y-207452380D02*
X88285714Y-206452380D01*
X88666666Y-206452380D01*
X88761904Y-206500000D01*
X88809523Y-206547619D01*
X88857142Y-206642857D01*
X88857142Y-206785714D01*
X88809523Y-206880952D01*
X88761904Y-206928571D01*
X88666666Y-206976190D01*
X88285714Y-206976190D01*
X89190476Y-206452380D02*
X89809523Y-206452380D01*
X89476190Y-206833333D01*
X89619047Y-206833333D01*
X89714285Y-206880952D01*
X89761904Y-206928571D01*
X89809523Y-207023809D01*
X89809523Y-207261904D01*
X89761904Y-207357142D01*
X89714285Y-207404761D01*
X89619047Y-207452380D01*
X89333333Y-207452380D01*
X89238095Y-207404761D01*
X89190476Y-207357142D01*
X90666666Y-206785714D02*
X90666666Y-207452380D01*
X90428571Y-206404761D02*
X90190476Y-207119047D01*
X90809523Y-207119047D01*
%TO.C,R45*%
X113952380Y-70892857D02*
X113476190Y-71226190D01*
X113952380Y-71464285D02*
X112952380Y-71464285D01*
X112952380Y-71083333D01*
X113000000Y-70988095D01*
X113047619Y-70940476D01*
X113142857Y-70892857D01*
X113285714Y-70892857D01*
X113380952Y-70940476D01*
X113428571Y-70988095D01*
X113476190Y-71083333D01*
X113476190Y-71464285D01*
X113285714Y-70035714D02*
X113952380Y-70035714D01*
X112904761Y-70273809D02*
X113619047Y-70511904D01*
X113619047Y-69892857D01*
X112952380Y-69035714D02*
X112952380Y-69511904D01*
X113428571Y-69559523D01*
X113380952Y-69511904D01*
X113333333Y-69416666D01*
X113333333Y-69178571D01*
X113380952Y-69083333D01*
X113428571Y-69035714D01*
X113523809Y-68988095D01*
X113761904Y-68988095D01*
X113857142Y-69035714D01*
X113904761Y-69083333D01*
X113952380Y-69178571D01*
X113952380Y-69416666D01*
X113904761Y-69511904D01*
X113857142Y-69559523D01*
%TO.C,C11*%
X106357142Y-199107142D02*
X106309523Y-199154761D01*
X106166666Y-199202380D01*
X106071428Y-199202380D01*
X105928571Y-199154761D01*
X105833333Y-199059523D01*
X105785714Y-198964285D01*
X105738095Y-198773809D01*
X105738095Y-198630952D01*
X105785714Y-198440476D01*
X105833333Y-198345238D01*
X105928571Y-198250000D01*
X106071428Y-198202380D01*
X106166666Y-198202380D01*
X106309523Y-198250000D01*
X106357142Y-198297619D01*
X107309523Y-199202380D02*
X106738095Y-199202380D01*
X107023809Y-199202380D02*
X107023809Y-198202380D01*
X106928571Y-198345238D01*
X106833333Y-198440476D01*
X106738095Y-198488095D01*
X108261904Y-199202380D02*
X107690476Y-199202380D01*
X107976190Y-199202380D02*
X107976190Y-198202380D01*
X107880952Y-198345238D01*
X107785714Y-198440476D01*
X107690476Y-198488095D01*
%TO.C,J3*%
X95166666Y-39952380D02*
X95166666Y-40666666D01*
X95119047Y-40809523D01*
X95023809Y-40904761D01*
X94880952Y-40952380D01*
X94785714Y-40952380D01*
X95547619Y-39952380D02*
X96166666Y-39952380D01*
X95833333Y-40333333D01*
X95976190Y-40333333D01*
X96071428Y-40380952D01*
X96119047Y-40428571D01*
X96166666Y-40523809D01*
X96166666Y-40761904D01*
X96119047Y-40857142D01*
X96071428Y-40904761D01*
X95976190Y-40952380D01*
X95690476Y-40952380D01*
X95595238Y-40904761D01*
X95547619Y-40857142D01*
%TO.C,R1*%
X97833333Y-97702380D02*
X97500000Y-97226190D01*
X97261904Y-97702380D02*
X97261904Y-96702380D01*
X97642857Y-96702380D01*
X97738095Y-96750000D01*
X97785714Y-96797619D01*
X97833333Y-96892857D01*
X97833333Y-97035714D01*
X97785714Y-97130952D01*
X97738095Y-97178571D01*
X97642857Y-97226190D01*
X97261904Y-97226190D01*
X98785714Y-97702380D02*
X98214285Y-97702380D01*
X98500000Y-97702380D02*
X98500000Y-96702380D01*
X98404761Y-96845238D01*
X98309523Y-96940476D01*
X98214285Y-96988095D01*
%TO.C,R12*%
X97857142Y-51202380D02*
X97523809Y-50726190D01*
X97285714Y-51202380D02*
X97285714Y-50202380D01*
X97666666Y-50202380D01*
X97761904Y-50250000D01*
X97809523Y-50297619D01*
X97857142Y-50392857D01*
X97857142Y-50535714D01*
X97809523Y-50630952D01*
X97761904Y-50678571D01*
X97666666Y-50726190D01*
X97285714Y-50726190D01*
X98809523Y-51202380D02*
X98238095Y-51202380D01*
X98523809Y-51202380D02*
X98523809Y-50202380D01*
X98428571Y-50345238D01*
X98333333Y-50440476D01*
X98238095Y-50488095D01*
X99190476Y-50297619D02*
X99238095Y-50250000D01*
X99333333Y-50202380D01*
X99571428Y-50202380D01*
X99666666Y-50250000D01*
X99714285Y-50297619D01*
X99761904Y-50392857D01*
X99761904Y-50488095D01*
X99714285Y-50630952D01*
X99142857Y-51202380D01*
X99761904Y-51202380D01*
%TO.C,R42*%
X110952380Y-72892857D02*
X110476190Y-73226190D01*
X110952380Y-73464285D02*
X109952380Y-73464285D01*
X109952380Y-73083333D01*
X110000000Y-72988095D01*
X110047619Y-72940476D01*
X110142857Y-72892857D01*
X110285714Y-72892857D01*
X110380952Y-72940476D01*
X110428571Y-72988095D01*
X110476190Y-73083333D01*
X110476190Y-73464285D01*
X110285714Y-72035714D02*
X110952380Y-72035714D01*
X109904761Y-72273809D02*
X110619047Y-72511904D01*
X110619047Y-71892857D01*
X110047619Y-71559523D02*
X110000000Y-71511904D01*
X109952380Y-71416666D01*
X109952380Y-71178571D01*
X110000000Y-71083333D01*
X110047619Y-71035714D01*
X110142857Y-70988095D01*
X110238095Y-70988095D01*
X110380952Y-71035714D01*
X110952380Y-71607142D01*
X110952380Y-70988095D01*
%TO.C,R27*%
X88857142Y-209452380D02*
X88523809Y-208976190D01*
X88285714Y-209452380D02*
X88285714Y-208452380D01*
X88666666Y-208452380D01*
X88761904Y-208500000D01*
X88809523Y-208547619D01*
X88857142Y-208642857D01*
X88857142Y-208785714D01*
X88809523Y-208880952D01*
X88761904Y-208928571D01*
X88666666Y-208976190D01*
X88285714Y-208976190D01*
X89238095Y-208547619D02*
X89285714Y-208500000D01*
X89380952Y-208452380D01*
X89619047Y-208452380D01*
X89714285Y-208500000D01*
X89761904Y-208547619D01*
X89809523Y-208642857D01*
X89809523Y-208738095D01*
X89761904Y-208880952D01*
X89190476Y-209452380D01*
X89809523Y-209452380D01*
X90142857Y-208452380D02*
X90809523Y-208452380D01*
X90380952Y-209452380D01*
%TO.C,R30*%
X88857142Y-205452380D02*
X88523809Y-204976190D01*
X88285714Y-205452380D02*
X88285714Y-204452380D01*
X88666666Y-204452380D01*
X88761904Y-204500000D01*
X88809523Y-204547619D01*
X88857142Y-204642857D01*
X88857142Y-204785714D01*
X88809523Y-204880952D01*
X88761904Y-204928571D01*
X88666666Y-204976190D01*
X88285714Y-204976190D01*
X89190476Y-204452380D02*
X89809523Y-204452380D01*
X89476190Y-204833333D01*
X89619047Y-204833333D01*
X89714285Y-204880952D01*
X89761904Y-204928571D01*
X89809523Y-205023809D01*
X89809523Y-205261904D01*
X89761904Y-205357142D01*
X89714285Y-205404761D01*
X89619047Y-205452380D01*
X89333333Y-205452380D01*
X89238095Y-205404761D01*
X89190476Y-205357142D01*
X90428571Y-204452380D02*
X90523809Y-204452380D01*
X90619047Y-204500000D01*
X90666666Y-204547619D01*
X90714285Y-204642857D01*
X90761904Y-204833333D01*
X90761904Y-205071428D01*
X90714285Y-205261904D01*
X90666666Y-205357142D01*
X90619047Y-205404761D01*
X90523809Y-205452380D01*
X90428571Y-205452380D01*
X90333333Y-205404761D01*
X90285714Y-205357142D01*
X90238095Y-205261904D01*
X90190476Y-205071428D01*
X90190476Y-204833333D01*
X90238095Y-204642857D01*
X90285714Y-204547619D01*
X90333333Y-204500000D01*
X90428571Y-204452380D01*
%TO.C,J8*%
X95166666Y-183702380D02*
X95166666Y-184416666D01*
X95119047Y-184559523D01*
X95023809Y-184654761D01*
X94880952Y-184702380D01*
X94785714Y-184702380D01*
X95785714Y-184130952D02*
X95690476Y-184083333D01*
X95642857Y-184035714D01*
X95595238Y-183940476D01*
X95595238Y-183892857D01*
X95642857Y-183797619D01*
X95690476Y-183750000D01*
X95785714Y-183702380D01*
X95976190Y-183702380D01*
X96071428Y-183750000D01*
X96119047Y-183797619D01*
X96166666Y-183892857D01*
X96166666Y-183940476D01*
X96119047Y-184035714D01*
X96071428Y-184083333D01*
X95976190Y-184130952D01*
X95785714Y-184130952D01*
X95690476Y-184178571D01*
X95642857Y-184226190D01*
X95595238Y-184321428D01*
X95595238Y-184511904D01*
X95642857Y-184607142D01*
X95690476Y-184654761D01*
X95785714Y-184702380D01*
X95976190Y-184702380D01*
X96071428Y-184654761D01*
X96119047Y-184607142D01*
X96166666Y-184511904D01*
X96166666Y-184321428D01*
X96119047Y-184226190D01*
X96071428Y-184178571D01*
X95976190Y-184130952D01*
%TO.C,R35*%
X88857142Y-203452380D02*
X88523809Y-202976190D01*
X88285714Y-203452380D02*
X88285714Y-202452380D01*
X88666666Y-202452380D01*
X88761904Y-202500000D01*
X88809523Y-202547619D01*
X88857142Y-202642857D01*
X88857142Y-202785714D01*
X88809523Y-202880952D01*
X88761904Y-202928571D01*
X88666666Y-202976190D01*
X88285714Y-202976190D01*
X89190476Y-202452380D02*
X89809523Y-202452380D01*
X89476190Y-202833333D01*
X89619047Y-202833333D01*
X89714285Y-202880952D01*
X89761904Y-202928571D01*
X89809523Y-203023809D01*
X89809523Y-203261904D01*
X89761904Y-203357142D01*
X89714285Y-203404761D01*
X89619047Y-203452380D01*
X89333333Y-203452380D01*
X89238095Y-203404761D01*
X89190476Y-203357142D01*
X90714285Y-202452380D02*
X90238095Y-202452380D01*
X90190476Y-202928571D01*
X90238095Y-202880952D01*
X90333333Y-202833333D01*
X90571428Y-202833333D01*
X90666666Y-202880952D01*
X90714285Y-202928571D01*
X90761904Y-203023809D01*
X90761904Y-203261904D01*
X90714285Y-203357142D01*
X90666666Y-203404761D01*
X90571428Y-203452380D01*
X90333333Y-203452380D01*
X90238095Y-203404761D01*
X90190476Y-203357142D01*
%TO.C,R22*%
X124272380Y-219142857D02*
X123796190Y-219476190D01*
X124272380Y-219714285D02*
X123272380Y-219714285D01*
X123272380Y-219333333D01*
X123320000Y-219238095D01*
X123367619Y-219190476D01*
X123462857Y-219142857D01*
X123605714Y-219142857D01*
X123700952Y-219190476D01*
X123748571Y-219238095D01*
X123796190Y-219333333D01*
X123796190Y-219714285D01*
X123367619Y-218761904D02*
X123320000Y-218714285D01*
X123272380Y-218619047D01*
X123272380Y-218380952D01*
X123320000Y-218285714D01*
X123367619Y-218238095D01*
X123462857Y-218190476D01*
X123558095Y-218190476D01*
X123700952Y-218238095D01*
X124272380Y-218809523D01*
X124272380Y-218190476D01*
X123367619Y-217809523D02*
X123320000Y-217761904D01*
X123272380Y-217666666D01*
X123272380Y-217428571D01*
X123320000Y-217333333D01*
X123367619Y-217285714D01*
X123462857Y-217238095D01*
X123558095Y-217238095D01*
X123700952Y-217285714D01*
X124272380Y-217857142D01*
X124272380Y-217238095D01*
%TO.C,J9*%
X128066666Y-201852380D02*
X128066666Y-202566666D01*
X128019047Y-202709523D01*
X127923809Y-202804761D01*
X127780952Y-202852380D01*
X127685714Y-202852380D01*
X128590476Y-202852380D02*
X128780952Y-202852380D01*
X128876190Y-202804761D01*
X128923809Y-202757142D01*
X129019047Y-202614285D01*
X129066666Y-202423809D01*
X129066666Y-202042857D01*
X129019047Y-201947619D01*
X128971428Y-201900000D01*
X128876190Y-201852380D01*
X128685714Y-201852380D01*
X128590476Y-201900000D01*
X128542857Y-201947619D01*
X128495238Y-202042857D01*
X128495238Y-202280952D01*
X128542857Y-202376190D01*
X128590476Y-202423809D01*
X128685714Y-202471428D01*
X128876190Y-202471428D01*
X128971428Y-202423809D01*
X129019047Y-202376190D01*
X129066666Y-202280952D01*
X139678571Y-205107142D02*
X140821428Y-205107142D01*
X140250000Y-205678571D02*
X140250000Y-204535714D01*
X126678571Y-205107142D02*
X127821428Y-205107142D01*
%TO.C,J18*%
X127440476Y-122702380D02*
X127440476Y-123416666D01*
X127392857Y-123559523D01*
X127297619Y-123654761D01*
X127154761Y-123702380D01*
X127059523Y-123702380D01*
X128440476Y-123702380D02*
X127869047Y-123702380D01*
X128154761Y-123702380D02*
X128154761Y-122702380D01*
X128059523Y-122845238D01*
X127964285Y-122940476D01*
X127869047Y-122988095D01*
X129011904Y-123130952D02*
X128916666Y-123083333D01*
X128869047Y-123035714D01*
X128821428Y-122940476D01*
X128821428Y-122892857D01*
X128869047Y-122797619D01*
X128916666Y-122750000D01*
X129011904Y-122702380D01*
X129202380Y-122702380D01*
X129297619Y-122750000D01*
X129345238Y-122797619D01*
X129392857Y-122892857D01*
X129392857Y-122940476D01*
X129345238Y-123035714D01*
X129297619Y-123083333D01*
X129202380Y-123130952D01*
X129011904Y-123130952D01*
X128916666Y-123178571D01*
X128869047Y-123226190D01*
X128821428Y-123321428D01*
X128821428Y-123511904D01*
X128869047Y-123607142D01*
X128916666Y-123654761D01*
X129011904Y-123702380D01*
X129202380Y-123702380D01*
X129297619Y-123654761D01*
X129345238Y-123607142D01*
X129392857Y-123511904D01*
X129392857Y-123321428D01*
X129345238Y-123226190D01*
X129297619Y-123178571D01*
X129202380Y-123130952D01*
%TO.C,R13*%
X97857142Y-45202380D02*
X97523809Y-44726190D01*
X97285714Y-45202380D02*
X97285714Y-44202380D01*
X97666666Y-44202380D01*
X97761904Y-44250000D01*
X97809523Y-44297619D01*
X97857142Y-44392857D01*
X97857142Y-44535714D01*
X97809523Y-44630952D01*
X97761904Y-44678571D01*
X97666666Y-44726190D01*
X97285714Y-44726190D01*
X98809523Y-45202380D02*
X98238095Y-45202380D01*
X98523809Y-45202380D02*
X98523809Y-44202380D01*
X98428571Y-44345238D01*
X98333333Y-44440476D01*
X98238095Y-44488095D01*
X99142857Y-44202380D02*
X99761904Y-44202380D01*
X99428571Y-44583333D01*
X99571428Y-44583333D01*
X99666666Y-44630952D01*
X99714285Y-44678571D01*
X99761904Y-44773809D01*
X99761904Y-45011904D01*
X99714285Y-45107142D01*
X99666666Y-45154761D01*
X99571428Y-45202380D01*
X99285714Y-45202380D01*
X99190476Y-45154761D01*
X99142857Y-45107142D01*
%TO.C,R46*%
X117452380Y-166642857D02*
X116976190Y-166976190D01*
X117452380Y-167214285D02*
X116452380Y-167214285D01*
X116452380Y-166833333D01*
X116500000Y-166738095D01*
X116547619Y-166690476D01*
X116642857Y-166642857D01*
X116785714Y-166642857D01*
X116880952Y-166690476D01*
X116928571Y-166738095D01*
X116976190Y-166833333D01*
X116976190Y-167214285D01*
X116785714Y-165785714D02*
X117452380Y-165785714D01*
X116404761Y-166023809D02*
X117119047Y-166261904D01*
X117119047Y-165642857D01*
X116452380Y-164833333D02*
X116452380Y-165023809D01*
X116500000Y-165119047D01*
X116547619Y-165166666D01*
X116690476Y-165261904D01*
X116880952Y-165309523D01*
X117261904Y-165309523D01*
X117357142Y-165261904D01*
X117404761Y-165214285D01*
X117452380Y-165119047D01*
X117452380Y-164928571D01*
X117404761Y-164833333D01*
X117357142Y-164785714D01*
X117261904Y-164738095D01*
X117023809Y-164738095D01*
X116928571Y-164785714D01*
X116880952Y-164833333D01*
X116833333Y-164928571D01*
X116833333Y-165119047D01*
X116880952Y-165214285D01*
X116928571Y-165261904D01*
X117023809Y-165309523D01*
D11*
%TO.C,R11*%
X101495276Y-48290147D02*
X102004724Y-48290147D01*
X101495276Y-49335147D02*
X102004724Y-49335147D01*
%TO.C,R41*%
X109004724Y-50290147D02*
X108495276Y-50290147D01*
X109004724Y-51335147D02*
X108495276Y-51335147D01*
%TO.C,J4*%
X82950000Y-133800000D02*
X82950000Y-144650000D01*
X94850000Y-133800000D02*
X92950000Y-133800000D01*
X95550000Y-144650000D02*
X95550000Y-134300000D01*
X93150000Y-134300000D02*
X87750000Y-134300000D01*
X94600000Y-134300000D02*
X94850000Y-133800000D01*
X92950000Y-133800000D02*
X92900000Y-133800000D01*
X92900000Y-133800000D02*
X93150000Y-134300000D01*
X87750000Y-134300000D02*
X88050000Y-133800000D01*
X95550000Y-134300000D02*
X94600000Y-134300000D01*
X82950000Y-144650000D02*
X95550000Y-144650000D01*
X88050000Y-133800000D02*
X82950000Y-133800000D01*
%TO.C,R44*%
X106977500Y-77057923D02*
X106977500Y-77567371D01*
X108022500Y-77057923D02*
X108022500Y-77567371D01*
%TO.C,R29*%
X119902500Y-151005276D02*
X119902500Y-151514724D01*
X120947500Y-151005276D02*
X120947500Y-151514724D01*
%TO.C,C17*%
X101896267Y-177990000D02*
X101603733Y-177990000D01*
X101896267Y-179010000D02*
X101603733Y-179010000D01*
%TO.C,R16*%
X101407776Y-43335147D02*
X101917224Y-43335147D01*
X101407776Y-42290147D02*
X101917224Y-42290147D01*
%TO.C,R19*%
X122245276Y-225272500D02*
X122754724Y-225272500D01*
X122245276Y-224227500D02*
X122754724Y-224227500D01*
%TO.C,R7*%
X101745276Y-93835147D02*
X102254724Y-93835147D01*
X101745276Y-92790147D02*
X102254724Y-92790147D01*
%TO.C,R40*%
X104477500Y-79057923D02*
X104477500Y-79567371D01*
X105522500Y-79057923D02*
X105522500Y-79567371D01*
%TO.C,U6*%
X118810000Y-193000000D02*
X118810000Y-191050000D01*
X113690000Y-193000000D02*
X113690000Y-191050000D01*
X118810000Y-193000000D02*
X118810000Y-194950000D01*
X113690000Y-193000000D02*
X113690000Y-196450000D01*
%TO.C,J15*%
X137750000Y-56890000D02*
X132350000Y-56890000D01*
X132350000Y-56890000D02*
X132650000Y-57440000D01*
X130600000Y-57440000D02*
X130900000Y-56890000D01*
X130900000Y-56890000D02*
X129950000Y-56890000D01*
X142550000Y-57390000D02*
X137500000Y-57390000D01*
X132650000Y-57440000D02*
X130600000Y-57440000D01*
X129950000Y-36590000D02*
X142550000Y-36590000D01*
X142550000Y-36590000D02*
X142550000Y-57390000D01*
X137500000Y-57390000D02*
X137750000Y-56890000D01*
X129950000Y-56890000D02*
X129950000Y-36590000D01*
%TO.C,R14*%
X101495276Y-47335147D02*
X102004724Y-47335147D01*
X101495276Y-46290147D02*
X102004724Y-46290147D01*
%TO.C,C12*%
X104945563Y-226260000D02*
X97490000Y-226260000D01*
X106010000Y-218804437D02*
X104945563Y-217740000D01*
X106010000Y-225195563D02*
X104945563Y-226260000D01*
X97490000Y-226260000D02*
X97490000Y-223210000D01*
X107250000Y-224210000D02*
X106250000Y-224210000D01*
X97490000Y-217740000D02*
X97490000Y-220790000D01*
X106750000Y-224710000D02*
X106750000Y-223710000D01*
X104945563Y-217740000D02*
X97490000Y-217740000D01*
X106010000Y-225195563D02*
X106010000Y-223210000D01*
X106010000Y-218804437D02*
X106010000Y-220790000D01*
%TO.C,U5*%
X112865000Y-151260000D02*
X112865000Y-154710000D01*
X117985000Y-151260000D02*
X117985000Y-149310000D01*
X112865000Y-151260000D02*
X112865000Y-149310000D01*
X117985000Y-151260000D02*
X117985000Y-153210000D01*
%TO.C,J16*%
X142550000Y-79840000D02*
X142550000Y-100640000D01*
X132650000Y-100690000D02*
X130600000Y-100690000D01*
X129950000Y-79840000D02*
X142550000Y-79840000D01*
X130900000Y-100140000D02*
X129950000Y-100140000D01*
X137750000Y-100140000D02*
X132350000Y-100140000D01*
X132350000Y-100140000D02*
X132650000Y-100690000D01*
X130600000Y-100690000D02*
X130900000Y-100140000D01*
X137500000Y-100640000D02*
X137750000Y-100140000D01*
X142550000Y-100640000D02*
X137500000Y-100640000D01*
X129950000Y-100140000D02*
X129950000Y-79840000D01*
%TO.C,C13*%
X104945563Y-208240000D02*
X97490000Y-208240000D01*
X106010000Y-209304437D02*
X104945563Y-208240000D01*
X106010000Y-215695563D02*
X106010000Y-213710000D01*
X107250000Y-214710000D02*
X106250000Y-214710000D01*
X106010000Y-215695563D02*
X104945563Y-216760000D01*
X97490000Y-216760000D02*
X97490000Y-213710000D01*
X97490000Y-208240000D02*
X97490000Y-211290000D01*
X106750000Y-215210000D02*
X106750000Y-214210000D01*
X106010000Y-209304437D02*
X106010000Y-211290000D01*
X104945563Y-216760000D02*
X97490000Y-216760000D01*
%TO.C,U2*%
X117720000Y-216320000D02*
X118820000Y-216320000D01*
X117720000Y-222950000D02*
X117720000Y-222680000D01*
X117720000Y-222680000D02*
X120550000Y-222680000D01*
X117720000Y-216050000D02*
X117720000Y-216320000D01*
X116220000Y-222950000D02*
X117720000Y-222950000D01*
X116220000Y-216050000D02*
X117720000Y-216050000D01*
%TO.C,R28*%
X127227500Y-160995276D02*
X127227500Y-161504724D01*
X128272500Y-160995276D02*
X128272500Y-161504724D01*
%TO.C,R26*%
X113947500Y-157505276D02*
X113947500Y-158014724D01*
X112902500Y-157505276D02*
X112902500Y-158014724D01*
%TO.C,R10*%
X101582776Y-71790147D02*
X102092224Y-71790147D01*
X101582776Y-72835147D02*
X102092224Y-72835147D01*
%TO.C,R23*%
X112727500Y-162004724D02*
X112727500Y-161495276D01*
X113772500Y-162004724D02*
X113772500Y-161495276D01*
%TO.C,C7*%
X93490000Y-212103733D02*
X93490000Y-212396267D01*
X94510000Y-212103733D02*
X94510000Y-212396267D01*
%TO.C,R24*%
X123947500Y-174004724D02*
X123947500Y-173495276D01*
X122902500Y-174004724D02*
X122902500Y-173495276D01*
%TO.C,R9*%
X101582776Y-74835147D02*
X102092224Y-74835147D01*
X101582776Y-73790147D02*
X102092224Y-73790147D01*
%TO.C,J1*%
X85170000Y-81877647D02*
X90930000Y-81877647D01*
X92760000Y-81877647D02*
X92450000Y-81877647D01*
X85170000Y-96327647D02*
X85670000Y-96327647D01*
X92450000Y-97747647D02*
X92760000Y-97747647D01*
X92760000Y-97747647D02*
X92760000Y-81877647D01*
X90930000Y-97747647D02*
X85170000Y-97747647D01*
X85170000Y-83297647D02*
X85170000Y-81877647D01*
X85170000Y-97747647D02*
X85170000Y-96327647D01*
X85670000Y-96327647D02*
X85670000Y-83297647D01*
X85670000Y-83297647D02*
X85170000Y-83297647D01*
%TO.C,C5*%
X118603733Y-228260000D02*
X118896267Y-228260000D01*
X118603733Y-227240000D02*
X118896267Y-227240000D01*
%TO.C,R31*%
X121407776Y-205022500D02*
X121917224Y-205022500D01*
X121407776Y-203977500D02*
X121917224Y-203977500D01*
%TO.C,R17*%
X102254724Y-102727500D02*
X101745276Y-102727500D01*
X102254724Y-103772500D02*
X101745276Y-103772500D01*
%TO.C,R32*%
X92754724Y-201522500D02*
X92245276Y-201522500D01*
X92754724Y-200477500D02*
X92245276Y-200477500D01*
%TO.C,R25*%
X121947500Y-167407776D02*
X121947500Y-167917224D01*
X120902500Y-167407776D02*
X120902500Y-167917224D01*
%TO.C,J7*%
X141950000Y-219500000D02*
X140950000Y-218500000D01*
X127150000Y-212000000D02*
X142150000Y-212000000D01*
X142150000Y-227000000D02*
X127150000Y-227000000D01*
X127150000Y-227000000D02*
X127150000Y-212000000D01*
X142150000Y-212000000D02*
X142150000Y-227000000D01*
X141950000Y-219500000D02*
X140950000Y-220500000D01*
%TO.C,R43*%
X109004724Y-47335147D02*
X108495276Y-47335147D01*
X109004724Y-46290147D02*
X108495276Y-46290147D01*
%TO.C,U1*%
X112900000Y-212910000D02*
X116660000Y-212910000D01*
X116660000Y-206090000D02*
X116660000Y-207350000D01*
X110650000Y-206090000D02*
X116660000Y-206090000D01*
X116660000Y-212910000D02*
X116660000Y-211650000D01*
%TO.C,J2*%
X85755000Y-64297647D02*
X85255000Y-64297647D01*
X85755000Y-77327647D02*
X85755000Y-64297647D01*
X92845000Y-78747647D02*
X92845000Y-62877647D01*
X85255000Y-62877647D02*
X91015000Y-62877647D01*
X91015000Y-78747647D02*
X85255000Y-78747647D01*
X85255000Y-64297647D02*
X85255000Y-62877647D01*
X85255000Y-78747647D02*
X85255000Y-77327647D01*
X92535000Y-78747647D02*
X92845000Y-78747647D01*
X92845000Y-62877647D02*
X92535000Y-62877647D01*
X85255000Y-77327647D02*
X85755000Y-77327647D01*
%TO.C,J5*%
X86910000Y-169271689D02*
X86910000Y-156808311D01*
X88858256Y-155173530D02*
X93558256Y-156002267D01*
X83715662Y-157750000D02*
X83715662Y-157250000D01*
X88858256Y-170906470D02*
X93558256Y-170077733D01*
X85670000Y-147555000D02*
X96170000Y-147555000D01*
X84148675Y-157500000D02*
X83715662Y-157750000D01*
X97230000Y-148615000D02*
X97230000Y-177465000D01*
X96170000Y-178525000D02*
X85670000Y-178525000D01*
X94930000Y-168442952D02*
X94930000Y-157637048D01*
X84610000Y-177465000D02*
X84610000Y-148615000D01*
X83715662Y-157250000D02*
X84148675Y-157500000D01*
X97230000Y-148615000D02*
G75*
G03*
X96170000Y-147555000I-1060001J-1D01*
G01*
X86910000Y-169271689D02*
G75*
G03*
X88858256Y-170906470I1659999J-1D01*
G01*
X96170000Y-178525000D02*
G75*
G03*
X97230000Y-177465000I-1J1060001D01*
G01*
X84610000Y-177465000D02*
G75*
G03*
X85670000Y-178525000I1060001J1D01*
G01*
X93558256Y-170077733D02*
G75*
G03*
X94930000Y-168442952I-288255J1634780D01*
G01*
X85670000Y-147555000D02*
G75*
G03*
X84610000Y-148615000I1J-1060001D01*
G01*
X88858256Y-155173530D02*
G75*
G03*
X86910000Y-156808311I-288256J-1634781D01*
G01*
X94930000Y-157637048D02*
G75*
G03*
X93558256Y-156002267I-1659999J1D01*
G01*
%TO.C,J14*%
X129950000Y-186150000D02*
X129950000Y-165850000D01*
X142550000Y-165850000D02*
X142550000Y-186650000D01*
X132350000Y-186150000D02*
X132650000Y-186700000D01*
X130900000Y-186150000D02*
X129950000Y-186150000D01*
X129950000Y-165850000D02*
X142550000Y-165850000D01*
X130600000Y-186700000D02*
X130900000Y-186150000D01*
X132650000Y-186700000D02*
X130600000Y-186700000D01*
X137750000Y-186150000D02*
X132350000Y-186150000D01*
X137500000Y-186650000D02*
X137750000Y-186150000D01*
X142550000Y-186650000D02*
X137500000Y-186650000D01*
%TO.C,J12*%
X129950000Y-197700000D02*
X130900000Y-197700000D01*
X132600000Y-198200000D02*
X132350000Y-197700000D01*
X137750000Y-197700000D02*
X137450000Y-198200000D01*
X142550000Y-198200000D02*
X142550000Y-187350000D01*
X132550000Y-198200000D02*
X132600000Y-198200000D01*
X132350000Y-197700000D02*
X137750000Y-197700000D01*
X142550000Y-187350000D02*
X129950000Y-187350000D01*
X130650000Y-198200000D02*
X132550000Y-198200000D01*
X137450000Y-198200000D02*
X142550000Y-198200000D01*
X130900000Y-197700000D02*
X130650000Y-198200000D01*
X129950000Y-187350000D02*
X129950000Y-197700000D01*
%TO.C,R39*%
X109004724Y-44290147D02*
X108495276Y-44290147D01*
X109004724Y-45335147D02*
X108495276Y-45335147D01*
%TO.C,C16*%
X112646267Y-95760000D02*
X112353733Y-95760000D01*
X112646267Y-94740000D02*
X112353733Y-94740000D01*
%TO.C,U4*%
X120365000Y-161250000D02*
X120365000Y-164700000D01*
X125485000Y-161250000D02*
X125485000Y-163200000D01*
X120365000Y-161250000D02*
X120365000Y-159300000D01*
X125485000Y-161250000D02*
X125485000Y-159300000D01*
%TO.C,J10*%
X85920000Y-196345000D02*
X85920000Y-219265000D01*
X88580000Y-196345000D02*
X88580000Y-219265000D01*
X85920000Y-219265000D02*
X88580000Y-219265000D01*
X85920000Y-193745000D02*
X87250000Y-193745000D01*
X85920000Y-195075000D02*
X85920000Y-193745000D01*
X85920000Y-196345000D02*
X88580000Y-196345000D01*
%TO.C,U8*%
X112500000Y-85777647D02*
X114700000Y-85777647D01*
X112500000Y-93847647D02*
X114700000Y-93847647D01*
X112500000Y-93847647D02*
X110300000Y-93847647D01*
X112500000Y-85777647D02*
X108900000Y-85777647D01*
%TO.C,C3*%
X121260000Y-213396267D02*
X121260000Y-213103733D01*
X120240000Y-213396267D02*
X120240000Y-213103733D01*
%TO.C,C14*%
X97515000Y-197760000D02*
X97515000Y-194710000D01*
X106775000Y-196210000D02*
X106775000Y-195210000D01*
X106035000Y-196695563D02*
X104970563Y-197760000D01*
X106035000Y-196695563D02*
X106035000Y-194710000D01*
X97515000Y-189240000D02*
X97515000Y-192290000D01*
X104970563Y-189240000D02*
X97515000Y-189240000D01*
X104970563Y-197760000D02*
X97515000Y-197760000D01*
X106035000Y-190304437D02*
X106035000Y-192290000D01*
X107275000Y-195710000D02*
X106275000Y-195710000D01*
X106035000Y-190304437D02*
X104970563Y-189240000D01*
%TO.C,C1*%
X112103733Y-204010000D02*
X112396267Y-204010000D01*
X112103733Y-202990000D02*
X112396267Y-202990000D01*
%TO.C,R4*%
X101582776Y-75790147D02*
X102092224Y-75790147D01*
X101582776Y-76835147D02*
X102092224Y-76835147D01*
%TO.C,R18*%
X118495276Y-225272500D02*
X119004724Y-225272500D01*
X118495276Y-224227500D02*
X119004724Y-224227500D01*
%TO.C,U7*%
X101000000Y-186485000D02*
X98800000Y-186485000D01*
X101000000Y-181015000D02*
X97400000Y-181015000D01*
X101000000Y-186485000D02*
X103200000Y-186485000D01*
X101000000Y-181015000D02*
X103200000Y-181015000D01*
%TO.C,C4*%
X111103733Y-104740000D02*
X111396267Y-104740000D01*
X111103733Y-105760000D02*
X111396267Y-105760000D01*
%TO.C,J13*%
X130600000Y-122200000D02*
X130900000Y-121650000D01*
X137500000Y-122150000D02*
X137750000Y-121650000D01*
X142550000Y-122150000D02*
X137500000Y-122150000D01*
X132350000Y-121650000D02*
X132650000Y-122200000D01*
X132650000Y-122200000D02*
X130600000Y-122200000D01*
X137750000Y-121650000D02*
X132350000Y-121650000D01*
X142550000Y-101350000D02*
X142550000Y-122150000D01*
X129950000Y-121650000D02*
X129950000Y-101350000D01*
X129950000Y-101350000D02*
X142550000Y-101350000D01*
X130900000Y-121650000D02*
X129950000Y-121650000D01*
%TO.C,R47*%
X124902500Y-173495276D02*
X124902500Y-174004724D01*
X125947500Y-173495276D02*
X125947500Y-174004724D01*
%TO.C,C15*%
X92260000Y-212103733D02*
X92260000Y-212396267D01*
X91240000Y-212103733D02*
X91240000Y-212396267D01*
%TO.C,C18*%
X104490000Y-83853733D02*
X104490000Y-84146267D01*
X105510000Y-83853733D02*
X105510000Y-84146267D01*
%TO.C,C9*%
X99760000Y-139353733D02*
X99760000Y-139646267D01*
X98740000Y-139353733D02*
X98740000Y-139646267D01*
%TO.C,J6*%
X96420000Y-131975000D02*
X85920000Y-131975000D01*
X84860000Y-130915000D02*
X84860000Y-102065000D01*
X83965662Y-111200000D02*
X83965662Y-110700000D01*
X84398675Y-110950000D02*
X83965662Y-111200000D01*
X83965662Y-110700000D02*
X84398675Y-110950000D01*
X85920000Y-101005000D02*
X96420000Y-101005000D01*
X89108256Y-124356470D02*
X93808256Y-123527733D01*
X87160000Y-122721689D02*
X87160000Y-110258311D01*
X97480000Y-102065000D02*
X97480000Y-130915000D01*
X95180000Y-121892952D02*
X95180000Y-111087048D01*
X89108256Y-108623530D02*
X93808256Y-109452267D01*
X93808256Y-123527733D02*
G75*
G03*
X95180000Y-121892952I-288255J1634780D01*
G01*
X97480000Y-102065000D02*
G75*
G03*
X96420000Y-101005000I-1060001J-1D01*
G01*
X84860000Y-130915000D02*
G75*
G03*
X85920000Y-131975000I1060001J1D01*
G01*
X87160000Y-122721689D02*
G75*
G03*
X89108256Y-124356470I1659999J-1D01*
G01*
X89108256Y-108623530D02*
G75*
G03*
X87160000Y-110258311I-288256J-1634781D01*
G01*
X95180000Y-111087048D02*
G75*
G03*
X93808256Y-109452267I-1659999J1D01*
G01*
X85920000Y-101005000D02*
G75*
G03*
X84860000Y-102065000I1J-1060001D01*
G01*
X96420000Y-131975000D02*
G75*
G03*
X97480000Y-130915000I-1J1060001D01*
G01*
%TO.C,D1*%
X118970000Y-198530000D02*
X118970000Y-198860000D01*
X113530000Y-198530000D02*
X118970000Y-198530000D01*
X118970000Y-201470000D02*
X118970000Y-201140000D01*
X114550000Y-198530000D02*
X114550000Y-201470000D01*
X113530000Y-198860000D02*
X113530000Y-198530000D01*
X114310000Y-198530000D02*
X114310000Y-201470000D01*
X114430000Y-198530000D02*
X114430000Y-201470000D01*
X113530000Y-201140000D02*
X113530000Y-201470000D01*
X113530000Y-201470000D02*
X118970000Y-201470000D01*
%TO.C,R37*%
X92754724Y-195522500D02*
X92245276Y-195522500D01*
X92754724Y-194477500D02*
X92245276Y-194477500D01*
%TO.C,C19*%
X116035000Y-235260000D02*
X112985000Y-235260000D01*
X114970563Y-226740000D02*
X116035000Y-227804437D01*
X114485000Y-226000000D02*
X113485000Y-226000000D01*
X108579437Y-226740000D02*
X107515000Y-227804437D01*
X108579437Y-226740000D02*
X110565000Y-226740000D01*
X107515000Y-235260000D02*
X110565000Y-235260000D01*
X107515000Y-227804437D02*
X107515000Y-235260000D01*
X113985000Y-225500000D02*
X113985000Y-226500000D01*
X114970563Y-226740000D02*
X112985000Y-226740000D01*
X116035000Y-227804437D02*
X116035000Y-235260000D01*
%TO.C,R21*%
X102254724Y-98727500D02*
X101745276Y-98727500D01*
X102254724Y-99772500D02*
X101745276Y-99772500D01*
%TO.C,R2*%
X101745276Y-94790147D02*
X102254724Y-94790147D01*
X101745276Y-95835147D02*
X102254724Y-95835147D01*
%TO.C,R8*%
X101745276Y-91835147D02*
X102254724Y-91835147D01*
X101745276Y-90790147D02*
X102254724Y-90790147D01*
%TO.C,U3*%
X112750000Y-103810000D02*
X116200000Y-103810000D01*
X112750000Y-98690000D02*
X114700000Y-98690000D01*
X112750000Y-98690000D02*
X110800000Y-98690000D01*
X112750000Y-103810000D02*
X110800000Y-103810000D01*
%TO.C,R20*%
X102254724Y-100727500D02*
X101745276Y-100727500D01*
X102254724Y-101772500D02*
X101745276Y-101772500D01*
%TO.C,D2*%
X123780000Y-198200000D02*
X126720000Y-198200000D01*
X123780000Y-199220000D02*
X123780000Y-193780000D01*
X123780000Y-193780000D02*
X124110000Y-193780000D01*
X123780000Y-198320000D02*
X126720000Y-198320000D01*
X124110000Y-199220000D02*
X123780000Y-199220000D01*
X126720000Y-193780000D02*
X126390000Y-193780000D01*
X126390000Y-199220000D02*
X126720000Y-199220000D01*
X123780000Y-198440000D02*
X126720000Y-198440000D01*
X126720000Y-199220000D02*
X126720000Y-193780000D01*
%TO.C,Q2*%
X117975000Y-157810000D02*
X117975000Y-159660000D01*
X116925000Y-157810000D02*
X117975000Y-157810000D01*
X114915000Y-157830000D02*
X114915000Y-160260000D01*
X114925000Y-157810000D02*
X115925000Y-157810000D01*
%TO.C,C2*%
X123510000Y-213396267D02*
X123510000Y-213103733D01*
X122490000Y-213396267D02*
X122490000Y-213103733D01*
%TO.C,J17*%
X132350000Y-78390000D02*
X132650000Y-78940000D01*
X137500000Y-78890000D02*
X137750000Y-78390000D01*
X130600000Y-78940000D02*
X130900000Y-78390000D01*
X132650000Y-78940000D02*
X130600000Y-78940000D01*
X142550000Y-78890000D02*
X137500000Y-78890000D01*
X142550000Y-58090000D02*
X142550000Y-78890000D01*
X129950000Y-58090000D02*
X142550000Y-58090000D01*
X130900000Y-78390000D02*
X129950000Y-78390000D01*
X129950000Y-78390000D02*
X129950000Y-58090000D01*
X137750000Y-78390000D02*
X132350000Y-78390000D01*
%TO.C,R5*%
X101495276Y-53335147D02*
X102004724Y-53335147D01*
X101495276Y-52290147D02*
X102004724Y-52290147D01*
%TO.C,Q1*%
X122915000Y-167820000D02*
X122915000Y-170250000D01*
X125975000Y-167800000D02*
X125975000Y-169650000D01*
X122925000Y-167800000D02*
X123925000Y-167800000D01*
X124925000Y-167800000D02*
X125975000Y-167800000D01*
%TO.C,J11*%
X132350000Y-164650000D02*
X132650000Y-165200000D01*
X142550000Y-165150000D02*
X137500000Y-165150000D01*
X130600000Y-165200000D02*
X130900000Y-164650000D01*
X129950000Y-164650000D02*
X129950000Y-144350000D01*
X130900000Y-164650000D02*
X129950000Y-164650000D01*
X137500000Y-165150000D02*
X137750000Y-164650000D01*
X137750000Y-164650000D02*
X132350000Y-164650000D01*
X142550000Y-144350000D02*
X142550000Y-165150000D01*
X129950000Y-144350000D02*
X142550000Y-144350000D01*
X132650000Y-165200000D02*
X130600000Y-165200000D01*
%TO.C,R38*%
X109004724Y-49335147D02*
X108495276Y-49335147D01*
X109004724Y-48290147D02*
X108495276Y-48290147D01*
%TO.C,R15*%
X101495276Y-41335147D02*
X102004724Y-41335147D01*
X101495276Y-40290147D02*
X102004724Y-40290147D01*
%TO.C,R33*%
X92754724Y-196477500D02*
X92245276Y-196477500D01*
X92754724Y-197522500D02*
X92245276Y-197522500D01*
%TO.C,R6*%
X101495276Y-55335147D02*
X102004724Y-55335147D01*
X101495276Y-54290147D02*
X102004724Y-54290147D01*
%TO.C,R3*%
X101582776Y-77790147D02*
X102092224Y-77790147D01*
X101582776Y-78835147D02*
X102092224Y-78835147D01*
%TO.C,R36*%
X92754724Y-199522500D02*
X92245276Y-199522500D01*
X92754724Y-198477500D02*
X92245276Y-198477500D01*
%TO.C,R34*%
X92754724Y-207522500D02*
X92245276Y-207522500D01*
X92754724Y-206477500D02*
X92245276Y-206477500D01*
%TO.C,R45*%
X112977500Y-73057923D02*
X112977500Y-73567371D01*
X114022500Y-73057923D02*
X114022500Y-73567371D01*
%TO.C,C11*%
X106010000Y-206195563D02*
X106010000Y-204210000D01*
X106010000Y-199804437D02*
X104945563Y-198740000D01*
X106750000Y-205710000D02*
X106750000Y-204710000D01*
X97490000Y-207260000D02*
X97490000Y-204210000D01*
X106010000Y-199804437D02*
X106010000Y-201790000D01*
X107250000Y-205210000D02*
X106250000Y-205210000D01*
X106010000Y-206195563D02*
X104945563Y-207260000D01*
X104945563Y-198740000D02*
X97490000Y-198740000D01*
X97490000Y-198740000D02*
X97490000Y-201790000D01*
X104945563Y-207260000D02*
X97490000Y-207260000D01*
%TO.C,J3*%
X91015000Y-59247647D02*
X85255000Y-59247647D01*
X92535000Y-59247647D02*
X92845000Y-59247647D01*
X92845000Y-40377647D02*
X92535000Y-40377647D01*
X85255000Y-57827647D02*
X85755000Y-57827647D01*
X85255000Y-59247647D02*
X85255000Y-57827647D01*
X85255000Y-40377647D02*
X91015000Y-40377647D01*
X85755000Y-57827647D02*
X85755000Y-41797647D01*
X92845000Y-59247647D02*
X92845000Y-40377647D01*
X85255000Y-41797647D02*
X85255000Y-40377647D01*
X85755000Y-41797647D02*
X85255000Y-41797647D01*
%TO.C,R1*%
X101745276Y-96790147D02*
X102254724Y-96790147D01*
X101745276Y-97835147D02*
X102254724Y-97835147D01*
%TO.C,R12*%
X101495276Y-50290147D02*
X102004724Y-50290147D01*
X101495276Y-51335147D02*
X102004724Y-51335147D01*
%TO.C,R42*%
X111022500Y-74970423D02*
X111022500Y-75479871D01*
X109977500Y-74970423D02*
X109977500Y-75479871D01*
%TO.C,R27*%
X92754724Y-208477500D02*
X92245276Y-208477500D01*
X92754724Y-209522500D02*
X92245276Y-209522500D01*
%TO.C,R30*%
X92754724Y-204477500D02*
X92245276Y-204477500D01*
X92754724Y-205522500D02*
X92245276Y-205522500D01*
%TO.C,J8*%
X87750000Y-186665000D02*
X92830000Y-186665000D01*
X87750000Y-187675000D02*
X87750000Y-186665000D01*
X86400000Y-187775000D02*
X86400000Y-181725000D01*
X92830000Y-186665000D02*
X92830000Y-187675000D01*
X86400000Y-181725000D02*
X94200000Y-181725000D01*
X94200000Y-181725000D02*
X94200000Y-187775000D01*
X94200000Y-187775000D02*
X86400000Y-187775000D01*
%TO.C,R35*%
X92754724Y-202477500D02*
X92245276Y-202477500D01*
X92754724Y-203522500D02*
X92245276Y-203522500D01*
%TO.C,R22*%
X124727500Y-218754724D02*
X124727500Y-218245276D01*
X125772500Y-218754724D02*
X125772500Y-218245276D01*
%TO.C,J9*%
X128540000Y-206410000D02*
X130240000Y-207710000D01*
X130240000Y-202290000D02*
X138960000Y-202290000D01*
X130240000Y-207710000D02*
X138960000Y-207710000D01*
X128540000Y-203590000D02*
X130240000Y-202290000D01*
X128540000Y-203590000D02*
X128540000Y-206410000D01*
X138960000Y-202290000D02*
X138960000Y-207710000D01*
%TO.C,J18*%
X129950000Y-143140000D02*
X129950000Y-122840000D01*
X130600000Y-143690000D02*
X130900000Y-143140000D01*
X132350000Y-143140000D02*
X132650000Y-143690000D01*
X130900000Y-143140000D02*
X129950000Y-143140000D01*
X137750000Y-143140000D02*
X132350000Y-143140000D01*
X142550000Y-143640000D02*
X137500000Y-143640000D01*
X137500000Y-143640000D02*
X137750000Y-143140000D01*
X132650000Y-143690000D02*
X130600000Y-143690000D01*
X142550000Y-122840000D02*
X142550000Y-143640000D01*
X129950000Y-122840000D02*
X142550000Y-122840000D01*
%TO.C,R13*%
X101495276Y-45335147D02*
X102004724Y-45335147D01*
X101495276Y-44290147D02*
X102004724Y-44290147D01*
%TO.C,R46*%
X116504724Y-163237500D02*
X115995276Y-163237500D01*
X116504724Y-164282500D02*
X115995276Y-164282500D01*
%TD*%
M02*
