%TF.GenerationSoftware,KiCad,Pcbnew,(6.0.0)*%
%TF.CreationDate,2022-04-21T19:53:10+02:00*%
%TF.ProjectId,KallebolFanoutBoard,4b616c6c-6562-46f6-9c46-616e6f757442,rev?*%
%TF.SameCoordinates,Original*%
%TF.FileFunction,Soldermask,Top*%
%TF.FilePolarity,Negative*%
%FSLAX46Y46*%
G04 Gerber Fmt 4.6, Leading zero omitted, Abs format (unit mm)*
G04 Created by KiCad (PCBNEW (6.0.0)) date 2022-04-21 19:53:10*
%MOMM*%
%LPD*%
G01*
G04 APERTURE LIST*
G04 Aperture macros list*
%AMRoundRect*
0 Rectangle with rounded corners*
0 $1 Rounding radius*
0 $2 $3 $4 $5 $6 $7 $8 $9 X,Y pos of 4 corners*
0 Add a 4 corners polygon primitive as box body*
4,1,4,$2,$3,$4,$5,$6,$7,$8,$9,$2,$3,0*
0 Add four circle primitives for the rounded corners*
1,1,$1+$1,$2,$3*
1,1,$1+$1,$4,$5*
1,1,$1+$1,$6,$7*
1,1,$1+$1,$8,$9*
0 Add four rect primitives between the rounded corners*
20,1,$1+$1,$2,$3,$4,$5,0*
20,1,$1+$1,$4,$5,$6,$7,0*
20,1,$1+$1,$6,$7,$8,$9,0*
20,1,$1+$1,$8,$9,$2,$3,0*%
G04 Aperture macros list end*
%ADD10RoundRect,0.237500X-0.250000X-0.237500X0.250000X-0.237500X0.250000X0.237500X-0.250000X0.237500X0*%
%ADD11RoundRect,0.237500X0.250000X0.237500X-0.250000X0.237500X-0.250000X-0.237500X0.250000X-0.237500X0*%
%ADD12R,3.960000X1.980000*%
%ADD13O,3.960000X1.980000*%
%ADD14RoundRect,0.237500X-0.237500X0.250000X-0.237500X-0.250000X0.237500X-0.250000X0.237500X0.250000X0*%
%ADD15RoundRect,0.237500X0.300000X0.237500X-0.300000X0.237500X-0.300000X-0.237500X0.300000X-0.237500X0*%
%ADD16RoundRect,0.150000X0.150000X-0.825000X0.150000X0.825000X-0.150000X0.825000X-0.150000X-0.825000X0*%
%ADD17RoundRect,0.250000X1.825000X0.700000X-1.825000X0.700000X-1.825000X-0.700000X1.825000X-0.700000X0*%
%ADD18R,2.200000X1.200000*%
%ADD19R,6.400000X5.800000*%
%ADD20RoundRect,0.237500X0.237500X-0.250000X0.237500X0.250000X-0.237500X0.250000X-0.237500X-0.250000X0*%
%ADD21C,0.800000*%
%ADD22C,6.400000*%
%ADD23RoundRect,0.237500X-0.237500X0.300000X-0.237500X-0.300000X0.237500X-0.300000X0.237500X0.300000X0*%
%ADD24C,1.000000*%
%ADD25RoundRect,0.250001X0.499999X-0.499999X0.499999X0.499999X-0.499999X0.499999X-0.499999X-0.499999X0*%
%ADD26C,1.500000*%
%ADD27RoundRect,0.237500X-0.300000X-0.237500X0.300000X-0.237500X0.300000X0.237500X-0.300000X0.237500X0*%
%ADD28O,2.500000X1.600000*%
%ADD29O,7.000000X3.500000*%
%ADD30R,2.000000X1.500000*%
%ADD31R,2.000000X3.800000*%
%ADD32C,4.000000*%
%ADD33R,1.600000X1.600000*%
%ADD34C,1.600000*%
%ADD35R,1.700000X1.700000*%
%ADD36O,1.700000X1.700000*%
%ADD37RoundRect,0.100000X-0.637500X-0.100000X0.637500X-0.100000X0.637500X0.100000X-0.637500X0.100000X0*%
%ADD38RoundRect,0.237500X0.237500X-0.300000X0.237500X0.300000X-0.237500X0.300000X-0.237500X-0.300000X0*%
%ADD39C,0.900000*%
%ADD40C,8.600000*%
%ADD41R,1.800000X1.800000*%
%ADD42O,1.800000X1.800000*%
%ADD43RoundRect,0.250000X-0.700000X1.825000X-0.700000X-1.825000X0.700000X-1.825000X0.700000X1.825000X0*%
%ADD44RoundRect,0.150000X0.725000X0.150000X-0.725000X0.150000X-0.725000X-0.150000X0.725000X-0.150000X0*%
%ADD45R,0.650000X2.000000*%
%ADD46R,1.730000X2.030000*%
%ADD47O,1.730000X2.030000*%
%ADD48R,3.800000X3.800000*%
G04 APERTURE END LIST*
D10*
%TO.C,R11*%
X100837500Y-48812647D03*
X102662500Y-48812647D03*
%TD*%
D11*
%TO.C,R41*%
X109662500Y-50812647D03*
X107837500Y-50812647D03*
%TD*%
D12*
%TO.C,J4*%
X89250000Y-142000000D03*
D13*
X89250000Y-137000000D03*
%TD*%
D14*
%TO.C,R44*%
X107500000Y-76400147D03*
X107500000Y-78225147D03*
%TD*%
%TO.C,R29*%
X120425000Y-150347500D03*
X120425000Y-152172500D03*
%TD*%
D15*
%TO.C,C17*%
X102612500Y-178500000D03*
X100887500Y-178500000D03*
%TD*%
D10*
%TO.C,R16*%
X100750000Y-42812647D03*
X102575000Y-42812647D03*
%TD*%
%TO.C,R19*%
X121587500Y-224750000D03*
X123412500Y-224750000D03*
%TD*%
%TO.C,R7*%
X101087500Y-93312647D03*
X102912500Y-93312647D03*
%TD*%
D14*
%TO.C,R40*%
X105000000Y-78400147D03*
X105000000Y-80225147D03*
%TD*%
D16*
%TO.C,U6*%
X114345000Y-195475000D03*
X115615000Y-195475000D03*
X116885000Y-195475000D03*
X118155000Y-195475000D03*
X118155000Y-190525000D03*
X116885000Y-190525000D03*
X115615000Y-190525000D03*
X114345000Y-190525000D03*
%TD*%
D12*
%TO.C,J15*%
X136250000Y-39240000D03*
D13*
X136250000Y-44240000D03*
X136250000Y-49240000D03*
X136250000Y-54240000D03*
%TD*%
D10*
%TO.C,R14*%
X100837500Y-46812647D03*
X102662500Y-46812647D03*
%TD*%
D17*
%TO.C,C12*%
X105225000Y-222000000D03*
X98275000Y-222000000D03*
%TD*%
D16*
%TO.C,U5*%
X113520000Y-153735000D03*
X114790000Y-153735000D03*
X116060000Y-153735000D03*
X117330000Y-153735000D03*
X117330000Y-148785000D03*
X116060000Y-148785000D03*
X114790000Y-148785000D03*
X113520000Y-148785000D03*
%TD*%
D12*
%TO.C,J16*%
X136250000Y-82490000D03*
D13*
X136250000Y-87490000D03*
X136250000Y-92490000D03*
X136250000Y-97490000D03*
%TD*%
D17*
%TO.C,C13*%
X105225000Y-212500000D03*
X98275000Y-212500000D03*
%TD*%
D18*
%TO.C,U2*%
X119450000Y-221780000D03*
D19*
X113150000Y-219500000D03*
D18*
X119450000Y-217220000D03*
%TD*%
D14*
%TO.C,R28*%
X127750000Y-160337500D03*
X127750000Y-162162500D03*
%TD*%
%TO.C,R26*%
X113425000Y-156847500D03*
X113425000Y-158672500D03*
%TD*%
D10*
%TO.C,R10*%
X100925000Y-72312647D03*
X102750000Y-72312647D03*
%TD*%
D20*
%TO.C,R23*%
X113250000Y-162662500D03*
X113250000Y-160837500D03*
%TD*%
D21*
%TO.C,H6*%
X96052944Y-231302944D03*
X97750000Y-230600000D03*
D22*
X97750000Y-233000000D03*
D21*
X96052944Y-234697056D03*
X97750000Y-235400000D03*
X99447056Y-234697056D03*
X99447056Y-231302944D03*
X95350000Y-233000000D03*
X100150000Y-233000000D03*
%TD*%
D23*
%TO.C,C7*%
X94000000Y-211387500D03*
X94000000Y-213112500D03*
%TD*%
D20*
%TO.C,R24*%
X123425000Y-174662500D03*
X123425000Y-172837500D03*
%TD*%
D10*
%TO.C,R9*%
X100925000Y-74312647D03*
X102750000Y-74312647D03*
%TD*%
D24*
%TO.C,J1*%
X91690000Y-97312647D03*
X91690000Y-82312647D03*
D25*
X87750000Y-94312647D03*
D26*
X87750000Y-91312647D03*
X87750000Y-88312647D03*
X87750000Y-85312647D03*
X90750000Y-94312647D03*
X90750000Y-91312647D03*
X90750000Y-88312647D03*
X90750000Y-85312647D03*
%TD*%
D27*
%TO.C,C5*%
X117887500Y-227750000D03*
X119612500Y-227750000D03*
%TD*%
D10*
%TO.C,R31*%
X120750000Y-204500000D03*
X122575000Y-204500000D03*
%TD*%
D11*
%TO.C,R17*%
X102912500Y-103250000D03*
X101087500Y-103250000D03*
%TD*%
%TO.C,R32*%
X93412500Y-201000000D03*
X91587500Y-201000000D03*
%TD*%
D21*
%TO.C,H7*%
X125350000Y-233000000D03*
X130150000Y-233000000D03*
X127750000Y-235400000D03*
D22*
X127750000Y-233000000D03*
D21*
X127750000Y-230600000D03*
X129447056Y-231302944D03*
X129447056Y-234697056D03*
X126052944Y-234697056D03*
X126052944Y-231302944D03*
%TD*%
%TO.C,H5*%
X129447056Y-28802944D03*
D22*
X127750000Y-30500000D03*
D21*
X129447056Y-32197056D03*
X125350000Y-30500000D03*
X127750000Y-28100000D03*
X130150000Y-30500000D03*
X126052944Y-28802944D03*
X127750000Y-32900000D03*
X126052944Y-32197056D03*
%TD*%
D14*
%TO.C,R25*%
X121425000Y-166750000D03*
X121425000Y-168575000D03*
%TD*%
D28*
%TO.C,J7*%
X129450000Y-219500000D03*
X129450000Y-216960000D03*
D29*
X134530000Y-214420000D03*
X134530000Y-224580000D03*
%TD*%
D11*
%TO.C,R43*%
X109662500Y-46812647D03*
X107837500Y-46812647D03*
%TD*%
D30*
%TO.C,U1*%
X111600000Y-207200000D03*
X111600000Y-209500000D03*
D31*
X117900000Y-209500000D03*
D30*
X111600000Y-211800000D03*
%TD*%
D24*
%TO.C,J2*%
X91775000Y-63312647D03*
X91775000Y-78312647D03*
D25*
X87835000Y-75312647D03*
D26*
X87835000Y-72312647D03*
X87835000Y-69312647D03*
X87835000Y-66312647D03*
X90835000Y-75312647D03*
X90835000Y-72312647D03*
X90835000Y-69312647D03*
X90835000Y-66312647D03*
%TD*%
D32*
%TO.C,J5*%
X90920000Y-150540000D03*
X90920000Y-175540000D03*
D33*
X89500000Y-157500000D03*
D34*
X89500000Y-160270000D03*
X89500000Y-163040000D03*
X89500000Y-165810000D03*
X89500000Y-168580000D03*
X92340000Y-158885000D03*
X92340000Y-161655000D03*
X92340000Y-164425000D03*
X92340000Y-167195000D03*
%TD*%
D12*
%TO.C,J14*%
X136250000Y-168500000D03*
D13*
X136250000Y-173500000D03*
X136250000Y-178500000D03*
X136250000Y-183500000D03*
%TD*%
D12*
%TO.C,J12*%
X136250000Y-190000000D03*
D13*
X136250000Y-195000000D03*
%TD*%
D11*
%TO.C,R39*%
X109662500Y-44812647D03*
X107837500Y-44812647D03*
%TD*%
D15*
%TO.C,C16*%
X113362500Y-95250000D03*
X111637500Y-95250000D03*
%TD*%
D16*
%TO.C,U4*%
X121020000Y-163725000D03*
X122290000Y-163725000D03*
X123560000Y-163725000D03*
X124830000Y-163725000D03*
X124830000Y-158775000D03*
X123560000Y-158775000D03*
X122290000Y-158775000D03*
X121020000Y-158775000D03*
%TD*%
D35*
%TO.C,J10*%
X87250000Y-195075000D03*
D36*
X87250000Y-197615000D03*
X87250000Y-200155000D03*
X87250000Y-202695000D03*
X87250000Y-205235000D03*
X87250000Y-207775000D03*
X87250000Y-210315000D03*
X87250000Y-212855000D03*
X87250000Y-215395000D03*
X87250000Y-217935000D03*
%TD*%
D37*
%TO.C,U8*%
X109637500Y-86237647D03*
X109637500Y-86887647D03*
X109637500Y-87537647D03*
X109637500Y-88187647D03*
X109637500Y-88837647D03*
X109637500Y-89487647D03*
X109637500Y-90137647D03*
X109637500Y-90787647D03*
X109637500Y-91437647D03*
X109637500Y-92087647D03*
X109637500Y-92737647D03*
X109637500Y-93387647D03*
X115362500Y-93387647D03*
X115362500Y-92737647D03*
X115362500Y-92087647D03*
X115362500Y-91437647D03*
X115362500Y-90787647D03*
X115362500Y-90137647D03*
X115362500Y-89487647D03*
X115362500Y-88837647D03*
X115362500Y-88187647D03*
X115362500Y-87537647D03*
X115362500Y-86887647D03*
X115362500Y-86237647D03*
%TD*%
D38*
%TO.C,C3*%
X120750000Y-214112500D03*
X120750000Y-212387500D03*
%TD*%
D17*
%TO.C,C14*%
X105250000Y-193500000D03*
X98300000Y-193500000D03*
%TD*%
D27*
%TO.C,C1*%
X111387500Y-203500000D03*
X113112500Y-203500000D03*
%TD*%
D10*
%TO.C,R4*%
X100925000Y-76312647D03*
X102750000Y-76312647D03*
%TD*%
D39*
%TO.C,H1*%
X91475000Y-233000000D03*
X85025000Y-233000000D03*
D40*
X88250000Y-233000000D03*
D39*
X90530419Y-230719581D03*
X88250000Y-236225000D03*
X90530419Y-235280419D03*
X85969581Y-230719581D03*
X88250000Y-229775000D03*
X85969581Y-235280419D03*
%TD*%
D10*
%TO.C,R18*%
X117837500Y-224750000D03*
X119662500Y-224750000D03*
%TD*%
D37*
%TO.C,U7*%
X98137500Y-181475000D03*
X98137500Y-182125000D03*
X98137500Y-182775000D03*
X98137500Y-183425000D03*
X98137500Y-184075000D03*
X98137500Y-184725000D03*
X98137500Y-185375000D03*
X98137500Y-186025000D03*
X103862500Y-186025000D03*
X103862500Y-185375000D03*
X103862500Y-184725000D03*
X103862500Y-184075000D03*
X103862500Y-183425000D03*
X103862500Y-182775000D03*
X103862500Y-182125000D03*
X103862500Y-181475000D03*
%TD*%
D39*
%TO.C,H2*%
X134025000Y-233000000D03*
X137250000Y-229775000D03*
X139530419Y-235280419D03*
X139530419Y-230719581D03*
D40*
X137250000Y-233000000D03*
D39*
X134969581Y-230719581D03*
X137250000Y-236225000D03*
X140475000Y-233000000D03*
X134969581Y-235280419D03*
%TD*%
D27*
%TO.C,C4*%
X110387500Y-105250000D03*
X112112500Y-105250000D03*
%TD*%
D39*
%TO.C,H3*%
X90530419Y-32780419D03*
X85969581Y-32780419D03*
X91475000Y-30500000D03*
X85969581Y-28219581D03*
X90530419Y-28219581D03*
X88250000Y-33725000D03*
X85025000Y-30500000D03*
D40*
X88250000Y-30500000D03*
D39*
X88250000Y-27275000D03*
%TD*%
D12*
%TO.C,J13*%
X136250000Y-104000000D03*
D13*
X136250000Y-109000000D03*
X136250000Y-114000000D03*
X136250000Y-119000000D03*
%TD*%
D14*
%TO.C,R47*%
X125425000Y-172837500D03*
X125425000Y-174662500D03*
%TD*%
D23*
%TO.C,C15*%
X91750000Y-211387500D03*
X91750000Y-213112500D03*
%TD*%
%TO.C,C18*%
X105000000Y-83137500D03*
X105000000Y-84862500D03*
%TD*%
%TO.C,C9*%
X99250000Y-138637500D03*
X99250000Y-140362500D03*
%TD*%
D32*
%TO.C,J6*%
X91170000Y-128990000D03*
X91170000Y-103990000D03*
D33*
X89750000Y-110950000D03*
D34*
X89750000Y-113720000D03*
X89750000Y-116490000D03*
X89750000Y-119260000D03*
X89750000Y-122030000D03*
X92590000Y-112335000D03*
X92590000Y-115105000D03*
X92590000Y-117875000D03*
X92590000Y-120645000D03*
%TD*%
D41*
%TO.C,D1*%
X112440000Y-200000000D03*
D42*
X120060000Y-200000000D03*
%TD*%
D11*
%TO.C,R37*%
X93412500Y-195000000D03*
X91587500Y-195000000D03*
%TD*%
D43*
%TO.C,C19*%
X111775000Y-227525000D03*
X111775000Y-234475000D03*
%TD*%
D21*
%TO.C,H8*%
X95350000Y-30500000D03*
X97750000Y-32900000D03*
X99447056Y-32197056D03*
X97750000Y-28100000D03*
D22*
X97750000Y-30500000D03*
D21*
X99447056Y-28802944D03*
X100150000Y-30500000D03*
X96052944Y-32197056D03*
X96052944Y-28802944D03*
%TD*%
D39*
%TO.C,H4*%
X139530419Y-28219581D03*
X140475000Y-30500000D03*
D40*
X137250000Y-30500000D03*
D39*
X137250000Y-33725000D03*
X137250000Y-27275000D03*
X139530419Y-32780419D03*
X134969581Y-32780419D03*
X134025000Y-30500000D03*
X134969581Y-28219581D03*
%TD*%
D11*
%TO.C,R21*%
X102912500Y-99250000D03*
X101087500Y-99250000D03*
%TD*%
D10*
%TO.C,R2*%
X101087500Y-95312647D03*
X102912500Y-95312647D03*
%TD*%
%TO.C,R8*%
X101087500Y-91312647D03*
X102912500Y-91312647D03*
%TD*%
D44*
%TO.C,U3*%
X115325000Y-103155000D03*
X115325000Y-101885000D03*
X115325000Y-100615000D03*
X115325000Y-99345000D03*
X110175000Y-99345000D03*
X110175000Y-100615000D03*
X110175000Y-101885000D03*
X110175000Y-103155000D03*
%TD*%
D11*
%TO.C,R20*%
X102912500Y-101250000D03*
X101087500Y-101250000D03*
%TD*%
D41*
%TO.C,D2*%
X125250000Y-200310000D03*
D42*
X125250000Y-192690000D03*
%TD*%
D45*
%TO.C,Q2*%
X115475000Y-160470000D03*
X117375000Y-160470000D03*
X116425000Y-157050000D03*
%TD*%
D38*
%TO.C,C2*%
X123000000Y-214112500D03*
X123000000Y-212387500D03*
%TD*%
D12*
%TO.C,J17*%
X136250000Y-60740000D03*
D13*
X136250000Y-65740000D03*
X136250000Y-70740000D03*
X136250000Y-75740000D03*
%TD*%
D10*
%TO.C,R5*%
X100837500Y-52812647D03*
X102662500Y-52812647D03*
%TD*%
D45*
%TO.C,Q1*%
X123475000Y-170460000D03*
X125375000Y-170460000D03*
X124425000Y-167040000D03*
%TD*%
D12*
%TO.C,J11*%
X136250000Y-147000000D03*
D13*
X136250000Y-152000000D03*
X136250000Y-157000000D03*
X136250000Y-162000000D03*
%TD*%
D11*
%TO.C,R38*%
X109662500Y-48812647D03*
X107837500Y-48812647D03*
%TD*%
D10*
%TO.C,R15*%
X100837500Y-40812647D03*
X102662500Y-40812647D03*
%TD*%
D11*
%TO.C,R33*%
X93412500Y-197000000D03*
X91587500Y-197000000D03*
%TD*%
D10*
%TO.C,R6*%
X100837500Y-54812647D03*
X102662500Y-54812647D03*
%TD*%
%TO.C,R3*%
X100925000Y-78312647D03*
X102750000Y-78312647D03*
%TD*%
D11*
%TO.C,R36*%
X93412500Y-199000000D03*
X91587500Y-199000000D03*
%TD*%
%TO.C,R34*%
X93412500Y-207000000D03*
X91587500Y-207000000D03*
%TD*%
D14*
%TO.C,R45*%
X113500000Y-72400147D03*
X113500000Y-74225147D03*
%TD*%
D17*
%TO.C,C11*%
X105225000Y-203000000D03*
X98275000Y-203000000D03*
%TD*%
D24*
%TO.C,J3*%
X91775000Y-58812647D03*
X91775000Y-40812647D03*
D25*
X87835000Y-55812647D03*
D26*
X87835000Y-52812647D03*
X87835000Y-49812647D03*
X87835000Y-46812647D03*
X87835000Y-43812647D03*
X90835000Y-55812647D03*
X90835000Y-52812647D03*
X90835000Y-49812647D03*
X90835000Y-46812647D03*
X90835000Y-43812647D03*
%TD*%
D10*
%TO.C,R1*%
X101087500Y-97312647D03*
X102912500Y-97312647D03*
%TD*%
%TO.C,R12*%
X100837500Y-50812647D03*
X102662500Y-50812647D03*
%TD*%
D14*
%TO.C,R42*%
X110500000Y-74312647D03*
X110500000Y-76137647D03*
%TD*%
D11*
%TO.C,R27*%
X93412500Y-209000000D03*
X91587500Y-209000000D03*
%TD*%
%TO.C,R30*%
X93412500Y-205000000D03*
X91587500Y-205000000D03*
%TD*%
D46*
%TO.C,J8*%
X87750000Y-184375000D03*
D47*
X90290000Y-184375000D03*
X92830000Y-184375000D03*
%TD*%
D11*
%TO.C,R35*%
X93412500Y-203000000D03*
X91587500Y-203000000D03*
%TD*%
D20*
%TO.C,R22*%
X125250000Y-219412500D03*
X125250000Y-217587500D03*
%TD*%
D48*
%TO.C,J9*%
X131250000Y-205000000D03*
D32*
X136250000Y-205000000D03*
%TD*%
D12*
%TO.C,J18*%
X136250000Y-125490000D03*
D13*
X136250000Y-130490000D03*
X136250000Y-135490000D03*
X136250000Y-140490000D03*
%TD*%
D10*
%TO.C,R13*%
X100837500Y-44812647D03*
X102662500Y-44812647D03*
%TD*%
D11*
%TO.C,R46*%
X117162500Y-163760000D03*
X115337500Y-163760000D03*
%TD*%
M02*
