%TF.GenerationSoftware,KiCad,Pcbnew,(6.0.0)*%
%TF.CreationDate,2022-04-21T19:53:10+02:00*%
%TF.ProjectId,KallebolFanoutBoard,4b616c6c-6562-46f6-9c46-616e6f757442,rev?*%
%TF.SameCoordinates,Original*%
%TF.FileFunction,Paste,Top*%
%TF.FilePolarity,Positive*%
%FSLAX46Y46*%
G04 Gerber Fmt 4.6, Leading zero omitted, Abs format (unit mm)*
G04 Created by KiCad (PCBNEW (6.0.0)) date 2022-04-21 19:53:10*
%MOMM*%
%LPD*%
G01*
G04 APERTURE LIST*
G04 Aperture macros list*
%AMRoundRect*
0 Rectangle with rounded corners*
0 $1 Rounding radius*
0 $2 $3 $4 $5 $6 $7 $8 $9 X,Y pos of 4 corners*
0 Add a 4 corners polygon primitive as box body*
4,1,4,$2,$3,$4,$5,$6,$7,$8,$9,$2,$3,0*
0 Add four circle primitives for the rounded corners*
1,1,$1+$1,$2,$3*
1,1,$1+$1,$4,$5*
1,1,$1+$1,$6,$7*
1,1,$1+$1,$8,$9*
0 Add four rect primitives between the rounded corners*
20,1,$1+$1,$2,$3,$4,$5,0*
20,1,$1+$1,$4,$5,$6,$7,0*
20,1,$1+$1,$6,$7,$8,$9,0*
20,1,$1+$1,$8,$9,$2,$3,0*%
G04 Aperture macros list end*
%ADD10RoundRect,0.237500X-0.250000X-0.237500X0.250000X-0.237500X0.250000X0.237500X-0.250000X0.237500X0*%
%ADD11RoundRect,0.237500X0.250000X0.237500X-0.250000X0.237500X-0.250000X-0.237500X0.250000X-0.237500X0*%
%ADD12RoundRect,0.237500X-0.237500X0.250000X-0.237500X-0.250000X0.237500X-0.250000X0.237500X0.250000X0*%
%ADD13RoundRect,0.237500X0.300000X0.237500X-0.300000X0.237500X-0.300000X-0.237500X0.300000X-0.237500X0*%
%ADD14RoundRect,0.150000X0.150000X-0.825000X0.150000X0.825000X-0.150000X0.825000X-0.150000X-0.825000X0*%
%ADD15RoundRect,0.250000X1.825000X0.700000X-1.825000X0.700000X-1.825000X-0.700000X1.825000X-0.700000X0*%
%ADD16R,3.050000X2.750000*%
%ADD17R,2.200000X1.200000*%
%ADD18RoundRect,0.237500X0.237500X-0.250000X0.237500X0.250000X-0.237500X0.250000X-0.237500X-0.250000X0*%
%ADD19RoundRect,0.237500X-0.237500X0.300000X-0.237500X-0.300000X0.237500X-0.300000X0.237500X0.300000X0*%
%ADD20RoundRect,0.237500X-0.300000X-0.237500X0.300000X-0.237500X0.300000X0.237500X-0.300000X0.237500X0*%
%ADD21R,2.000000X1.500000*%
%ADD22R,2.000000X3.800000*%
%ADD23RoundRect,0.100000X-0.637500X-0.100000X0.637500X-0.100000X0.637500X0.100000X-0.637500X0.100000X0*%
%ADD24RoundRect,0.237500X0.237500X-0.300000X0.237500X0.300000X-0.237500X0.300000X-0.237500X-0.300000X0*%
%ADD25RoundRect,0.250000X-0.700000X1.825000X-0.700000X-1.825000X0.700000X-1.825000X0.700000X1.825000X0*%
%ADD26RoundRect,0.150000X0.725000X0.150000X-0.725000X0.150000X-0.725000X-0.150000X0.725000X-0.150000X0*%
%ADD27R,0.650000X2.000000*%
G04 APERTURE END LIST*
D10*
%TO.C,R11*%
X100837500Y-48812647D03*
X102662500Y-48812647D03*
%TD*%
D11*
%TO.C,R41*%
X109662500Y-50812647D03*
X107837500Y-50812647D03*
%TD*%
D12*
%TO.C,R44*%
X107500000Y-76400147D03*
X107500000Y-78225147D03*
%TD*%
%TO.C,R29*%
X120425000Y-150347500D03*
X120425000Y-152172500D03*
%TD*%
D13*
%TO.C,C17*%
X102612500Y-178500000D03*
X100887500Y-178500000D03*
%TD*%
D10*
%TO.C,R16*%
X100750000Y-42812647D03*
X102575000Y-42812647D03*
%TD*%
%TO.C,R19*%
X121587500Y-224750000D03*
X123412500Y-224750000D03*
%TD*%
%TO.C,R7*%
X101087500Y-93312647D03*
X102912500Y-93312647D03*
%TD*%
D12*
%TO.C,R40*%
X105000000Y-78400147D03*
X105000000Y-80225147D03*
%TD*%
D14*
%TO.C,U6*%
X114345000Y-195475000D03*
X115615000Y-195475000D03*
X116885000Y-195475000D03*
X118155000Y-195475000D03*
X118155000Y-190525000D03*
X116885000Y-190525000D03*
X115615000Y-190525000D03*
X114345000Y-190525000D03*
%TD*%
D10*
%TO.C,R14*%
X100837500Y-46812647D03*
X102662500Y-46812647D03*
%TD*%
D15*
%TO.C,C12*%
X105225000Y-222000000D03*
X98275000Y-222000000D03*
%TD*%
D14*
%TO.C,U5*%
X113520000Y-153735000D03*
X114790000Y-153735000D03*
X116060000Y-153735000D03*
X117330000Y-153735000D03*
X117330000Y-148785000D03*
X116060000Y-148785000D03*
X114790000Y-148785000D03*
X113520000Y-148785000D03*
%TD*%
D15*
%TO.C,C13*%
X105225000Y-212500000D03*
X98275000Y-212500000D03*
%TD*%
D16*
%TO.C,U2*%
X111475000Y-217975000D03*
X114825000Y-217975000D03*
X114825000Y-221025000D03*
X111475000Y-221025000D03*
D17*
X119450000Y-221780000D03*
X119450000Y-217220000D03*
%TD*%
D12*
%TO.C,R28*%
X127750000Y-160337500D03*
X127750000Y-162162500D03*
%TD*%
%TO.C,R26*%
X113425000Y-156847500D03*
X113425000Y-158672500D03*
%TD*%
D10*
%TO.C,R10*%
X100925000Y-72312647D03*
X102750000Y-72312647D03*
%TD*%
D18*
%TO.C,R23*%
X113250000Y-162662500D03*
X113250000Y-160837500D03*
%TD*%
D19*
%TO.C,C7*%
X94000000Y-211387500D03*
X94000000Y-213112500D03*
%TD*%
D18*
%TO.C,R24*%
X123425000Y-174662500D03*
X123425000Y-172837500D03*
%TD*%
D10*
%TO.C,R9*%
X100925000Y-74312647D03*
X102750000Y-74312647D03*
%TD*%
D20*
%TO.C,C5*%
X117887500Y-227750000D03*
X119612500Y-227750000D03*
%TD*%
D10*
%TO.C,R31*%
X120750000Y-204500000D03*
X122575000Y-204500000D03*
%TD*%
D11*
%TO.C,R17*%
X102912500Y-103250000D03*
X101087500Y-103250000D03*
%TD*%
%TO.C,R32*%
X93412500Y-201000000D03*
X91587500Y-201000000D03*
%TD*%
D12*
%TO.C,R25*%
X121425000Y-166750000D03*
X121425000Y-168575000D03*
%TD*%
D11*
%TO.C,R43*%
X109662500Y-46812647D03*
X107837500Y-46812647D03*
%TD*%
D21*
%TO.C,U1*%
X111600000Y-207200000D03*
X111600000Y-209500000D03*
D22*
X117900000Y-209500000D03*
D21*
X111600000Y-211800000D03*
%TD*%
D11*
%TO.C,R39*%
X109662500Y-44812647D03*
X107837500Y-44812647D03*
%TD*%
D13*
%TO.C,C16*%
X113362500Y-95250000D03*
X111637500Y-95250000D03*
%TD*%
D14*
%TO.C,U4*%
X121020000Y-163725000D03*
X122290000Y-163725000D03*
X123560000Y-163725000D03*
X124830000Y-163725000D03*
X124830000Y-158775000D03*
X123560000Y-158775000D03*
X122290000Y-158775000D03*
X121020000Y-158775000D03*
%TD*%
D23*
%TO.C,U8*%
X109637500Y-86237647D03*
X109637500Y-86887647D03*
X109637500Y-87537647D03*
X109637500Y-88187647D03*
X109637500Y-88837647D03*
X109637500Y-89487647D03*
X109637500Y-90137647D03*
X109637500Y-90787647D03*
X109637500Y-91437647D03*
X109637500Y-92087647D03*
X109637500Y-92737647D03*
X109637500Y-93387647D03*
X115362500Y-93387647D03*
X115362500Y-92737647D03*
X115362500Y-92087647D03*
X115362500Y-91437647D03*
X115362500Y-90787647D03*
X115362500Y-90137647D03*
X115362500Y-89487647D03*
X115362500Y-88837647D03*
X115362500Y-88187647D03*
X115362500Y-87537647D03*
X115362500Y-86887647D03*
X115362500Y-86237647D03*
%TD*%
D24*
%TO.C,C3*%
X120750000Y-214112500D03*
X120750000Y-212387500D03*
%TD*%
D15*
%TO.C,C14*%
X105250000Y-193500000D03*
X98300000Y-193500000D03*
%TD*%
D20*
%TO.C,C1*%
X111387500Y-203500000D03*
X113112500Y-203500000D03*
%TD*%
D10*
%TO.C,R4*%
X100925000Y-76312647D03*
X102750000Y-76312647D03*
%TD*%
%TO.C,R18*%
X117837500Y-224750000D03*
X119662500Y-224750000D03*
%TD*%
D23*
%TO.C,U7*%
X98137500Y-181475000D03*
X98137500Y-182125000D03*
X98137500Y-182775000D03*
X98137500Y-183425000D03*
X98137500Y-184075000D03*
X98137500Y-184725000D03*
X98137500Y-185375000D03*
X98137500Y-186025000D03*
X103862500Y-186025000D03*
X103862500Y-185375000D03*
X103862500Y-184725000D03*
X103862500Y-184075000D03*
X103862500Y-183425000D03*
X103862500Y-182775000D03*
X103862500Y-182125000D03*
X103862500Y-181475000D03*
%TD*%
D20*
%TO.C,C4*%
X110387500Y-105250000D03*
X112112500Y-105250000D03*
%TD*%
D12*
%TO.C,R47*%
X125425000Y-172837500D03*
X125425000Y-174662500D03*
%TD*%
D19*
%TO.C,C15*%
X91750000Y-211387500D03*
X91750000Y-213112500D03*
%TD*%
%TO.C,C18*%
X105000000Y-83137500D03*
X105000000Y-84862500D03*
%TD*%
%TO.C,C9*%
X99250000Y-138637500D03*
X99250000Y-140362500D03*
%TD*%
D11*
%TO.C,R37*%
X93412500Y-195000000D03*
X91587500Y-195000000D03*
%TD*%
D25*
%TO.C,C19*%
X111775000Y-227525000D03*
X111775000Y-234475000D03*
%TD*%
D11*
%TO.C,R21*%
X102912500Y-99250000D03*
X101087500Y-99250000D03*
%TD*%
D10*
%TO.C,R2*%
X101087500Y-95312647D03*
X102912500Y-95312647D03*
%TD*%
%TO.C,R8*%
X101087500Y-91312647D03*
X102912500Y-91312647D03*
%TD*%
D26*
%TO.C,U3*%
X115325000Y-103155000D03*
X115325000Y-101885000D03*
X115325000Y-100615000D03*
X115325000Y-99345000D03*
X110175000Y-99345000D03*
X110175000Y-100615000D03*
X110175000Y-101885000D03*
X110175000Y-103155000D03*
%TD*%
D11*
%TO.C,R20*%
X102912500Y-101250000D03*
X101087500Y-101250000D03*
%TD*%
D27*
%TO.C,Q2*%
X115475000Y-160470000D03*
X117375000Y-160470000D03*
X116425000Y-157050000D03*
%TD*%
D24*
%TO.C,C2*%
X123000000Y-214112500D03*
X123000000Y-212387500D03*
%TD*%
D10*
%TO.C,R5*%
X100837500Y-52812647D03*
X102662500Y-52812647D03*
%TD*%
D27*
%TO.C,Q1*%
X123475000Y-170460000D03*
X125375000Y-170460000D03*
X124425000Y-167040000D03*
%TD*%
D11*
%TO.C,R38*%
X109662500Y-48812647D03*
X107837500Y-48812647D03*
%TD*%
D10*
%TO.C,R15*%
X100837500Y-40812647D03*
X102662500Y-40812647D03*
%TD*%
D11*
%TO.C,R33*%
X93412500Y-197000000D03*
X91587500Y-197000000D03*
%TD*%
D10*
%TO.C,R6*%
X100837500Y-54812647D03*
X102662500Y-54812647D03*
%TD*%
%TO.C,R3*%
X100925000Y-78312647D03*
X102750000Y-78312647D03*
%TD*%
D11*
%TO.C,R36*%
X93412500Y-199000000D03*
X91587500Y-199000000D03*
%TD*%
%TO.C,R34*%
X93412500Y-207000000D03*
X91587500Y-207000000D03*
%TD*%
D12*
%TO.C,R45*%
X113500000Y-72400147D03*
X113500000Y-74225147D03*
%TD*%
D15*
%TO.C,C11*%
X105225000Y-203000000D03*
X98275000Y-203000000D03*
%TD*%
D10*
%TO.C,R1*%
X101087500Y-97312647D03*
X102912500Y-97312647D03*
%TD*%
%TO.C,R12*%
X100837500Y-50812647D03*
X102662500Y-50812647D03*
%TD*%
D12*
%TO.C,R42*%
X110500000Y-74312647D03*
X110500000Y-76137647D03*
%TD*%
D11*
%TO.C,R27*%
X93412500Y-209000000D03*
X91587500Y-209000000D03*
%TD*%
%TO.C,R30*%
X93412500Y-205000000D03*
X91587500Y-205000000D03*
%TD*%
%TO.C,R35*%
X93412500Y-203000000D03*
X91587500Y-203000000D03*
%TD*%
D18*
%TO.C,R22*%
X125250000Y-219412500D03*
X125250000Y-217587500D03*
%TD*%
D10*
%TO.C,R13*%
X100837500Y-44812647D03*
X102662500Y-44812647D03*
%TD*%
D11*
%TO.C,R46*%
X117162500Y-163760000D03*
X115337500Y-163760000D03*
%TD*%
M02*
