M48
; DRILL file {KiCad (6.0.0)} date Thu Apr 21 19:53:10 2022
; FORMAT={-:-/ absolute / inch / decimal}
; #@! TF.CreationDate,2022-04-21T19:53:10+02:00
; #@! TF.GenerationSoftware,Kicad,Pcbnew,(6.0.0)
; #@! TF.FileFunction,Plated,1,2,PTH
FMAT,2
INCH
; #@! TA.AperFunction,Plated,PTH,ViaDrill
T1C0.0157
; #@! TA.AperFunction,Plated,PTH,ComponentDrill
T2C0.0197
; #@! TA.AperFunction,Plated,PTH,ComponentDrill
T3C0.0236
; #@! TA.AperFunction,Plated,PTH,ComponentDrill
T4C0.0350
; #@! TA.AperFunction,Plated,PTH,ComponentDrill
T5C0.0354
; #@! TA.AperFunction,Plated,PTH,ComponentDrill
T6C0.0394
; #@! TA.AperFunction,Plated,PTH,ComponentDrill
T7C0.0402
; #@! TA.AperFunction,Plated,PTH,ComponentDrill
T8C0.0520
; #@! TA.AperFunction,Plated,PTH,ComponentDrill
T9C0.0791
; #@! TA.AperFunction,Plated,PTH,ComponentDrill
T10C0.1063
; #@! TA.AperFunction,Plated,PTH,ComponentDrill
T11C0.1260
; #@! TA.AperFunction,Plated,PTH,ComponentDrill
T12C0.1693
%
G90
G05
T1
X3.3051Y-1.3799
X3.3051Y-1.4799
X3.3051Y-1.5799
X3.3051Y-1.6799
X3.3051Y-1.7799
X3.3051Y-1.8799
X3.3051Y-1.9799
X3.3051Y-2.0799
X3.3051Y-2.1799
X3.3051Y-2.2799
X3.3051Y-2.3799
X3.3051Y-2.4799
X3.3051Y-2.5799
X3.3051Y-2.6799
X3.3051Y-2.7799
X3.3051Y-2.8799
X3.3051Y-2.9799
X3.3051Y-3.0799
X3.3051Y-3.1799
X3.3051Y-3.2799
X3.3051Y-3.3799
X3.3051Y-3.4799
X3.3051Y-3.5799
X3.3051Y-3.6799
X3.3051Y-3.7799
X3.3051Y-3.8799
X3.3051Y-3.9799
X3.3051Y-4.0799
X3.3051Y-4.1799
X3.3051Y-4.2799
X3.3051Y-4.3799
X3.3051Y-4.4799
X3.3051Y-4.5799
X3.3051Y-4.6799
X3.3051Y-4.7799
X3.3051Y-4.8799
X3.3051Y-4.9799
X3.3051Y-5.0799
X3.3051Y-5.1799
X3.3051Y-5.2799
X3.3051Y-5.3799
X3.3051Y-5.4799
X3.3051Y-5.5799
X3.3051Y-5.6799
X3.3051Y-5.7799
X3.3051Y-5.8799
X3.3051Y-5.9799
X3.3051Y-6.0799
X3.3051Y-6.1799
X3.3051Y-6.2799
X3.3051Y-6.3799
X3.3051Y-6.4799
X3.3051Y-6.5799
X3.3051Y-6.6799
X3.3051Y-6.7799
X3.3051Y-6.8799
X3.3051Y-6.9799
X3.3051Y-7.0799
X3.3051Y-7.1799
X3.3051Y-7.2799
X3.3051Y-7.3799
X3.3051Y-7.4799
X3.3051Y-7.5799
X3.3051Y-7.6799
X3.3051Y-7.7799
X3.3051Y-7.8799
X3.3051Y-7.9799
X3.3051Y-8.0799
X3.3051Y-8.1799
X3.3051Y-8.2799
X3.3051Y-8.3799
X3.3051Y-8.4799
X3.3051Y-8.5799
X3.3051Y-8.6799
X3.3051Y-8.7799
X3.3051Y-8.8799
X3.3071Y-8.9961
X3.5335Y-8.2677
X3.5433Y-7.5
X3.5433Y-8.4547
X3.5581Y-8.3219
X3.6461Y-1.0335
X3.6614Y-8.5335
X3.6614Y-9.3504
X3.7303Y-7.4213
X3.7303Y-7.4705
X3.7303Y-7.5197
X3.7303Y-7.6772
X3.7303Y-7.8346
X3.7303Y-7.9921
X3.7303Y-8.1496
X3.7461Y-1.0335
X3.7598Y-7.1161
X3.7614Y-9.3504
X3.7795Y-7.185
X3.7992Y-3.9075
X3.8461Y-1.0335
X3.8614Y-9.3504
X3.8691Y-8.1191
X3.8691Y-8.2274
X3.8691Y-8.503
X3.8691Y-8.6014
X3.8691Y-8.877
X3.8701Y-7.7539
X3.8701Y-7.8524
X3.878Y-7.4114
X3.9075Y-5.5906
X3.937Y-6.4469
X3.9461Y-1.0335
X3.9469Y-6.378
X3.9614Y-9.3504
X3.9862Y-6.3386
X4.0256Y-6.2992
X4.0461Y-1.0335
X4.0614Y-9.3504
X4.065Y-3.2185
X4.065Y-6.2598
X4.0674Y-3.472
X4.0945Y-3.5039
X4.1142Y-7.0669
X4.124Y-3.5335
X4.1339Y-3.2111
X4.1339Y-3.4154
X4.1339Y-6.4272
X4.1437Y-6.0138
X4.1437Y-6.1516
X4.1437Y-6.7717
X4.1461Y-1.0335
X4.1535Y-3.563
X4.1535Y-4.065
X4.1535Y-6.9587
X4.1614Y-9.3504
X4.1929Y-1.6068
X4.1929Y-1.6855
X4.1929Y-1.7643
X4.1929Y-1.843
X4.1929Y-1.9218
X4.1929Y-2.0005
X4.1929Y-2.0792
X4.1929Y-2.158
X4.2224Y-3.6319
X4.2323Y-3.1398
X4.2323Y-3.2283
X4.2421Y-6.8602
X4.2421Y-6.9094
X4.2421Y-6.9587
X4.2461Y-1.0335
X4.2614Y-9.3504
X4.2618Y-8.8091
X4.2717Y-4.1831
X4.2913Y-3.0512
X4.2913Y-8.248
X4.2913Y-8.4843
X4.3012Y-3.2382
X4.3461Y-1.0335
X4.3504Y-3.0512
X4.3504Y-4.2323
X4.3504Y-6.4764
X4.3504Y-7.1063
X4.3504Y-8.8287
X4.3602Y-3.2972
X4.3602Y-6.7028
X4.3614Y-9.3504
X4.3701Y-5.7382
X4.3799Y-5.9547
X4.3898Y-8.8287
X4.4291Y-8.8287
X4.439Y-7.2539
X4.4461Y-1.0335
X4.4614Y-9.3504
X4.4685Y-2.9823
X4.4685Y-3.9567
X4.4685Y-8.8287
X4.4783Y-1.7643
X4.4783Y-4.2815
X4.4808Y-1.8406
X4.4808Y-1.9291
X4.4808Y-2.0079
X4.5079Y-8.8287
X4.5177Y-2.9331
X4.5177Y-3.75
X4.5461Y-1.0335
X4.5472Y-8.8287
X4.5571Y-6.5157
X4.5614Y-9.3504
X4.5768Y-3.3465
X4.6063Y-4.1831
X4.6161Y-3.4055
X4.6161Y-3.4646
X4.6161Y-3.9862
X4.6161Y-4.0846
X4.6457Y-8.1201
X4.6461Y-1.0335
X4.6555Y-7.313
X4.6614Y-9.3504
X4.6752Y-6.3976
X4.685Y-6.2795
X4.685Y-8.6417
X4.6949Y-6.7618
X4.7244Y-6.8799
X4.7441Y-6.063
X4.7461Y-1.0335
X4.7614Y-9.3504
X4.7835Y-6.7224
X4.7933Y-8.4843
X4.813Y-8.9665
X4.8228Y-8.7303
X4.8425Y-8.4941
X4.8461Y-1.0335
X4.8614Y-9.3504
X4.8819Y-6.0728
X4.9016Y-6.9587
X4.9291Y-8.0709
X4.9461Y-1.0335
X4.9508Y-8.4055
X4.9614Y-9.3504
X5.0197Y-6.0728
X5.0295Y-6.4567
X5.0295Y-6.565
X5.0295Y-6.811
X5.0315Y-7.8268
X5.0461Y-1.0335
X5.0614Y-9.3504
X5.1461Y-1.0335
X5.1614Y-9.3504
X5.2067Y-5.2854
X5.2067Y-5.3854
X5.2067Y-5.4854
X5.2067Y-5.5854
X5.2461Y-1.0335
X5.2614Y-9.3504
X5.5591Y-1.3898
X5.5591Y-1.4898
X5.5591Y-1.5898
X5.5591Y-1.6898
X5.5591Y-1.7898
X5.5591Y-1.8898
X5.5591Y-1.9898
X5.5591Y-2.0898
X5.5591Y-2.1898
X5.5591Y-2.2898
X5.5591Y-2.3898
X5.5591Y-2.4898
X5.5591Y-2.5898
X5.5591Y-2.6898
X5.5591Y-2.7898
X5.5591Y-2.8898
X5.5591Y-2.9898
X5.5591Y-3.0898
X5.5591Y-3.1898
X5.5591Y-3.2898
X5.5591Y-3.3898
X5.5591Y-3.4898
X5.5591Y-3.5898
X5.5591Y-3.6898
X5.5591Y-3.7898
X5.5591Y-3.8898
X5.5591Y-3.9898
X5.5591Y-4.0898
X5.5591Y-4.1898
X5.5591Y-4.2898
X5.5591Y-4.3898
X5.5591Y-4.4898
X5.5591Y-4.5898
X5.5591Y-4.6898
X5.5591Y-4.7898
X5.5591Y-4.8898
X5.5591Y-4.9898
X5.5591Y-5.0898
X5.5591Y-5.1898
X5.5591Y-5.2898
X5.5591Y-5.3898
X5.5591Y-5.4898
X5.5591Y-5.5898
X5.5591Y-5.6898
X5.5591Y-5.7898
X5.5591Y-5.8898
X5.5591Y-5.9898
X5.5591Y-6.0898
X5.5591Y-6.1898
X5.5591Y-6.2898
X5.5591Y-6.3898
X5.5591Y-6.4898
X5.5591Y-6.5898
X5.5591Y-6.6898
X5.5591Y-6.7898
X5.5591Y-6.8898
X5.5591Y-6.9898
X5.5591Y-7.0898
X5.5591Y-7.1898
X5.5591Y-7.2898
X5.5591Y-7.3898
X5.5591Y-7.4898
X5.5591Y-7.5898
X5.5591Y-7.6898
X5.5591Y-7.7898
X5.5591Y-7.8898
X5.5591Y-7.9898
X5.5591Y-8.0898
X5.5591Y-8.1898
X5.5591Y-8.2898
X5.5591Y-8.3898
X5.5591Y-8.4898
X5.5591Y-8.5898
X5.5591Y-8.6898
X5.5591Y-8.7898
X5.5591Y-8.8898
X5.561Y-9.0059
T2
X3.7539Y-1.2008
X3.7539Y-9.1732
X3.7816Y-1.134
X3.7816Y-1.2676
X3.7816Y-9.1064
X3.7816Y-9.24
X3.8484Y-1.1063
X3.8484Y-1.2953
X3.8484Y-9.0787
X3.8484Y-9.2677
X3.9152Y-1.134
X3.9152Y-1.2676
X3.9152Y-9.1064
X3.9152Y-9.24
X3.9429Y-1.2008
X3.9429Y-9.1732
X4.935Y-1.2008
X4.935Y-9.1732
X4.9627Y-1.134
X4.9627Y-1.2676
X4.9627Y-9.1064
X4.9627Y-9.24
X5.0295Y-1.1063
X5.0295Y-1.2953
X5.0295Y-9.0787
X5.0295Y-9.2677
X5.0963Y-1.134
X5.0963Y-1.2676
X5.0963Y-9.1064
X5.0963Y-9.24
X5.124Y-1.2008
X5.124Y-9.1732
T3
X3.3474Y-1.2008
X3.3474Y-9.1732
X3.3846Y-1.111
X3.3846Y-1.2906
X3.3846Y-9.0834
X3.3846Y-9.263
X3.4744Y-1.0738
X3.4744Y-1.3278
X3.4744Y-9.0463
X3.4744Y-9.3002
X3.5642Y-1.111
X3.5642Y-1.2906
X3.5642Y-9.0834
X3.5642Y-9.263
X3.6014Y-1.2008
X3.6014Y-9.1732
X5.2766Y-1.2008
X5.2766Y-9.1732
X5.3138Y-1.111
X5.3138Y-1.2906
X5.3138Y-9.0834
X5.3138Y-9.263
X5.4035Y-1.0738
X5.4035Y-1.3278
X5.4035Y-9.0463
X5.4035Y-9.3002
X5.4933Y-1.111
X5.4933Y-1.2906
X5.4933Y-9.0834
X5.4933Y-9.263
X5.5305Y-1.2008
X5.5305Y-9.1732
T4
X5.0965Y-8.5417
X5.0965Y-8.6417
T5
X4.4268Y-7.874
X4.7268Y-7.874
X4.9311Y-7.5862
X4.9311Y-7.8862
T6
X3.435Y-7.6801
X3.435Y-7.7801
X3.435Y-7.8801
X3.435Y-7.9801
X3.435Y-8.0801
X3.435Y-8.1801
X3.435Y-8.2801
X3.435Y-8.3801
X3.435Y-8.4801
X3.435Y-8.5801
X3.4547Y-3.3588
X3.4547Y-3.4769
X3.4547Y-3.595
X3.4547Y-3.7131
X3.4581Y-1.7249
X3.4581Y-1.843
X3.4581Y-1.9611
X3.4581Y-2.0792
X3.4581Y-2.1973
X3.4581Y-2.6107
X3.4581Y-2.7288
X3.4581Y-2.847
X3.4581Y-2.9651
X3.5236Y-6.2008
X3.5236Y-6.3098
X3.5236Y-6.4189
X3.5236Y-6.528
X3.5236Y-6.637
X3.5335Y-4.3681
X3.5335Y-4.4772
X3.5335Y-4.5862
X3.5335Y-4.6953
X3.5335Y-4.8043
X3.5728Y-3.3588
X3.5728Y-3.4769
X3.5728Y-3.595
X3.5728Y-3.7131
X3.5762Y-1.7249
X3.5762Y-1.843
X3.5762Y-1.9611
X3.5762Y-2.0792
X3.5762Y-2.1973
X3.5762Y-2.6107
X3.5762Y-2.7288
X3.5762Y-2.847
X3.5762Y-2.9651
X3.6354Y-6.2553
X3.6354Y-6.3644
X3.6354Y-6.4734
X3.6354Y-6.5825
X3.6453Y-4.4226
X3.6453Y-4.5317
X3.6453Y-4.6407
X3.6453Y-4.7498
T7
X3.4547Y-7.2589
X3.5547Y-7.2589
X3.6547Y-7.2589
T8
X3.5138Y-5.3937
X3.5138Y-5.5906
X5.3642Y-1.5449
X5.3642Y-1.7417
X5.3642Y-1.9386
X5.3642Y-2.1354
X5.3642Y-2.3913
X5.3642Y-2.5882
X5.3642Y-2.785
X5.3642Y-2.9819
X5.3642Y-3.2476
X5.3642Y-3.4445
X5.3642Y-3.6413
X5.3642Y-3.8382
X5.3642Y-4.0945
X5.3642Y-4.2913
X5.3642Y-4.4882
X5.3642Y-4.685
X5.3642Y-4.9406
X5.3642Y-5.1374
X5.3642Y-5.3343
X5.3642Y-5.5311
X5.3642Y-5.7874
X5.3642Y-5.9843
X5.3642Y-6.1811
X5.3642Y-6.378
X5.3642Y-6.6339
X5.3642Y-6.8307
X5.3642Y-7.0276
X5.3642Y-7.2244
X5.3642Y-7.4803
X5.3642Y-7.6772
T9
X5.2965Y-8.4417
X5.2965Y-8.8417
T10
X5.1673Y-8.0709
X5.3642Y-8.0709
T11
X3.5795Y-5.9268
X3.5795Y-6.911
X3.5894Y-4.0941
X3.5894Y-5.0783
X3.8484Y-1.2008
X3.8484Y-9.1732
X5.0295Y-1.2008
X5.0295Y-9.1732
T12
X3.4744Y-1.2008
X3.4744Y-9.1732
X5.4035Y-1.2008
X5.4035Y-9.1732
T0
M30
