%TF.GenerationSoftware,KiCad,Pcbnew,(6.0.0)*%
%TF.CreationDate,2022-04-21T19:53:10+02:00*%
%TF.ProjectId,KallebolFanoutBoard,4b616c6c-6562-46f6-9c46-616e6f757442,rev?*%
%TF.SameCoordinates,Original*%
%TF.FileFunction,Soldermask,Bot*%
%TF.FilePolarity,Negative*%
%FSLAX46Y46*%
G04 Gerber Fmt 4.6, Leading zero omitted, Abs format (unit mm)*
G04 Created by KiCad (PCBNEW (6.0.0)) date 2022-04-21 19:53:10*
%MOMM*%
%LPD*%
G01*
G04 APERTURE LIST*
G04 Aperture macros list*
%AMRoundRect*
0 Rectangle with rounded corners*
0 $1 Rounding radius*
0 $2 $3 $4 $5 $6 $7 $8 $9 X,Y pos of 4 corners*
0 Add a 4 corners polygon primitive as box body*
4,1,4,$2,$3,$4,$5,$6,$7,$8,$9,$2,$3,0*
0 Add four circle primitives for the rounded corners*
1,1,$1+$1,$2,$3*
1,1,$1+$1,$4,$5*
1,1,$1+$1,$6,$7*
1,1,$1+$1,$8,$9*
0 Add four rect primitives between the rounded corners*
20,1,$1+$1,$2,$3,$4,$5,0*
20,1,$1+$1,$4,$5,$6,$7,0*
20,1,$1+$1,$6,$7,$8,$9,0*
20,1,$1+$1,$8,$9,$2,$3,0*%
G04 Aperture macros list end*
%ADD10R,3.960000X1.980000*%
%ADD11O,3.960000X1.980000*%
%ADD12C,0.800000*%
%ADD13C,6.400000*%
%ADD14C,1.000000*%
%ADD15RoundRect,0.250001X0.499999X-0.499999X0.499999X0.499999X-0.499999X0.499999X-0.499999X-0.499999X0*%
%ADD16C,1.500000*%
%ADD17O,2.500000X1.600000*%
%ADD18O,7.000000X3.500000*%
%ADD19C,4.000000*%
%ADD20R,1.600000X1.600000*%
%ADD21C,1.600000*%
%ADD22R,1.700000X1.700000*%
%ADD23O,1.700000X1.700000*%
%ADD24C,0.900000*%
%ADD25C,8.600000*%
%ADD26R,1.800000X1.800000*%
%ADD27O,1.800000X1.800000*%
%ADD28R,1.730000X2.030000*%
%ADD29O,1.730000X2.030000*%
%ADD30R,3.800000X3.800000*%
G04 APERTURE END LIST*
D10*
%TO.C,J4*%
X89250000Y-142000000D03*
D11*
X89250000Y-137000000D03*
%TD*%
D10*
%TO.C,J15*%
X136250000Y-39240000D03*
D11*
X136250000Y-44240000D03*
X136250000Y-49240000D03*
X136250000Y-54240000D03*
%TD*%
D10*
%TO.C,J16*%
X136250000Y-82490000D03*
D11*
X136250000Y-87490000D03*
X136250000Y-92490000D03*
X136250000Y-97490000D03*
%TD*%
D12*
%TO.C,H6*%
X96052944Y-231302944D03*
X97750000Y-230600000D03*
D13*
X97750000Y-233000000D03*
D12*
X96052944Y-234697056D03*
X97750000Y-235400000D03*
X99447056Y-234697056D03*
X99447056Y-231302944D03*
X95350000Y-233000000D03*
X100150000Y-233000000D03*
%TD*%
D14*
%TO.C,J1*%
X91690000Y-97312647D03*
X91690000Y-82312647D03*
D15*
X87750000Y-94312647D03*
D16*
X87750000Y-91312647D03*
X87750000Y-88312647D03*
X87750000Y-85312647D03*
X90750000Y-94312647D03*
X90750000Y-91312647D03*
X90750000Y-88312647D03*
X90750000Y-85312647D03*
%TD*%
D12*
%TO.C,H7*%
X125350000Y-233000000D03*
X130150000Y-233000000D03*
X127750000Y-235400000D03*
D13*
X127750000Y-233000000D03*
D12*
X127750000Y-230600000D03*
X129447056Y-231302944D03*
X129447056Y-234697056D03*
X126052944Y-234697056D03*
X126052944Y-231302944D03*
%TD*%
%TO.C,H5*%
X129447056Y-28802944D03*
D13*
X127750000Y-30500000D03*
D12*
X129447056Y-32197056D03*
X125350000Y-30500000D03*
X127750000Y-28100000D03*
X130150000Y-30500000D03*
X126052944Y-28802944D03*
X127750000Y-32900000D03*
X126052944Y-32197056D03*
%TD*%
D17*
%TO.C,J7*%
X129450000Y-219500000D03*
X129450000Y-216960000D03*
D18*
X134530000Y-214420000D03*
X134530000Y-224580000D03*
%TD*%
D14*
%TO.C,J2*%
X91775000Y-63312647D03*
X91775000Y-78312647D03*
D15*
X87835000Y-75312647D03*
D16*
X87835000Y-72312647D03*
X87835000Y-69312647D03*
X87835000Y-66312647D03*
X90835000Y-75312647D03*
X90835000Y-72312647D03*
X90835000Y-69312647D03*
X90835000Y-66312647D03*
%TD*%
D19*
%TO.C,J5*%
X90920000Y-150540000D03*
X90920000Y-175540000D03*
D20*
X89500000Y-157500000D03*
D21*
X89500000Y-160270000D03*
X89500000Y-163040000D03*
X89500000Y-165810000D03*
X89500000Y-168580000D03*
X92340000Y-158885000D03*
X92340000Y-161655000D03*
X92340000Y-164425000D03*
X92340000Y-167195000D03*
%TD*%
D10*
%TO.C,J14*%
X136250000Y-168500000D03*
D11*
X136250000Y-173500000D03*
X136250000Y-178500000D03*
X136250000Y-183500000D03*
%TD*%
D10*
%TO.C,J12*%
X136250000Y-190000000D03*
D11*
X136250000Y-195000000D03*
%TD*%
D22*
%TO.C,J10*%
X87250000Y-195075000D03*
D23*
X87250000Y-197615000D03*
X87250000Y-200155000D03*
X87250000Y-202695000D03*
X87250000Y-205235000D03*
X87250000Y-207775000D03*
X87250000Y-210315000D03*
X87250000Y-212855000D03*
X87250000Y-215395000D03*
X87250000Y-217935000D03*
%TD*%
D24*
%TO.C,H1*%
X91475000Y-233000000D03*
X85025000Y-233000000D03*
D25*
X88250000Y-233000000D03*
D24*
X90530419Y-230719581D03*
X88250000Y-236225000D03*
X90530419Y-235280419D03*
X85969581Y-230719581D03*
X88250000Y-229775000D03*
X85969581Y-235280419D03*
%TD*%
%TO.C,H2*%
X134025000Y-233000000D03*
X137250000Y-229775000D03*
X139530419Y-235280419D03*
X139530419Y-230719581D03*
D25*
X137250000Y-233000000D03*
D24*
X134969581Y-230719581D03*
X137250000Y-236225000D03*
X140475000Y-233000000D03*
X134969581Y-235280419D03*
%TD*%
%TO.C,H3*%
X90530419Y-32780419D03*
X85969581Y-32780419D03*
X91475000Y-30500000D03*
X85969581Y-28219581D03*
X90530419Y-28219581D03*
X88250000Y-33725000D03*
X85025000Y-30500000D03*
D25*
X88250000Y-30500000D03*
D24*
X88250000Y-27275000D03*
%TD*%
D10*
%TO.C,J13*%
X136250000Y-104000000D03*
D11*
X136250000Y-109000000D03*
X136250000Y-114000000D03*
X136250000Y-119000000D03*
%TD*%
D19*
%TO.C,J6*%
X91170000Y-128990000D03*
X91170000Y-103990000D03*
D20*
X89750000Y-110950000D03*
D21*
X89750000Y-113720000D03*
X89750000Y-116490000D03*
X89750000Y-119260000D03*
X89750000Y-122030000D03*
X92590000Y-112335000D03*
X92590000Y-115105000D03*
X92590000Y-117875000D03*
X92590000Y-120645000D03*
%TD*%
D26*
%TO.C,D1*%
X112440000Y-200000000D03*
D27*
X120060000Y-200000000D03*
%TD*%
D12*
%TO.C,H8*%
X95350000Y-30500000D03*
X97750000Y-32900000D03*
X99447056Y-32197056D03*
X97750000Y-28100000D03*
D13*
X97750000Y-30500000D03*
D12*
X99447056Y-28802944D03*
X100150000Y-30500000D03*
X96052944Y-32197056D03*
X96052944Y-28802944D03*
%TD*%
D24*
%TO.C,H4*%
X139530419Y-28219581D03*
X140475000Y-30500000D03*
D25*
X137250000Y-30500000D03*
D24*
X137250000Y-33725000D03*
X137250000Y-27275000D03*
X139530419Y-32780419D03*
X134969581Y-32780419D03*
X134025000Y-30500000D03*
X134969581Y-28219581D03*
%TD*%
D26*
%TO.C,D2*%
X125250000Y-200310000D03*
D27*
X125250000Y-192690000D03*
%TD*%
D10*
%TO.C,J17*%
X136250000Y-60740000D03*
D11*
X136250000Y-65740000D03*
X136250000Y-70740000D03*
X136250000Y-75740000D03*
%TD*%
D10*
%TO.C,J11*%
X136250000Y-147000000D03*
D11*
X136250000Y-152000000D03*
X136250000Y-157000000D03*
X136250000Y-162000000D03*
%TD*%
D14*
%TO.C,J3*%
X91775000Y-58812647D03*
X91775000Y-40812647D03*
D15*
X87835000Y-55812647D03*
D16*
X87835000Y-52812647D03*
X87835000Y-49812647D03*
X87835000Y-46812647D03*
X87835000Y-43812647D03*
X90835000Y-55812647D03*
X90835000Y-52812647D03*
X90835000Y-49812647D03*
X90835000Y-46812647D03*
X90835000Y-43812647D03*
%TD*%
D28*
%TO.C,J8*%
X87750000Y-184375000D03*
D29*
X90290000Y-184375000D03*
X92830000Y-184375000D03*
%TD*%
D30*
%TO.C,J9*%
X131250000Y-205000000D03*
D19*
X136250000Y-205000000D03*
%TD*%
D10*
%TO.C,J18*%
X136250000Y-125490000D03*
D11*
X136250000Y-130490000D03*
X136250000Y-135490000D03*
X136250000Y-140490000D03*
%TD*%
M02*
